<?xml version="1.0" standalone="no"?>
<!DOCTYPE svg PUBLIC "-//W3C//DTD SVG 20010904//EN"
 "http://www.w3.org/TR/2001/REC-SVG-20010904/DTD/svg10.dtd">
<svg version="1.0" xmlns="http://www.w3.org/2000/svg"
 width="670.000000pt" height="799.000000pt" viewBox="0 0 670.000000 799.000000"
 preserveAspectRatio="xMidYMid meet">

<g transform="translate(0.000000,799.000000) scale(0.100000,-0.100000)"
fill="#000000" stroke="none">
<path d="M1470 7513 c-123 -12 -224 -43 -241 -75 -10 -18 -14 -580 -5 -610 3
-7 7 -251 11 -543 3 -291 8 -606 10 -700 4 -179 7 -335 30 -1975 8 -558 17
-1122 20 -1252 l6 -237 -38 -20 c-92 -47 -183 -162 -183 -232 0 -23 -5 -27
-37 -32 -21 -3 -186 -30 -368 -61 -181 -30 -407 -67 -502 -82 l-172 -27 1 -33
c1 -20 7 -34 13 -34 24 0 764 118 978 156 67 13 87 20 87 33 1 14 2 14 13 1
16 -21 54 -22 63 -2 3 9 7 35 8 58 2 44 49 120 67 108 5 -3 8 -8 5 -12 -9 -15
22 -127 34 -124 9 2 11 -8 6 -38 -6 -38 -2 -45 26 -41 4 0 5 -6 2 -13 -7 -17
25 -36 60 -36 20 0 24 -4 20 -18 -5 -13 -4 -14 4 -3 6 8 17 11 27 7 15 -5 16
-4 5 9 -7 8 -8 15 -2 15 14 0 33 -26 25 -34 -4 -4 0 -4 10 -1 9 4 23 0 33 -10
11 -11 25 -14 44 -10 43 9 79 -4 86 -31 4 -15 16 -27 33 -31 14 -3 32 -12 39
-20 15 -15 68 -18 76 -4 3 5 -1 11 -9 15 -17 6 -20 42 -5 51 5 3 21 -5 35 -19
25 -25 36 -21 42 13 3 21 13 27 88 51 67 21 70 21 82 3 27 -40 32 -43 59 -33
67 26 58 0 -13 -38 -86 -45 -163 -62 -309 -69 -103 -4 -147 -2 -210 12 -86 18
-201 71 -209 95 -3 8 -24 23 -46 32 -29 12 -40 22 -36 32 4 10 1 13 -9 9 -8
-3 -23 2 -33 11 -10 9 -21 13 -24 9 -4 -3 -16 2 -28 13 -20 18 -20 18 -14 -9
6 -22 4 -26 -9 -21 -8 3 -18 14 -21 24 -5 16 -10 16 -68 4 -52 -10 -547 -93
-917 -153 l-105 -17 -3 -45 -3 -45 133 22 c73 13 302 50 508 84 206 33 401 67
433 75 l57 15 37 -40 c44 -50 189 -123 288 -147 39 -9 76 -18 84 -20 11 -3 12
-45 6 -241 l-6 -237 36 -160 c20 -88 45 -194 56 -237 10 -42 19 -107 19 -144
0 -83 29 -224 45 -224 15 0 50 136 112 430 l46 215 6 304 6 305 65 12 c135 25
252 85 323 163 45 50 62 87 72 154 7 43 9 47 36 47 37 0 319 43 496 75 623
115 1275 316 1818 561 177 80 525 256 668 338 110 63 120 67 155 59 l37 -9 -3
-149 c-4 -143 -2 -157 32 -303 20 -84 36 -173 36 -197 0 -55 19 -145 30 -145
10 0 13 9 34 100 52 222 67 329 73 516 l6 192 45 5 c67 7 170 64 208 114 44
57 51 109 25 169 l-21 47 68 71 c257 271 313 522 166 746 -48 72 -181 203
-265 260 l-66 45 3 90 c8 217 11 1025 3 1025 -4 0 -4 12 1 28 11 37 22 889 11
896 -5 3 -13 0 -19 -7 -11 -14 -26 -887 -14 -887 4 0 8 -11 8 -24 1 -18 -7
-29 -32 -42 -36 -19 -41 -33 -23 -51 7 -7 9 -30 5 -60 -3 -26 -5 -70 -4 -98 4
-116 2 -1160 -2 -1514 -3 -294 -1 -386 8 -389 7 -2 10 -7 7 -12 -3 -4 5 -6 17
-2 21 5 21 4 15 -84 -6 -79 -9 -91 -32 -109 -15 -13 -25 -31 -25 -47 0 -14 -7
-29 -16 -32 -12 -5 -11 -10 11 -30 l26 -25 -23 -15 c-30 -19 -147 -46 -201
-46 -23 0 -58 4 -77 9 -19 6 -61 12 -94 16 -32 3 -67 10 -77 16 -32 17 -21 19
24 4 37 -13 40 -13 23 0 -11 8 -24 15 -29 15 -4 0 -5 5 -2 11 4 6 13 8 21 5 8
-3 13 0 11 7 -1 7 6 11 16 9 25 -4 21 15 -10 44 l-28 25 25 -6 c17 -4 21 -3
12 3 -7 5 -14 17 -16 26 -1 10 -7 21 -13 24 -33 22 -49 142 -18 142 37 0 38
25 31 680 -4 349 -7 642 -7 650 0 8 0 128 0 265 0 138 -1 319 -3 403 l-3 154
-28 22 c-18 14 -24 25 -17 30 7 4 10 104 10 329 -1 306 -2 323 -20 323 -26 0
-31 -27 -24 -135 3 -53 8 -328 11 -611 5 -520 12 -727 23 -745 4 -5 8 -19 9
-30 4 -25 -14 -7 -19 19 -1 10 -79 89 -173 175 -259 239 -411 422 -475 571
-20 46 -24 72 -25 160 0 103 1 108 39 185 71 144 253 298 509 430 92 48 97 52
97 83 0 17 -2 32 -4 32 -2 0 -75 -36 -162 -80 -218 -109 -330 -184 -445 -299
-109 -110 -159 -195 -179 -309 -32 -178 69 -384 302 -621 99 -100 340 -298
449 -369 l67 -43 6 -527 c3 -290 8 -567 10 -617 l5 -90 -45 -30 c-111 -73
-126 -208 -34 -289 l34 -29 -35 -12 c-19 -7 -108 -51 -199 -98 -388 -201 -807
-378 -1200 -505 -467 -151 -1044 -282 -1489 -337 l-124 -15 -41 38 c-23 21
-66 52 -95 68 l-53 29 6 290 c3 160 11 682 17 1160 6 479 14 1109 18 1400 3
292 5 532 4 534 -1 1 -17 -8 -35 -22 -18 -13 -50 -32 -71 -42 -28 -13 -35 -21
-27 -30 8 -9 7 -15 -2 -18 -11 -4 -10 -6 0 -6 7 -1 10 -6 6 -12 -4 -8 0 -9 15
-4 22 7 30 -10 9 -18 -10 -4 -10 -6 0 -6 10 -1 10 -6 2 -22 -7 -11 -9 -23 -6
-26 3 -4 0 -13 -6 -21 -10 -11 -8 -16 6 -24 17 -9 17 -11 -1 -30 -18 -21 -18
-21 5 -16 29 8 28 -3 -5 -37 -27 -27 -27 -28 -5 -22 20 5 21 3 10 -10 -15 -19
-18 -73 -3 -73 5 0 4 -4 -4 -9 -10 -6 -10 -13 -3 -28 19 -35 22 -73 7 -73 -9
0 -12 -6 -9 -15 4 -10 0 -15 -12 -16 -17 0 -16 -1 2 -9 30 -12 39 -42 18 -57
-10 -7 -12 -13 -6 -13 7 0 12 -7 12 -16 0 -8 -4 -12 -10 -9 -21 13 -9 -13 13
-28 18 -13 19 -16 5 -16 -20 -1 -24 -16 -6 -27 8 -5 6 -11 -6 -20 -10 -7 -15
-18 -11 -24 12 -19 24 -71 15 -65 -9 5 -19 -93 -10 -102 3 -2 6 -21 6 -41 5
-115 8 -134 23 -149 12 -12 13 -17 3 -21 -8 -2 -10 -16 -6 -43 4 -26 3 -39 -5
-39 -6 0 -11 -12 -11 -26 0 -14 4 -23 10 -19 6 3 10 1 10 -4 0 -6 -4 -11 -9
-11 -6 0 -6 -12 1 -30 7 -23 7 -34 -2 -45 -8 -10 -9 -15 -2 -15 7 0 9 -18 6
-47 -10 -103 -11 -123 -5 -123 4 0 7 -45 8 -100 1 -60 -2 -98 -8 -95 -5 4 -9
1 -9 -4 0 -6 4 -11 9 -11 12 0 9 -483 -4 -492 -6 -5 -6 -8 2 -8 7 0 10 -14 7
-37 -8 -89 -12 -1037 -4 -1059 5 -13 16 -24 24 -24 21 0 26 -23 26 -113 -1
-88 -19 -141 -55 -161 -29 -16 -45 -40 -33 -47 6 -4 7 -12 4 -18 -4 -6 -2 -11
5 -11 29 0 -60 -52 -121 -71 -129 -40 -299 -36 -423 11 -61 23 -137 75 -145
99 -3 10 5 7 23 -7 30 -24 45 -28 45 -12 0 6 -7 10 -15 10 -8 0 -15 4 -15 9 0
5 -3 17 -7 27 -5 13 -3 15 8 9 8 -5 5 1 -5 14 -15 16 -21 18 -28 9 -8 -13 -9
-11 -12 25 -1 6 -5 15 -10 19 -5 3 -11 55 -13 115 -3 69 -1 103 5 95 8 -11 14
-9 31 9 l22 24 -6 635 c-12 1108 -11 1228 3 1241 16 17 15 32 -2 26 -12 -5
-15 7 -14 64 1 38 5 69 10 69 4 0 8 9 8 20 0 11 -4 20 -8 20 -12 0 -4 81 9 96
9 10 7 15 -5 20 -9 3 -16 10 -16 16 0 5 5 6 12 2 8 -5 9 -2 5 9 -4 10 -10 24
-13 32 -3 8 -1 15 6 15 7 0 9 8 5 21 -5 15 -4 19 5 14 7 -4 4 4 -5 19 -16 24
-16 28 -1 51 16 24 14 29 -9 26 -5 0 -2 5 7 11 15 11 15 13 -4 30 l-21 18 22
19 c18 16 20 23 12 39 -6 11 -16 23 -23 25 -8 3 -6 6 5 6 18 1 23 16 8 25 -5
3 -7 31 -5 61 2 35 0 54 -6 50 -6 -3 -10 -2 -10 4 0 5 4 13 10 16 6 4 5 13 -3
25 -9 15 -9 24 0 38 6 11 8 24 4 31 -5 7 -2 30 6 52 11 35 11 42 -1 55 -13 12
-13 18 -1 41 10 20 11 31 3 40 -7 9 -7 13 1 13 7 0 5 9 -5 25 -13 20 -13 24
-2 20 19 -8 18 37 -1 52 -9 7 -11 12 -4 13 12 0 6 37 -10 58 -9 12 3 17 28 12
6 -1 4 4 -2 11 -7 7 -13 21 -13 30 0 10 -6 20 -12 22 -8 3 -6 6 5 6 15 1 19 6
16 28 0 4 7 10 16 13 13 4 1 16 -44 44 -34 20 -61 42 -61 47 0 6 4 8 9 4 5 -3
13 0 16 6 8 12 8 24 -5 664 -5 264 -12 645 -16 846 l-7 366 24 16 c13 10 35
17 50 17 15 0 44 8 65 17 33 14 80 18 299 20 229 2 269 0 334 -17 41 -10 80
-25 88 -33 11 -11 14 -71 13 -323 0 -169 -2 -324 -5 -344 -3 -27 -16 -782 -19
-1145 -1 -61 10 -93 26 -77 15 15 41 1887 27 1914 -29 54 -172 78 -442 76
-117 0 -228 -3 -247 -5z m3259 -1723 c-31 -51 -50 -69 -28 -27 16 29 49 77 55
77 2 0 -10 -22 -27 -50z m-59 -30 c-43 -72 -53 -126 -48 -236 5 -91 8 -101 56
-197 74 -148 196 -292 442 -523 104 -98 97 -94 -25 11 -119 103 -285 273 -348
356 -102 137 -139 222 -151 350 -7 78 16 165 64 242 40 63 47 60 10 -3z m4
-79 c-9 -23 -18 -40 -21 -38 -2 3 4 23 13 46 9 23 18 40 21 38 2 -3 -4 -23
-13 -46z m60 -541 c32 -41 124 -140 205 -220 80 -80 133 -134 116 -120 -183
155 -328 312 -396 430 -15 25 -15 28 -2 10 10 -13 44 -58 77 -100z m391 -390
c10 -11 16 -20 13 -20 -3 0 -13 9 -23 20 -10 11 -16 20 -13 20 3 0 13 -9 23
-20z m-3788 -132 c-3 -8 -6 -5 -6 6 -1 11 2 17 5 13 3 -3 4 -12 1 -19z m4676
-458 c52 -55 89 -106 114 -158 37 -73 38 -80 38 -182 0 -103 -1 -106 -42 -190
-42 -85 -103 -172 -186 -265 -25 -27 -47 -48 -49 -45 -2 3 -1 82 3 175 4 94 8
304 8 468 1 346 -9 328 114 197z m88 -37 c13 -16 12 -17 -3 -4 -10 7 -18 15
-18 17 0 8 8 3 21 -13z m44 -64 c22 -41 11 -36 -14 7 -12 19 -16 32 -11 29 6
-3 17 -19 25 -36z m81 -72 c31 -69 41 -175 23 -257 -21 -95 -131 -270 -235
-374 -22 -23 -44 -49 -47 -58 -4 -10 -16 -18 -27 -18 -17 0 -7 16 54 83 231
253 296 465 202 660 -13 26 -18 43 -11 37 7 -6 25 -38 41 -73z m22 -362 c-6
-14 -13 -23 -15 -21 -5 5 15 46 22 46 3 0 -1 -11 -7 -25z m-54 -109 c-46 -76
-203 -265 -221 -266 -7 0 -13 5 -13 10 0 6 4 10 9 10 15 0 158 169 209 247 26
39 49 70 51 68 2 -3 -14 -33 -35 -69z m-821 -572 c4 -4 -46 -33 -110 -66 -63
-32 -117 -57 -119 -55 -2 1 36 24 84 49 48 26 96 54 107 62 22 17 29 19 38 10z
m32 -23 c3 -6 -16 -21 -42 -34 -27 -14 -86 -45 -133 -70 -93 -49 -444 -225
-500 -250 -273 -121 -716 -288 -870 -326 -25 -7 -54 -16 -65 -21 -18 -9 -101
-32 -345 -95 -109 -28 -240 -58 -320 -74 -30 -6 -66 -14 -80 -16 -14 -3 -90
-17 -169 -30 -78 -14 -148 -28 -154 -32 -6 -3 -7 -1 -3 6 5 8 1 10 -16 7 -86
-19 -143 -26 -313 -41 -11 -1 -35 -5 -52 -9 -28 -6 -33 -5 -33 11 0 16 10 18
83 19 228 3 978 158 1417 294 91 28 172 53 180 55 140 40 674 244 769 295 9 5
122 60 251 123 129 63 267 133 305 155 77 45 81 46 90 33z m267 -85 c7 4 8 2
4 -5 -4 -7 -9 -84 -10 -171 -1 -88 -5 -163 -9 -166 -4 -4 -8 4 -8 17 -4 63 -9
102 -14 107 -3 3 -5 -9 -5 -26 0 -17 -4 -33 -9 -36 -18 -11 -28 153 -15 248 5
36 11 46 25 46 11 0 20 6 20 13 1 6 4 2 6 -11 3 -13 9 -19 15 -16z m-542 -21
c0 -2 -10 -9 -22 -15 -22 -11 -22 -10 -4 4 21 17 26 19 26 11z m-110 -59 c0
-2 -7 -7 -16 -10 -8 -3 -12 -2 -9 4 6 10 25 14 25 6z m-2775 -856 l27 -39 -16
-55 c-9 -31 -21 -56 -26 -56 -6 0 -10 -6 -10 -13 0 -15 -78 -77 -97 -77 -21 0
-15 43 17 108 16 34 29 70 28 79 -2 10 1 42 6 71 8 51 9 52 26 37 10 -9 30
-34 45 -55z m-1308 -126 c-3 -3 -12 -4 -19 -1 -8 3 -5 6 6 6 11 1 17 -2 13 -5z
m783 -174 c0 -23 -25 -27 -33 -6 -7 16 1 26 20 26 7 0 13 -9 13 -20z m-355
-20 c13 -6 15 -9 5 -9 -8 0 -22 4 -30 9 -18 12 -2 12 25 0z m373 -125 c3 -2 6
-38 7 -80 2 -42 6 -79 10 -83 3 -4 5 32 3 81 -2 64 0 87 10 89 6 0 17 1 24 2
25 2 4 -658 -22 -674 -4 -3 -11 -29 -15 -57 -4 -29 -11 -53 -16 -53 -5 0 -9
-28 -9 -62 0 -34 -3 -59 -6 -56 -3 4 -5 181 -5 395 0 213 -3 382 -8 375 -12
-20 -21 8 -21 64 0 24 -4 44 -9 44 -25 0 -13 -167 13 -186 15 -10 15 -12 1
-18 -19 -7 -20 -26 0 -26 8 0 15 -4 15 -10 0 -5 -6 -7 -14 -4 -10 4 -14 -13
-18 -78 -3 -46 -2 -90 3 -98 6 -10 8 -3 9 23 0 23 4 36 10 32 12 -8 13 -142 1
-149 -4 -3 -8 5 -8 17 -1 49 -3 58 -14 51 -8 -4 -9 -27 -4 -68 10 -92 12 -166
4 -166 -11 0 -28 57 -34 115 -8 62 -11 66 -24 24 -6 -24 -9 54 -10 262 -1 163
2 299 6 303 7 7 113 0 121 -9z m-50 -740 c-3 -3 -9 2 -12 12 -6 14 -5 15 5 6
7 -7 10 -15 7 -18z"/>
<path d="M5630 2793 c0 -21 3 -24 9 -14 5 8 7 20 4 28 -8 21 -13 15 -13 -14z"/>
<path d="M5630 2685 c0 -30 5 -55 10 -55 6 0 10 25 10 55 0 30 -4 55 -10 55
-5 0 -10 -25 -10 -55z"/>
<path d="M1745 1270 c3 -5 8 -10 11 -10 2 0 4 5 4 10 0 6 -5 10 -11 10 -5 0
-7 -4 -4 -10z"/>
<path d="M1740 1180 c0 -19 3 -21 12 -12 9 9 9 15 0 24 -9 9 -12 7 -12 -12z"/>
<path d="M1746 1143 c5 -5 12 -12 16 -18 4 -6 8 -2 8 8 0 9 -7 17 -17 17 -9 0
-12 -3 -7 -7z"/>
<path d="M1739 1010 c-3 -101 3 -222 10 -200 1 3 4 59 7 125 2 66 7 126 9 133
2 6 0 12 -5 12 -5 0 -10 12 -13 28 -2 15 -5 -29 -8 -98z"/>
<path d="M5435 6739 c-81 -12 -109 -34 -113 -90 -6 -66 9 -369 17 -369 4 0 13
10 19 23 15 26 23 297 10 313 -20 27 27 61 97 71 87 12 284 14 333 4 99 -22
105 -26 99 -69 -4 -37 13 -79 26 -65 4 3 7 37 7 74 0 80 -9 90 -98 108 -61 13
-309 13 -397 0z"/>
<path d="M6675 6745 c-5 -2 -82 -24 -170 -49 -88 -24 -252 -76 -365 -114
l-205 -69 -3 -31 c-2 -18 -1 -32 3 -32 3 0 90 30 193 66 103 36 273 92 377
123 181 55 190 59 193 84 3 26 -1 30 -23 22z"/>
<path d="M1435 5441 c3 -6 27 -11 52 -11 57 0 53 5 -11 14 -33 5 -46 4 -41 -3z"/>
<path d="M1553 5364 c1 -19 6 -34 10 -34 5 0 6 -4 3 -9 -3 -5 3 -11 14 -14 27
-7 25 -27 -2 -27 -23 -1 -23 -1 -3 -16 17 -13 18 -16 5 -24 -13 -8 -12 -10 3
-10 11 0 17 -5 14 -12 -2 -7 -11 -12 -20 -10 -8 1 -18 -2 -22 -8 -4 -6 5 -10
20 -10 15 0 24 -4 20 -10 -3 -5 -15 -10 -26 -10 -30 0 -23 -16 16 -34 43 -21
45 -29 5 -22 -17 2 -28 0 -24 -5 9 -15 56 -10 70 9 17 22 17 32 0 32 -9 0 -14
13 -14 40 -1 38 1 40 24 34 14 -4 24 -2 24 5 0 6 -11 11 -24 11 -14 0 -28 4
-31 10 -3 6 1 7 9 4 9 -3 16 -1 16 5 0 6 -4 11 -10 11 -5 0 -10 9 -10 20 0 12
-10 24 -22 30 -13 5 -20 10 -15 11 23 5 33 3 44 -11 11 -13 14 -13 22 0 6 8
13 11 18 6 4 -4 0 -12 -10 -17 -9 -6 -17 -15 -17 -21 0 -7 5 -6 15 2 9 8 15 9
15 2 0 -6 -4 -14 -10 -17 -6 -4 -2 -15 10 -27 11 -12 20 -27 20 -32 0 -6 5 -4
10 4 12 19 13 33 1 26 -7 -5 -21 15 -21 30 0 10 77 3 88 -8 10 -10 15 -10 21
1 5 8 18 12 30 8 12 -3 24 -1 27 4 3 5 0 9 -6 9 -7 0 -8 6 -1 19 6 10 7 21 3
25 -3 4 0 12 8 17 12 9 12 10 -2 5 -25 -8 -22 9 5 27 20 15 11 16 -140 16
l-161 -1 1 -34z m223 -33 c15 12 44 1 44 -17 0 -16 -17 -19 -22 -3 -2 6 -14 5
-33 -5 -33 -18 -65 -21 -65 -7 0 5 6 12 13 14 7 3 5 6 -5 6 -10 1 -18 5 -18
10 0 5 16 5 37 1 22 -6 42 -5 49 1z m-169 -187 c-3 -3 -12 -4 -19 -1 -8 3 -5
6 6 6 11 1 17 -2 13 -5z"/>
<path d="M5621 5393 l-83 -4 6 -27 c10 -41 14 -152 5 -157 -4 -3 -5 -13 -2
-24 3 -13 11 -17 24 -14 10 3 19 0 19 -6 0 -6 -8 -11 -17 -11 -13 0 -19 -9
-20 -30 -1 -17 3 -30 9 -30 7 0 7 -5 -1 -14 -13 -15 -11 -52 3 -75 5 -7 5 -16
0 -20 -13 -9 -10 -147 3 -144 7 2 8 -10 3 -32 -5 -23 -4 -36 4 -39 7 -3 6 -5
-3 -5 -11 -1 -11 -4 0 -18 12 -14 12 -16 -1 -11 -11 4 -15 -2 -15 -21 0 -24 3
-26 27 -23 42 6 78 -6 72 -23 -4 -9 0 -15 10 -15 12 0 16 -10 16 -40 0 -38 12
-52 25 -30 3 6 1 10 -6 10 -8 0 -8 4 -2 13 6 6 13 27 16 45 5 25 4 31 -6 26
-8 -5 -7 -2 2 9 12 15 11 17 -3 17 -9 0 -16 5 -16 11 0 6 7 9 15 5 8 -3 15 -1
15 3 0 5 -7 12 -16 15 -15 6 -14 9 5 30 15 15 19 26 12 31 -6 3 -11 1 -11 -4
0 -6 -5 -11 -11 -11 -8 0 -7 5 2 16 13 16 17 112 5 159 -4 14 -2 25 4 25 7 0
9 48 8 135 -1 74 -6 135 -11 135 -4 0 -6 4 -3 9 7 10 18 78 18 104 -1 9 4 17
9 17 6 0 7 5 4 10 -3 6 -12 9 -18 8 -7 -1 -50 -4 -96 -5z m44 -93 c-3 -5 -10
-10 -16 -10 -5 0 -9 5 -9 10 0 6 7 10 16 10 8 0 12 -4 9 -10z m-22 -37 c-7 -2
-19 -2 -25 0 -7 3 -2 5 12 5 14 0 19 -2 13 -5z m27 -134 c0 -18 -2 -20 -15 -9
-13 11 -13 15 -3 21 18 12 18 12 18 -12z m17 -45 c-3 -3 -12 -4 -19 -1 -8 3
-5 6 6 6 11 1 17 -2 13 -5z m-30 -80 c-3 -3 -12 -4 -19 -1 -8 3 -5 6 6 6 11 1
17 -2 13 -5z m-11 -32 c16 -10 15 -62 -1 -62 -8 0 -11 8 -8 20 3 11 0 27 -7
35 -13 16 -3 20 16 7z m14 -102 c-8 -5 -22 -10 -30 -10 -13 0 -13 1 0 10 8 5
22 10 30 10 13 0 13 -1 0 -10z m0 -30 c0 -5 -4 -10 -10 -10 -5 0 -10 5 -10 10
0 6 5 10 10 10 6 0 10 -4 10 -10z m10 -70 c0 -5 -4 -10 -10 -10 -5 0 -10 5
-10 10 0 6 5 10 10 10 6 0 10 -4 10 -10z m0 -40 c0 -5 -4 -10 -10 -10 -5 0
-10 5 -10 10 0 6 5 10 10 10 6 0 10 -4 10 -10z"/>
<path d="M1787 5254 c-9 -9 2 -24 17 -24 7 0 13 7 13 15 0 15 -18 20 -30 9z"/>
<path d="M1744 5205 c25 -19 36 -19 36 0 0 10 -10 15 -27 15 -27 -1 -27 -1 -9
-15z"/>
<path d="M1794 5195 c3 -10 -1 -15 -13 -15 -28 0 -32 -11 -9 -30 16 -13 19
-23 14 -43 -4 -16 -14 -27 -24 -28 -12 0 -13 -2 -4 -6 21 -8 66 18 50 29 -9 5
-7 8 7 9 l20 0 -20 9 c-19 8 -19 9 3 9 15 1 22 7 22 21 0 17 -3 19 -19 10 -13
-7 -22 -7 -26 0 -3 5 1 10 9 10 9 0 16 5 16 11 0 5 6 7 13 3 8 -5 8 -2 -2 9
-17 21 -45 23 -37 2z"/>
<path d="M2008 5193 c7 -3 16 -2 19 1 4 3 -2 6 -13 5 -11 0 -14 -3 -6 -6z"/>
<path d="M1640 5168 c0 -6 3 -8 7 -5 3 4 11 0 17 -8 12 -15 66 -10 66 6 0 5
-11 7 -24 3 -13 -3 -27 -1 -30 5 -9 15 -36 14 -36 -1z"/>
<path d="M1660 5108 c-9 -20 -9 -21 2 -7 7 9 20 18 28 22 12 4 12 6 -2 6 -10
1 -22 -9 -28 -21z"/>
<path d="M1695 5100 c-3 -5 1 -10 9 -10 10 0 13 -6 10 -15 -4 -8 -2 -15 4 -15
17 0 21 38 5 44 -19 8 -21 8 -28 -4z"/>
<path d="M1540 5085 c0 -2 12 -11 28 -19 15 -8 21 -15 14 -16 -7 0 -10 -4 -7
-10 3 -5 2 -10 -2 -10 -5 0 -9 -9 -10 -19 -1 -16 4 -19 25 -16 15 1 29 3 31 4
2 0 -4 11 -15 22 -13 15 -15 23 -7 26 20 7 -8 43 -34 43 -13 0 -23 -2 -23 -5z
m60 -69 c0 -2 -7 -7 -16 -10 -8 -3 -12 -2 -9 4 6 10 25 14 25 6z"/>
<path d="M1663 5066 c-49 -18 -48 -23 9 -23 29 -1 45 1 35 4 -11 3 -16 11 -13
19 3 8 4 13 3 13 -1 -1 -16 -7 -34 -13z"/>
<path d="M1792 5061 c-7 -4 -15 -20 -16 -35 -3 -24 -1 -27 20 -23 17 3 21 1
15 -7 -5 -6 -7 -26 -5 -45 3 -22 -2 -41 -11 -51 -13 -15 -14 -18 -2 -23 8 -3
20 -1 28 4 12 8 12 10 -1 18 -12 8 -11 11 8 18 22 9 22 9 4 28 -17 18 -17 22
-5 42 12 18 12 26 2 45 -7 13 -11 25 -10 28 5 9 -14 10 -27 1z"/>
<path d="M1355 5050 c3 -5 8 -10 11 -10 2 0 4 5 4 10 0 6 -5 10 -11 10 -5 0
-7 -4 -4 -10z"/>
<path d="M1723 5023 c9 -2 23 -2 30 0 6 3 -1 5 -18 5 -16 0 -22 -2 -12 -5z"/>
<path d="M1650 5001 c0 -10 34 -21 65 -21 16 0 17 2 5 9 -8 6 -17 8 -21 5 -4
-2 -10 0 -14 6 -8 12 -35 13 -35 1z"/>
<path d="M1775 4980 c-3 -5 -1 -10 4 -10 6 0 11 5 11 10 0 6 -2 10 -4 10 -3 0
-8 -4 -11 -10z"/>
<path d="M1580 4959 c0 -5 -4 -8 -9 -5 -5 4 -7 -3 -4 -14 3 -11 9 -17 14 -14
20 12 27 -8 9 -26 -24 -24 -26 -40 -6 -40 8 0 18 5 21 10 3 6 1 10 -6 10 -8 0
-6 7 5 19 10 11 24 17 32 14 8 -3 14 -1 14 5 0 5 -8 13 -17 16 -15 6 -15 8 -3
17 12 8 10 10 -7 6 -13 -3 -23 -1 -23 4 0 5 -4 9 -10 9 -5 0 -10 -5 -10 -11z"/>
<path d="M1690 4956 c6 -6 4 -16 -6 -27 -10 -11 -12 -19 -5 -24 21 -13 10 -34
-24 -46 -19 -7 -35 -17 -35 -21 0 -12 8 -10 34 8 16 10 26 12 31 5 3 -6 11
-11 16 -11 6 0 7 5 4 10 -3 6 1 10 9 10 9 0 16 4 16 10 0 5 -6 7 -12 5 -9 -4
-13 6 -13 32 0 20 6 38 13 40 22 8 13 23 -13 21 -16 -2 -21 -6 -15 -12z"/>
<path d="M1721 4914 c0 -11 3 -14 6 -6 3 7 2 16 -1 19 -3 4 -6 -2 -5 -13z"/>
<path d="M1775 4850 c3 -6 -1 -13 -9 -16 -18 -7 -16 -46 2 -52 7 -2 12 1 12 8
0 6 5 8 10 5 6 -3 10 -1 10 4 0 6 -5 11 -11 11 -7 0 -9 10 -5 25 4 15 2 25 -4
25 -6 0 -8 -5 -5 -10z"/>
<path d="M1812 4838 c2 -12 10 -24 18 -26 13 -5 13 -3 1 12 -13 15 -13 19 0
27 11 7 11 9 -4 9 -13 0 -17 -6 -15 -22z"/>
<path d="M1573 4834 c-9 -24 10 -49 38 -49 26 0 34 25 10 33 -10 3 -12 0 -8
-12 4 -9 2 -16 -3 -16 -15 0 -22 20 -11 34 11 13 5 26 -11 26 -5 0 -11 -7 -15
-16z"/>
<path d="M1650 4820 c0 -5 7 -7 15 -4 8 4 15 1 15 -5 0 -6 -4 -11 -10 -11 -5
0 -10 -7 -10 -15 0 -8 7 -15 16 -15 8 0 12 5 8 11 -3 6 -1 15 6 19 7 4 9 13 6
19 -9 14 -46 15 -46 1z"/>
<path d="M1818 4792 c-1 -4 -16 -17 -32 -30 -34 -26 -22 -30 14 -5 42 29 54
43 37 43 -9 0 -17 -3 -19 -8z"/>
<path d="M1581 4748 c17 -14 18 -18 5 -18 -32 0 -15 -19 22 -25 20 -3 44 -7
52 -9 9 -2 21 3 27 9 9 10 4 12 -28 8 -27 -4 -39 -2 -39 7 0 7 7 10 16 6 8 -3
12 -2 9 4 -3 6 -13 10 -21 10 -20 0 -18 18 4 23 9 2 -2 3 -26 3 -42 -1 -42 -1
-21 -18z"/>
<path d="M1725 4750 c-3 -5 -1 -10 4 -10 6 0 11 5 11 10 0 6 -2 10 -4 10 -3 0
-8 -4 -11 -10z"/>
<path d="M1800 4740 c-18 -12 -2 -12 25 0 13 6 15 9 5 9 -8 0 -22 -4 -30 -9z"/>
<path d="M1766 4722 c-4 -7 -2 -12 6 -12 10 0 9 -3 -2 -10 -11 -7 -9 -11 14
-20 16 -6 34 -9 40 -6 6 3 0 8 -12 12 -18 5 -20 9 -10 15 10 7 9 9 -4 9 -9 0
-18 5 -20 12 -3 9 -6 9 -12 0z"/>
<path d="M1570 4690 c0 -8 24 -20 41 -20 6 0 8 4 5 9 -8 12 -46 21 -46 11z"/>
<path d="M5575 4665 c-2 -5 -6 -27 -10 -48 -5 -33 -3 -38 17 -47 14 -5 17 -9
7 -9 -11 -1 -16 -11 -16 -30 0 -17 5 -29 10 -28 5 1 12 -4 15 -12 3 -10 -1
-13 -17 -8 -11 3 -24 1 -27 -4 -3 -5 2 -9 12 -9 13 0 14 -3 4 -15 -10 -12 -9
-15 4 -15 13 0 15 -4 7 -18 -6 -11 -6 -24 1 -36 16 -29 18 -68 2 -62 -8 3 -14
1 -14 -4 0 -6 7 -10 15 -10 8 0 15 -4 15 -10 0 -14 13 -12 36 6 19 15 18 15
-3 11 -18 -4 -22 -1 -20 16 1 12 12 31 25 43 12 12 22 27 22 33 0 7 7 19 15
28 17 17 16 34 -3 41 -7 2 -12 -6 -12 -17 0 -12 -4 -21 -10 -21 -15 0 -12 29
5 46 24 25 18 36 -15 29 -29 -6 -43 8 -17 18 9 4 8 8 -3 16 -12 8 -12 11 -1
11 7 0 11 6 8 14 -4 9 1 17 11 19 9 3 2 3 -16 1 -42 -4 -33 12 13 20 19 4 35
11 35 17 0 5 -11 7 -24 3 -19 -4 -24 -2 -23 13 1 10 7 21 12 26 6 4 -5 6 -24
5 -18 -1 -35 -7 -36 -13z"/>
<path d="M1594 4651 c4 -5 0 -11 -6 -14 -16 -5 -10 -12 17 -21 16 -5 20 -1 20
19 0 17 -5 25 -18 25 -10 0 -16 -4 -13 -9z"/>
<path d="M1763 4653 c9 -3 17 -8 17 -13 0 -5 -8 -14 -17 -19 -15 -9 -16 -12
-3 -20 18 -12 31 -5 24 14 -4 9 3 16 21 21 34 8 23 18 -23 20 -20 1 -29 -1
-19 -3z"/>
<path d="M1674 4630 c0 -11 6 -20 13 -20 7 0 13 9 13 20 0 11 -6 20 -13 20 -7
0 -13 -9 -13 -20z"/>
<path d="M1585 4591 c-6 -11 33 -26 43 -16 4 3 0 10 -8 15 -19 12 -27 12 -35
1z"/>
<path d="M1795 4570 c11 -5 27 -9 35 -9 9 0 8 4 -5 9 -11 5 -27 9 -35 9 -9 0
-8 -4 5 -9z"/>
<path d="M1585 4550 c3 -5 1 -10 -5 -10 -6 0 -8 -5 -4 -11 5 -8 9 -8 14 1 5 8
10 9 14 2 4 -6 13 -9 22 -5 11 4 8 9 -12 19 -31 17 -37 17 -29 4z"/>
<path d="M1752 4548 c2 -6 11 -13 19 -16 12 -3 12 -2 0 6 -11 8 -10 11 5 15
16 4 15 5 -4 6 -14 1 -22 -4 -20 -11z"/>
<path d="M5667 4553 c-4 -6 -1 -17 6 -25 8 -7 12 -18 10 -24 -5 -15 24 -26 32
-13 9 14 -5 49 -20 49 -7 0 -15 5 -17 12 -3 9 -6 9 -11 1z"/>
<path d="M1805 4530 c3 -5 10 -10 16 -10 5 0 9 5 9 10 0 6 -7 10 -16 10 -8 0
-12 -4 -9 -10z"/>
<path d="M1688 4522 c-10 -2 -18 -8 -18 -13 0 -11 11 -11 30 1 18 11 11 18
-12 12z"/>
<path d="M1625 4500 c3 -5 -2 -10 -12 -11 -14 0 -12 -3 6 -10 13 -5 26 -7 29
-4 3 3 0 5 -6 5 -6 0 -9 7 -6 15 4 8 1 15 -6 15 -6 0 -8 -4 -5 -10z"/>
<path d="M1755 4490 c-4 -6 3 -10 14 -10 25 0 27 6 6 13 -8 4 -17 2 -20 -3z"/>
<path d="M1680 4481 c-24 -7 -24 -7 -3 -13 14 -4 24 -1 27 8 3 8 4 14 3 13 -1
-1 -13 -4 -27 -8z"/>
<path d="M1578 4463 c7 -3 16 -2 19 1 4 3 -2 6 -13 5 -11 0 -14 -3 -6 -6z"/>
<path d="M1650 4449 c0 -5 5 -7 10 -4 6 3 10 8 10 11 0 2 -4 4 -10 4 -5 0 -10
-5 -10 -11z"/>
<path d="M1580 4440 c0 -5 7 -10 16 -10 8 0 12 5 9 10 -3 6 -10 10 -16 10 -5
0 -9 -4 -9 -10z"/>
<path d="M1735 4420 c-3 -5 -1 -10 4 -10 6 0 11 5 11 10 0 6 -2 10 -4 10 -3 0
-8 -4 -11 -10z"/>
<path d="M1673 4409 c11 -7 23 -7 28 -2 5 5 -3 9 -19 11 -24 1 -25 0 -9 -9z"/>
<path d="M5688 4414 c-5 -4 -8 -19 -8 -33 0 -18 3 -22 11 -14 6 6 9 21 7 33
-1 12 -6 18 -10 14z"/>
<path d="M1614 4391 c20 -22 26 -25 26 -13 0 4 -10 13 -22 21 -23 14 -23 14
-4 -8z"/>
<path d="M1750 4390 c0 -13 11 -13 30 0 12 8 11 10 -7 10 -13 0 -23 -4 -23
-10z"/>
<path d="M1572 4363 c-10 -4 -9 -8 5 -19 23 -17 30 -17 36 0 4 11 1 13 -10 9
-11 -4 -14 -2 -9 5 7 12 0 14 -22 5z"/>
<path d="M5673 4331 c1 -12 7 -21 15 -21 16 0 12 32 -5 37 -7 3 -11 -4 -10
-16z"/>
<path d="M1690 4328 c0 -6 3 -9 6 -5 3 3 17 2 30 -3 14 -6 26 -6 29 0 4 6 3
11 -2 11 -48 7 -63 6 -63 -3z"/>
<path d="M1570 4319 c0 -5 4 -8 9 -5 5 4 11 0 14 -6 2 -7 8 -9 13 -5 5 4 2 12
-6 17 -20 13 -30 12 -30 -1z"/>
<path d="M5681 4273 c-1 -19 -8 -36 -18 -42 -17 -10 -17 -10 -1 -11 19 0 33
37 25 67 -3 10 -5 4 -6 -14z"/>
<path d="M1810 4286 c0 -2 8 -10 18 -17 15 -13 16 -12 3 4 -13 16 -21 21 -21
13z"/>
<path d="M5620 4261 c0 -17 5 -33 10 -36 6 -4 10 8 10 29 0 20 -4 36 -10 36
-5 0 -10 -13 -10 -29z"/>
<path d="M1668 4253 c7 -3 16 -2 19 1 4 3 -2 6 -13 5 -11 0 -14 -3 -6 -6z"/>
<path d="M1585 4240 c3 -5 8 -10 11 -10 2 0 4 5 4 10 0 6 -5 10 -11 10 -5 0
-7 -4 -4 -10z"/>
<path d="M1785 4240 c3 -5 8 -10 11 -10 2 0 4 5 4 10 0 6 -5 10 -11 10 -5 0
-7 -4 -4 -10z"/>
<path d="M5590 4216 c-14 -38 -6 -46 46 -44 38 3 42 5 27 15 -10 7 -28 22 -40
34 l-22 23 -11 -28z"/>
<path d="M1600 4210 c0 -5 7 -10 16 -10 8 0 12 5 9 10 -3 6 -10 10 -16 10 -5
0 -9 -4 -9 -10z"/>
<path d="M5685 4210 c-3 -5 1 -10 9 -10 9 0 16 5 16 10 0 6 -4 10 -9 10 -6 0
-13 -4 -16 -10z"/>
<path d="M1805 4200 c3 -5 8 -10 11 -10 2 0 4 5 4 10 0 6 -5 10 -11 10 -5 0
-7 -4 -4 -10z"/>
<path d="M1596 4164 c-8 -22 1 -31 16 -16 9 9 9 15 1 23 -7 7 -12 5 -17 -7z"/>
<path d="M1626 4131 c-4 -6 -13 -8 -21 -4 -8 3 -15 0 -15 -6 0 -6 6 -11 13
-11 18 0 43 18 35 25 -3 4 -9 2 -12 -4z"/>
<path d="M5580 4112 c-22 -8 -8 -18 23 -18 17 0 43 -3 57 -8 23 -7 24 -6 7 8
-18 14 -18 15 5 18 13 3 -1 4 -29 4 -29 -1 -57 -2 -63 -4z"/>
<path d="M1621 4050 c11 -31 23 -38 34 -20 3 6 -2 10 -12 10 -14 0 -15 2 -4 9
11 7 10 11 -7 20 -20 11 -21 10 -11 -19z"/>
<path d="M1818 4063 c7 -3 16 -2 19 1 4 3 -2 6 -13 5 -11 0 -14 -3 -6 -6z"/>
<path d="M5602 4035 c2 -3 18 -6 34 -8 17 -2 35 -6 40 -10 6 -3 11 0 11 8 0
11 -13 15 -45 15 -25 0 -43 -2 -40 -5z"/>
<path d="M1814 4010 c0 -11 5 -21 12 -24 7 -3 9 5 6 20 -5 29 -18 32 -18 4z"/>
<path d="M1628 3993 c7 -3 16 -2 19 1 4 3 -2 6 -13 5 -11 0 -14 -3 -6 -6z"/>
<path d="M1708 3993 c7 -3 16 -2 19 1 4 3 -2 6 -13 5 -11 0 -14 -3 -6 -6z"/>
<path d="M5580 3990 c0 -5 11 -10 24 -10 13 0 33 -3 43 -7 16 -6 16 -5 4 10
-14 18 -71 24 -71 7z"/>
<path d="M1578 3953 c7 -3 16 -2 19 1 4 3 -2 6 -13 5 -11 0 -14 -3 -6 -6z"/>
<path d="M1615 3940 c-3 -5 1 -10 9 -10 9 0 16 5 16 10 0 6 -4 10 -9 10 -6 0
-13 -4 -16 -10z"/>
<path d="M5580 3940 c0 -5 7 -10 15 -10 8 0 15 5 15 10 0 6 -7 10 -15 10 -8 0
-15 -4 -15 -10z"/>
<path d="M5650 3946 c0 -2 7 -6 15 -10 8 -3 15 -1 15 4 0 6 -7 10 -15 10 -8 0
-15 -2 -15 -4z"/>
<path d="M1685 3920 c3 -5 8 -10 11 -10 2 0 4 5 4 10 0 6 -5 10 -11 10 -5 0
-7 -4 -4 -10z"/>
<path d="M5668 3913 c-16 -2 -28 -9 -28 -15 0 -12 49 -2 65 13 6 6 6 8 0 8 -6
-1 -22 -4 -37 -6z"/>
<path d="M5605 3901 c-3 -5 -1 -12 5 -16 5 -3 10 1 10 9 0 18 -6 21 -15 7z"/>
<path d="M5575 3890 c3 -5 8 -10 11 -10 2 0 4 5 4 10 0 6 -5 10 -11 10 -5 0
-7 -4 -4 -10z"/>
<path d="M5596 3841 c-4 -7 -5 -15 -2 -18 9 -9 19 4 14 18 -4 11 -6 11 -12 0z"/>
<path d="M5675 3810 c-3 -5 -1 -10 4 -10 6 0 11 5 11 10 0 6 -2 10 -4 10 -3 0
-8 -4 -11 -10z"/>
<path d="M5665 3750 c4 -6 11 -8 16 -5 14 9 11 15 -7 15 -8 0 -12 -5 -9 -10z"/>
<path d="M1655 3740 c4 -6 11 -8 16 -5 14 9 11 15 -7 15 -8 0 -12 -5 -9 -10z"/>
<path d="M1688 3713 c6 -2 18 -2 25 0 6 3 1 5 -13 5 -14 0 -19 -2 -12 -5z"/>
<path d="M1620 3699 c0 -5 9 -9 20 -9 11 0 20 2 20 4 0 2 -9 6 -20 9 -11 3
-20 1 -20 -4z"/>
<path d="M5613 3693 c-13 -2 -23 -9 -23 -14 0 -13 13 -11 36 6 10 8 17 14 14
13 -3 0 -15 -3 -27 -5z"/>
<path d="M5585 3650 c3 -5 13 -10 21 -10 8 0 12 5 9 10 -3 6 -13 10 -21 10 -8
0 -12 -4 -9 -10z"/>
<path d="M5592 3604 c-7 -8 -8 -14 -3 -14 10 0 25 19 20 25 -2 1 -10 -3 -17
-11z"/>
<path d="M1636 3375 c4 -8 11 -15 16 -15 6 0 5 6 -2 15 -7 8 -14 15 -16 15 -2
0 -1 -7 2 -15z"/>
<path d="M5615 3340 c-3 -5 1 -10 10 -10 9 0 13 5 10 10 -3 6 -8 10 -10 10 -2
0 -7 -4 -10 -10z"/>
<path d="M5603 3283 c9 -2 23 -2 30 0 6 3 -1 5 -18 5 -16 0 -22 -2 -12 -5z"/>
<path d="M1660 3270 c0 -5 5 -10 10 -10 6 0 10 5 10 10 0 6 -4 10 -10 10 -5 0
-10 -4 -10 -10z"/>
<path d="M1660 3190 c0 -5 5 -10 11 -10 5 0 7 5 4 10 -3 6 -8 10 -11 10 -2 0
-4 -4 -4 -10z"/>
<path d="M5667 3067 c-12 -19 -16 -20 -31 -8 -9 7 -16 10 -16 6 0 -4 -7 -2
-15 5 -11 10 -18 9 -30 -3 -12 -13 -21 -45 -12 -48 1 0 25 -3 52 -6 70 -7 71
-15 2 -12 -31 1 -60 -1 -64 -4 -3 -4 0 -7 9 -7 8 0 23 -9 34 -21 29 -32 52
-41 72 -30 17 11 16 12 -25 15 -7 1 -13 6 -13 11 1 14 51 16 67 3 9 -8 13 -7
13 2 0 7 8 19 18 26 16 12 15 13 -8 14 -14 1 -19 4 -12 7 19 7 14 47 -7 60
-16 10 -21 9 -34 -10z"/>
<path d="M1718 3063 c6 -2 18 -2 25 0 6 3 1 5 -13 5 -14 0 -19 -2 -12 -5z"/>
<path d="M5477 3019 c7 -7 15 -10 18 -7 3 3 -2 9 -12 12 -14 6 -15 5 -6 -5z"/>
<path d="M1750 2830 c0 -5 5 -10 10 -10 6 0 10 5 10 10 0 6 -4 10 -10 10 -5 0
-10 -4 -10 -10z"/>
<path d="M1218 1773 c7 -3 16 -2 19 1 4 3 -2 6 -13 5 -11 0 -14 -3 -6 -6z"/>
<path d="M1780 1758 c-6 -13 -22 -28 -35 -34 -20 -10 -27 -8 -44 8 -12 10 -21
14 -21 8 0 -5 -7 -10 -15 -10 -8 0 -12 6 -9 14 3 9 -6 15 -27 20 -18 3 -34 4
-37 1 -3 -3 2 -5 11 -5 9 0 19 -5 23 -12 4 -6 3 -8 -4 -5 -5 4 -21 3 -34 -2
-21 -9 -21 -10 -3 -11 11 -1 14 -4 8 -7 -7 -2 -13 -13 -13 -23 0 -21 42 -30
145 -30 85 0 118 8 111 26 -3 7 0 16 6 20 20 12 -20 26 -42 14 -24 -13 -27 2
-5 24 9 9 11 17 5 21 -5 3 -15 -4 -20 -17z"/>
<path d="M1830 1760 c-9 -6 -10 -10 -3 -10 6 0 15 5 18 10 8 12 4 12 -15 0z"/>
</g>
</svg>
