<?xml version="1.0" encoding="utf-8"?>
<!-- Generator: Adobe Illustrator 21.0.0, SVG Export Plug-In . SVG Version: 6.00 Build 0)  -->
<svg version="1.1" id="Layer_1" xmlns="http://www.w3.org/2000/svg" xmlns:xlink="http://www.w3.org/1999/xlink" x="0px" y="0px"
	 viewBox="0 0 431.7 515.1" style="enable-background:new 0 0 431.7 515.1;" xml:space="preserve">
<style type="text/css">
	.st0{fill:#1A1A18;}
</style>
<g>
	<path class="st0" d="M430.9,206c-5.6-0.1-10.1-3.8-11-8.5c-57.7,21.6-129.9,32.5-148,34.6l-0.2-18.3c0-1.1-0.4-2.1-1-2.9
		l-14.9-18.7c0.2-4.1,0.5-8.1,1-11.1c1.4-8.9,10.2-52.1,14.2-68.2c13.8-7.3,21.8-16.6,20.8-26L290.5,69c1.4-11.4,0-23.7-2.1-30.4
		l-0.2-2.7l0-0.1c-1-9.1-9.9-16.6-25.2-21.1c-8.1-2.4-17.5-3.8-27.7-4.2C228.9,5.6,220,3.1,210.6,4c-9.5,1-17.6,5.2-22.4,11.1
		c-10.7,2.6-20.4,6.1-28.4,10.4c-14,7.5-21.2,16.7-20.3,25.8l0.8,11.9c0,0,0,0.1,0,0.1c-1.4,4.7-1.8,26.1,1.5,32.3
		c0.1,0.3,0.4,1,0.9,1.9l0.3,4.9l0,0.1c0.7,7,6.3,12.9,15.2,17.2c1.6,23.4,11,30.1,13.4,53.5c1.2,11.9,2,19.3,2.4,25l-11.2,1.2
		c-2.4,0.3-4.3,2.4-4.3,4.8l0.8,40.5C131.8,250.1,23,267.9,0.8,271.1c7.7,0.2,13.8,5.1,13.8,11c0,0.7-0.1,1.3-0.2,1.9
		c33.9-5.3,115.2-18.6,146.3-24.3l9.7,24.4c0.7,1.8,2.5,3,4.4,3c0.2,0,0.5,0,0.7-0.1h0l12.2-1.8c0.1,73.6,6.8,130.3,10.8,157.7
		c2.9,19.8,6.1,36.6,9.4,48.6c4.7,17.2,7.9,19.6,10.7,19.6c2.7,0,5.7-1.7,9.9-21.8c2.7-13,5.4-31.3,7.8-53
		c5.3-48.1,8.4-106,8.5-159.4l23.5-3.4c2.4-0.3,4.1-2.4,4.1-4.8l-0.3-23.9C291.7,242.6,371.9,230.5,430.9,206z M244.3,171.1
		c-1.5,7.6-2.5,14.6-3.2,20.1l-15.9,1.7l0-32.4c4.4-1.6,7.8-3.9,9.8-6.5l1.3-2.4l10-29.3c2.9-0.8,5.6-1.6,8.3-2.5
		C251.5,131,247,157.2,244.3,171.1z M202.6,127.9c5.9,0,12-0.3,18.2-1c7.7-0.8,15.1-2.1,21.9-3.7l-9.2,27.1l-1.1,2
		c-2.8,3.7-9.8,6.7-17.7,7.5c-1.2,0.1-2.4,0.2-3.5,0.2c0,0-0.1,0-0.1,0c-2.4,0-4.7-0.1-6.9-0.5l-0.9-0.2c-5.2-1.1-8.6-3.3-9.3-5.8
		c-0.1-0.2-3.3-9.2-9.5-26.8C190.2,127.6,196.2,127.9,202.6,127.9z M205.5,162.8c0.1,0,0.1,0,0.2,0c0.8,0.1,1.6,0.2,2.5,0.2
		c0,0,0.1,0,0.1,0c0.7,0,1.4,0.1,2.1,0.1c0.2,0,0.4,0,0.6,0c0,0,0.1,0,0.1,0c1.8,0,3.6,0,5.5-0.2c1.9-0.2,3.8-0.5,5.6-1l0,45.7
		c-0.1,1-2.8,3-8.1,3.6c-5.3,0.6-8.4-0.9-8.6-1.6L205.5,162.8z M186.7,24.9c2-9.4,11.8-16.6,24.3-17.9c1.2-0.1,2.5-0.2,3.7-0.2
		c12.5,0,23.4,6.7,26.3,16.6c1.1,3.7,1.4,7.2,1.6,9.1l0.1,0.5c0.3,3.1-2.2,6.6-7,9.5c-5.2,3.2-12.4,5.3-20.2,6.2
		c-15.5,1.6-29.2-2.8-29.9-9.7C185.3,38.1,184.9,33.1,186.7,24.9z M145.5,50.9l0-0.1c-0.7-6.4,5.6-13.7,17.2-19.9
		c6.2-3.3,13.5-6.2,21.6-8.5c-0.2,0.6-0.4,1.3-0.5,1.9c-1.8,8.6-1.4,14.1-1.3,15.1c0.8,7.6,11.9,12.7,26.3,12.7
		c2.2,0,4.5-0.1,6.8-0.4c8.2-0.9,15.9-3.2,21.4-6.6c5.9-3.6,8.9-8,8.5-12.4l-0.1-0.5c-0.2-1.8-0.6-5.7-1.7-9.6
		c-0.6-2-1.5-3.9-2.6-5.7c7.3,0.6,14.1,1.8,20.1,3.6c12.6,3.7,20.2,9.5,20.9,15.9l0.4,6c-5.8,13.1-33.1,25.6-65.8,29
		c-33.4,3.5-63.2-3.4-70.9-15.4L145.5,50.9z M149.4,103.4c0.9,0.4,1.8,0.7,2.9,0.9c0.2,0.1,0.5,0.1,0.7,0.1c0.7,0,1.4-0.3,2-0.8
		c2-1.8,1.7-6.3,1-13.4c-0.2-1.8-0.4-3.4-0.4-4.4c0-4.8,0.8-7.9,1.4-10.1c0.7-2.7,1.4-5.5-2.4-7.2c-2.1-1-5.9-3.7-8-5.6
		c0,0-0.1-0.1-0.1-0.1l-0.1-1.7c9,8.8,28.5,14.1,52.5,14.1c5.9,0,12-0.3,18.3-1c31.4-3.3,56.7-14,65.9-26.7l2.8,39.7l0,0.1
		c1.3,12.7-24.7,29.2-65.6,33.5C180.9,125.1,152.8,115.4,149.4,103.4z M180.4,165.1c-3.4-12.7-8.7-24.7-9.8-40.9
		c3.3,0.9,6.8,1.6,10.6,2.2c3.8,10.6,9.8,27.5,10,28.1c1,3.7,5.3,6.5,11.3,7.8l0,33l-18.1,1.9C183.8,185.2,182.4,172.6,180.4,165.1z
		 M174.4,205.1c-0.7,1.9-1.5,2.9-3.1,4.7c-1.5,1.7,0.9,4.7,2.2,6.5c3,4.1,5.8,3,6.9,2.7c1.4-0.4,3.8-0.8,4.1-4.6l0,0
		c0-0.1,0-0.2,0-0.3c0-0.1,0-0.2,0-0.3c0-0.1,0-0.2,0-0.3c0-2.1,0.1-0.4,0.1-4.9c0-1.8,0-3.6-0.1-5.5l17.9-1.9l0,8.3l0,0.2
		c0.3,3.1,4.6,4.5,9.3,4.5c0.9,0,1.7,0,2.6-0.1c6.5-0.7,10.8-3.3,10.8-6.6l0-8.6l15.4-1.6c-0.2,2.7-0.1,4.5,0.1,5.2
		c1.9,5.2,6.3,10.8,13.2,8.3c0.8-0.3,1.2-4.3,1.5-9.5l8.7,11l-89.6,9.6l-9.6-16.7l9.5-1C174.4,204.5,174.4,204.8,174.4,205.1z
		 M165.4,243.6L165.4,243.6l-0.6-32.5l7.3,12.9v29c-1.1-2.6-2.7-5.5-3-5.9c-0.7-0.8-2.1-2.6-3-3.3
		C165.9,243.6,165.7,243.6,165.4,243.6z M166.7,258.6c2.6-0.5,4.4-0.9,5.5-1.2v15L166.7,258.6z M202.9,438.5
		c-3.8-26.9-10.1-82.5-10.2-153.9l18.6-2.7l4.6,218.7C212.5,491.6,207.6,471.9,202.9,438.5z M218.3,505.6c-0.3-0.4-0.5-0.8-0.8-1.4
		l1.2,0C218.5,504.7,218.4,505.1,218.3,505.6z M226.1,279.8c-0.1,85.8-1.9,152.8-4.3,191.4c0.3-8.5,0.6-18.8,0.8-31.4
		c0.9-43.4,1.5-99.9,1.5-159.7L226.1,279.8z M219.7,497.7c-0.2,1.8-0.4,3.4-0.7,4.7l-4.6-220.9l8.9-1.3
		C223.2,388.3,221.5,469.5,219.7,497.7z M231.8,431.6c-2.8,26.4-5.7,44.9-8.2,57c3.6-39,5.5-125.1,5.6-209.2l10.6-1.5
		C239.6,329,236.7,384.8,231.8,431.6z M175.6,281l-0.4-1.1v-55.1l90.6-9.7l0.6,52.7L175.6,281z"/>
	<path class="st0" d="M157.1,59.8c1.7,0.9,2.8,1.3,3.8,1.3c1.3,0,2.1-0.7,3.5-1.7l0.9-0.7c2.1-1.6,3.6-2.7,3.5-3.7
		c0-0.2-0.1-0.6-0.6-0.9c-2.8-1.8-4.9-3.6-6.5-5.1c-1.8-1.6-3.1-2.7-4.2-2.7c0,0,0,0,0,0c-1.5,0-5.9,2.1-8.9,4
		c-0.3,0.2-0.5,0.5-0.5,0.9C148.2,53.3,153.8,58,157.1,59.8z"/>
	<path class="st0" d="M257.1,26c0.5,0.3,1.1,0.7,1.6,1.1c0.2,0.2,0.5,0.4,0.7,0.5c1.5,1.1,3,2.2,4.6,2.2c0.4,0,0.8-0.1,1.3-0.2
		c1.4-0.5,2.6-0.8,3.6-1.1c1.6-0.4,2.7-0.7,3-1.6c0-0.1,0.1-0.3-0.1-0.6c-0.9-1.5-8.1-4.4-9.1-4.6c-1.1-0.2-1.8-0.1-6.7,1.4
		c-0.4,0.1-1,0.4-1.1,0.9C254.9,24.7,255.8,25.2,257.1,26z"/>
</g>
</svg>
