<?xml version="1.0" encoding="utf-8"?>
<!-- Generator: Adobe Illustrator 21.0.0, SVG Export Plug-In . SVG Version: 6.00 Build 0)  -->
<svg version="1.1" id="Layer_1" xmlns="http://www.w3.org/2000/svg" xmlns:xlink="http://www.w3.org/1999/xlink" x="0px" y="0px"
	 viewBox="0 0 332.7 1417.3" style="enable-background:new 0 0 332.7 1417.3;" xml:space="preserve">
<path d="M305,1338.8c-7.4-2-17.1-3.9-29-5.4V40.3c0-33.9-91.6-35.7-109.9-35.7S56.2,6.4,56.2,40.3v1293.1c-11.9,1.6-21.6,3.4-29,5.4
	c-6.6,1.8-22.1,6.1-22.1,19v25.8c0,12.4,14.5,16.8,20,18.4c8.1,2.4,19.5,4.6,33.9,6.4c28.7,3.6,66.8,5.6,107.2,5.6
	c40.4,0,78.5-2,107.2-5.6c14.4-1.8,25.8-4,33.9-6.4c5.5-1.6,20-6,20-18.4v-25.8C327.2,1344.9,311.6,1340.6,305,1338.8z M166.1,19.1
	c59.2,0,95.5,12.4,95.5,21.3v380.1c-4.4-1.5-12.2-3-25.7-4.3c-18.7-1.8-43.5-2.8-69.9-2.8c-26.4,0-51.2,1-69.9,2.8
	c-13.5,1.3-21.3,2.8-25.7,4.3V40.3C70.6,31.5,106.9,19.1,166.1,19.1z M70.6,426.6c5.1-3.3,40-7.6,95.5-7.6s90.5,4.3,95.5,7.6v927.2
	c-4.3,3.8-39.2,9-95.5,9c-56.4,0-91.2-5.2-95.5-9V426.6z M64.8,1346.8v7.5c0,2.5,0,7.3,31.4,10.9c18.7,2.2,43.5,3.3,69.9,3.3
	c26.4,0,51.2-1.2,69.9-3.3c31.4-3.6,31.4-8.3,31.4-10.9v-7.5c42.3,5,45.3,10.9,45.4,10.9c-2.4,6.7-59.3,16.2-146.7,16.2
	c-87.4,0-144.4-9.4-146.7-16C19.4,1357.9,22,1351.8,64.8,1346.8z M166.1,1402.6c-82.6,0-149.6-8.5-149.6-18.9v-20.5
	c4.4,3.3,15.4,7.4,43.4,10.9c28.4,3.6,66.1,5.6,106.1,5.6c40.1,0,77.8-2,106.1-5.6c28-3.5,39.1-7.6,43.4-10.9v20.5
	C315.7,1394.1,248.7,1402.6,166.1,1402.6z"/>
</svg>
