<?xml version="1.0" encoding="utf-8"?>
<!-- Generator: Adobe Illustrator 21.0.0, SVG Export Plug-In . SVG Version: 6.00 Build 0)  -->
<svg version="1.1" id="Layer_1" xmlns="http://www.w3.org/2000/svg" xmlns:xlink="http://www.w3.org/1999/xlink" x="0px" y="0px"
	 viewBox="0 0 709.4 390.3" style="enable-background:new 0 0 709.4 390.3;" xml:space="preserve">
<g>
	<path d="M706.1,346.3c-33.6-9.9-62.5-26.2-88.2-49.7c-13.1-12-25.7-26.2-37.5-42.3c24.1-40.3,35.1-85.9,37.4-115.3
		c3.9-49.9-6.2-96.4-26.9-124.3l-0.2-0.2C578,1.3,557.5-3.3,537.1,2.5c-4.6,1.3-9,3.1-13,5.3c-2.8,1.6-5.5,3.3-7.9,5.3
		c-15.1,11.8-24.8,54.7-23.5,104.3c1.5,56.1,15.7,106.1,39.2,137.4c-4.6,7.1-9.4,13.8-14.4,19.9c-6.6,8.2-13.6,15.5-20.8,21.8
		l-0.1,0.1c-1.8,1.8-3.7,3.4-5.7,4.7c-0.1,0-0.1,0.1-0.2,0.1c-0.8,0.5-1.6,1-2.4,1.5c-31.6,17.6-69.6-31.8-78.8-44.7
		c22.8-41.1,33.2-88.3,35.3-119.1c3.4-49.9-5.5-96.3-24-124.2l-0.2-0.2c-11.4-13.3-29.8-17.9-48-12.1c-4.1,1.3-8.1,3.1-11.7,5.4
		c-2.5,1.6-4.9,3.4-7.1,5.3c-13.7,12-22.1,53.9-20.9,104.2c1.3,56.1,14,106.1,34.9,137.4c-4.1,7.1-8.4,13.9-12.9,20
		c-5.9,8.2-12.1,15.5-18.5,21.7l-0.1,0.1c-1.6,1.8-3.3,3.4-5,4.7c0,0-0.1,0.1-0.2,0.1c-0.7,0.5-1.4,1-2.1,1.4
		c-5.7,3.6-12,4.6-18.7,3c-22.4-5.2-44-36.7-51.1-47.8c4.4-8.5,8.4-17.6,11.8-27.1c11.5-25.3,19-57.9,21.2-91.8
		c3.2-49.9-5.2-96.3-22.4-124.2l-0.1-0.2c-10.7-13.3-28-18-45.2-12.1c-3.9,1.3-7.6,3.1-11,5.4c-2.4,1.6-4.6,3.4-6.6,5.3
		c-12.8,12-20.7,53.9-19.6,104.1c1.2,56.2,13.1,106.1,32.7,137.4c-3.9,7.2-7.9,13.9-12.1,20.1c-5.5,8.2-11.3,15.5-17.3,21.7
		l-0.4,0.5c-16.1,16.7-33.1,25.5-49.3,25.5c-14.8,0-29.8-14.8-52.4-37.1c-13.8-13.7-31-30.7-52.6-48.2l-0.6-0.5l-0.8,0.1
		c-10.4,0.7-21,3-31.5,7L0,245l2.6,2.3c13,11.5,24.7,22.6,35,32.4c11.8,11.2,22.1,20.9,32,29.3c20.5,17.4,36.5,26.3,53.4,29.9
		c20.4,4.2,42,1.8,62.5-7.1c20.5-8.9,39.4-24.1,55-44l1.4,1.3c6.5,6.4,12.2,11.8,17.3,16.4c14.5,12.9,26.2,19.8,49.4,21.5
		c30,2.2,57.1-10.9,80.5-38.8l1.1,0.9c7.3,6.4,13.7,11.9,19.5,16.5c16.3,12.9,29.3,19.8,55.3,21.5c33.9,2.2,64.5-11.1,90.9-39.7
		c18.2,22.6,38.1,42.7,59.2,59.6c20.9,16.8,43.4,31,67.1,42.2l2.2,1.1l0.7-2.4c4.4-14.7,11.7-27.5,21.9-38.2l2.4-2.5L706.1,346.3z
		 M699.3,352.2c-0.6,0.7-1.2,1.4-1.7,2.2c-0.3,0.4-0.5,0.7-0.8,1.1c-0.8,1.1-1.6,2.2-2.3,3.3c-0.1,0.1-0.2,0.3-0.3,0.4
		c-5.2,7.7-9.4,16.1-12.3,25.3c-22.6-10.9-44.1-24.6-64-40.6c-21.2-17-41.1-37.3-59.4-60.1c6.5-7.4,12.1-15,16.9-22.4
		c0.8-1.2,1.5-2.4,2.3-3.6c11.8,16,24.4,30.1,37.5,42.1c25.4,23.2,53.8,39.5,86.6,49.6c-0.3,0.3-0.5,0.6-0.8,0.9
		C700.3,350.9,699.8,351.5,699.3,352.2z M349.7,315c-0.1-0.4-0.5-0.8-0.9-0.8c-3.9-0.3-7.6-0.9-10.9-2c-0.6-0.2-1.2,0.1-1.3,0.7
		c-0.2,0.6,0.1,1.2,0.7,1.3c3,0.9,6.4,1.6,9.9,1.9c-12.1,5.4-24.8,7.6-38.1,6.6c-16.1-1.2-26.1-4.8-35.8-11.5
		c22.8,9.2,39.5,8.1,55.5-3.3c1-0.5,1.9-1,2.9-1.6c0.8-0.5,1.6-1.1,2.4-1.7l0.1-0.1c1.9-1.5,3.8-3.2,5.6-5.2
		c6.5-6.4,12.8-13.9,18.9-22.2c4.8-6.6,9.4-13.9,13.8-21.6l0.7-1.2l-0.1-0.1c1.9-3.3,3.7-6.8,5.5-10.3c1.3-2.5,2.5-5.1,3.8-7.7
		c0.1,0.3,0.4,0.5,0.7,0.6c0.7,0.3,1.6,0,1.9-0.7l1-2.3c0.7-1.5,1.2-2.8,1.7-3.9c0.5-1.2,1-2.4,1.6-3.7c0.3-0.7,0-1.5-0.8-1.8
		c-0.2-0.1-0.5-0.1-0.7-0.1c0.8-1.8,1.6-3.7,2.3-5.5l0.2-0.4L390,218c0-0.1-0.1-0.2-0.1-0.3c0.2-0.4,0.3-0.8,0.5-1.2
		c0.1,0.4,0.4,0.7,0.8,0.8c0.7,0.3,1.5-0.1,1.8-0.8c0.5-1.3,0.9-2.6,1.4-3.9c0.4-1.2,0.8-2.5,1.2-3.7c0.2-0.7-0.2-1.5-0.9-1.8
		c-0.2-0.1-0.4-0.1-0.6,0c1.6-4.2,3.1-8.5,4.5-12.9c4.8-17.4,7.8-36,9.2-55.3c3.1-44.8-3.8-86.8-18.9-115.4c0,0,0-0.1-0.1-0.1
		l0.1-0.1l-0.5-0.7c-0.7-0.9-1.5-1.9-2.3-2.9c-2.4-2.7-5.6-5.5-9-7.6c-1.9-1.2-4.8-2.8-8-3.7c1.6-0.7,3.3-1.4,5-1.9
		c16.6-5.3,33.2-1.2,43.4,10.7c17.9,27.2,26.6,72.6,23.2,121.5c-1.4,20.2-6.4,47.7-16.3,75.7c-0.2-0.3-0.5-0.5-0.8-0.6
		c-0.7-0.2-1.5,0.2-1.8,0.9c-0.3,1.1-0.7,2.3-1.1,3.5c-0.4,1.2-0.9,2.5-1.3,3.7c-0.3,0.7,0.1,1.5,0.8,1.8c0.2,0.1,0.5,0.1,0.7,0.1
		c-1.1,2.9-2.3,5.7-3.5,8.6c-0.1-0.1-0.3-0.3-0.5-0.3c-0.7-0.3-1.5,0-1.8,0.8c-0.6,1.4-1.2,2.8-1.9,4.4c-0.6,1.4-1.3,2.9-2,4.6
		c-0.3,0.7,0,1.6,0.7,1.9c0.1,0.1,0.2,0.1,0.4,0.1c-2.2,4.5-4.5,9-7,13.4l-0.7,1.2l0,0c-4.9,8.3-10,16.6-15.9,23.9l-0.1-0.1
		l-1.4,1.7C375.6,298.1,363,308.6,349.7,315z M193.2,321.5c-5.6-0.2-10-0.6-12.9-1.2c-0.6-0.1-1.1,0.3-1.2,0.8
		c-0.1,0.6,0.3,1.1,0.8,1.2c2.9,0.6,7.2,1,12.7,1.2c-2.9,1.5-5.8,3-8.7,4.2c-2.7,1.2-5.4,2.2-8.1,3.1c-0.2-0.2-0.4-0.3-0.6-0.3
		c-5.6-0.2-10-0.6-12.9-1.2c-0.6-0.1-1.1,0.3-1.2,0.8c-0.1,0.6,0.3,1.1,0.8,1.2c2.2,0.4,5.1,0.7,8.8,1c-15.6,4.5-31.5,5.3-46.8,2.1
		c-5.5-1.1-10.9-2.9-16.4-5.4c0.2,0.1,0.5,0.1,0.7,0.2c0.4,0.1,0.8,0.2,1.2,0.4c0.8,0.2,1.6,0.5,2.4,0.7c0.4,0.1,0.8,0.2,1.2,0.3
		c0.8,0.2,1.7,0.4,2.5,0.6c0.3,0.1,0.6,0.1,0.9,0.2c2.3,0.5,4.6,0.8,6.9,1.1c0.2,0,0.4,0,0.6,0.1c1,0.1,1.9,0.2,2.9,0.2
		c0.3,0,0.6,0,0.8,0c0.9,0,1.8,0.1,2.6,0.1c0.1,0,0.3,0,0.4,0c0.2,0,0.4,0,0.6,0c0.4,0,0.9,0,1.3,0c0.5,0,1.1,0,1.6-0.1
		c0.7,0,1.3-0.1,2-0.1c0.4,0,0.8-0.1,1.2-0.1c0.5,0,0.9-0.1,1.4-0.2c0.4,0,0.7-0.1,1.1-0.1c0.8-0.1,1.7-0.3,2.5-0.4
		c0.3-0.1,0.6-0.1,0.9-0.2c0.5-0.1,1-0.2,1.5-0.3c0.3-0.1,0.6-0.1,0.9-0.2c1.7-0.4,3.5-0.9,5.2-1.4c0.2-0.1,0.5-0.2,0.7-0.2
		c0.6-0.2,1.1-0.4,1.7-0.6c0,0,0,0,0,0c1.2-0.4,2.4-0.9,3.6-1.4c0.2-0.1,0.4-0.2,0.6-0.2c0.6-0.2,1.1-0.5,1.7-0.8
		c0.1-0.1,0.3-0.1,0.4-0.2c1.1-0.5,2.2-1.1,3.3-1.7c0.1-0.1,0.3-0.1,0.4-0.2c0.6-0.3,1.1-0.6,1.7-0.9c0.2-0.1,0.4-0.2,0.6-0.3
		c1.7-1,3.4-2.1,5.1-3.2c0.2-0.2,0.5-0.3,0.7-0.5c0.5-0.4,1-0.7,1.5-1.1c0,0,0.1-0.1,0.1-0.1c1-0.8,2.1-1.6,3.1-2.4
		c0.3-0.2,0.6-0.5,0.9-0.7c0.4-0.4,0.9-0.7,1.3-1.1c0.4-0.3,0.7-0.6,1.1-0.9c0.6-0.5,1.3-1.1,1.9-1.7c0.4-0.4,0.8-0.8,1.3-1.2
		c0.4-0.3,0.7-0.7,1.1-1c0.5-0.5,1-0.9,1.5-1.4c0.3-0.3,0.5-0.5,0.8-0.8c2.6-2.3,5.2-4.7,7.8-7.4l0.4-0.5c6.1-6.4,12-13.9,17.7-22.3
		c4.5-6.6,8.8-13.9,12.9-21.6l0.6-1.1l0-0.1c1.8-3.5,3.8-7.2,5.5-10.8c2.9-6.2,5.3-12.7,7.7-19.4c3.8-9.5,7.4-19.5,10.6-30
		c4.5-17.4,7.3-36,8.6-55.3c2.9-44.8-3.5-86.8-17.7-115.3c-0.1-0.2-0.3-0.5-0.4-0.7l0,0l-0.5-0.7c-3-4.5-8.6-9.6-14.2-12.3
		c-0.1,0-0.2-0.1-0.3-0.1c-0.4-0.2-0.8-0.4-1.2-0.5c-0.2-0.1-0.4-0.1-0.5-0.2c-0.2-0.1-0.4-0.2-0.7-0.2c-0.3-0.1-0.6-0.2-0.9-0.3
		c1.5-0.7,3.1-1.4,4.8-2c15.4-5.2,30.9-1.2,40.4,10.7c16.8,27.2,24.9,72.6,21.7,121.5c-2.2,33.5-9.6,65.6-20.8,90.4l-0.1,0.2
		c-3.5,9.7-7.6,19.1-12.1,27.8l-0.6,1.1l0,0c-4.4,8.3-9.3,16-14.5,23.2l0,0l-1.5,1.9c-12.8,16.9-28,30.3-44.5,39.5
		c0-0.1,0-0.1,0-0.2C194.2,322,193.7,321.5,193.2,321.5z M34.3,241c21.1,17.2,38,33.9,51.6,47.4c23.3,23.1,38.8,38.3,55.4,38.3
		c5.8,0,11.7-1.1,17.6-3.1c-1.7,0.8-3.4,1.6-5.1,2.3c0,0,0,0,0,0c-1.2,0.5-2.3,0.9-3.5,1.3c0,0-0.1,0-0.1,0c-1.2,0.4-2.3,0.7-3.5,1
		c0,0-0.1,0-0.1,0c-1.2,0.3-2.3,0.6-3.5,0.8c-0.1,0-0.1,0-0.2,0c-1.2,0.2-2.3,0.4-3.5,0.6c-0.1,0-0.1,0-0.2,0
		c-1.2,0.2-2.3,0.3-3.5,0.4c-0.1,0-0.1,0-0.2,0c-0.6,0-1.3,0.1-1.9,0.1c-0.6,0-1.2,0.1-1.8,0.1c-0.7,0-1.3,0-2,0c-0.6,0-1.2,0-1.8,0
		c-0.7,0-1.4-0.1-2.1-0.2c-0.6,0-1.1-0.1-1.7-0.1c-0.8-0.1-1.6-0.2-2.3-0.3c-0.5-0.1-1-0.1-1.5-0.2c-0.9-0.1-1.8-0.3-2.7-0.5
		c-0.4-0.1-0.8-0.1-1.2-0.2c-1-0.2-2.1-0.5-3.1-0.7c-0.3-0.1-0.5-0.1-0.8-0.2c-1.2-0.3-2.4-0.7-3.6-1.1c-0.1,0-0.2-0.1-0.3-0.1
		c-8.7-2.8-17.7-7.3-26.8-13.3c-3-2.3-6.2-4.9-9.4-7.6c-9.9-8.4-20.1-18-31.9-29.2c-9.6-9.1-20.5-19.4-32.4-30.1
		C16.9,243.5,25.7,241.7,34.3,241z M210,16.3c1.9-1.8,3.9-3.4,6-4.8c0.4-0.3,0.8-0.5,1.2-0.7c0.2,0,0.4,0,0.6,0c0,0,0.1,0,0.1,0
		c0.4,0,0.8,0.1,1.2,0.1c0,0,0.1,0,0.1,0c0.4,0.1,0.8,0.2,1.3,0.3c0,0,0.1,0,0.1,0c5.6,1.7,12.1,7.1,15.5,11.8
		c-5.9,11.4-10.1,24.9-12.6,40.3c-6.5,39-1.9,90.9,13.9,155.2c-3.2,8.3-6.6,16.3-10.2,23.8c-1.4,2.9-2.8,5.8-4.3,8.6
		C180,180.6,186.6,38.2,210,16.3z M254.7,138.8c-1.2,19.1-4.1,37.5-8.5,54.7c-2.1,6.8-4.3,13.4-6.7,19.8C219,128,218.5,65,237.9,26
		C251.4,54,257.6,95,254.7,138.8z M256.8,261.6c8.1,12.5,29.7,43,52.8,48.4c2.5,0.6,5,0.9,7.5,0.8c-14.7,6.5-30.8,4.2-53.2-6.9
		c-0.6-0.5-1.2-1-1.8-1.6c-5.1-4.5-10.7-10-17.2-16.3l-2.2-2.2C247.8,277,252.5,269.5,256.8,261.6z M388.7,213
		c-21.8-84.9-22.3-147.6-1.6-186.6c14.3,28,20.8,68.8,17.8,112.3c-1.3,19.1-4.4,37.5-9.1,54.7C393.6,200.1,391.2,206.7,388.7,213z
		 M356.8,16.3c2-1.8,4.2-3.4,6.5-4.9c0,0,0,0,0.1,0c6-1.6,15.8,4.8,21.1,10.9c0.4,0.4,0.7,0.9,1,1.3c-22.2,40-21.7,105.3,1.5,193.9
		c-3.4,8.3-6.9,16.2-10.7,23.6c-0.2,0.4-0.4,0.7-0.7,1.1l-0.1,0.1c-1.5,3-3.1,6-4.7,8.9c-20-30.7-32.2-79.3-33.5-134
		C336.2,68.9,344.2,27.4,356.8,16.3z M406.8,261.4c5.9,8.2,18.5,24.3,33.7,35.9c12.4,9.4,24,13.9,34.6,13.5
		c-6.1,2.4-12.4,3.7-19.1,3.8c-11.9,0-25.4-3.5-41.5-10.6c-0.7-0.5-1.4-1.1-2.1-1.7c-5.7-4.5-12-10-19.3-16.3l-1.7-1.5
		C396.8,277.4,402,269.6,406.8,261.4z M455.3,317.4c0.1,0,0.3,0,0.4,0c11.5,0,21.6-3.1,31.6-9.4c1.1-0.5,2.1-1,3.1-1.5
		c0.9-0.5,1.8-1.1,2.7-1.7l0.1-0.1c2.2-1.5,4.3-3.2,6.3-5.2c7.3-6.4,14.4-13.9,21.2-22.2c4.9-6.1,9.8-12.8,14.4-19.8l0,0l1.1-1.7
		c0.2-0.3,0.4-0.7,0.6-1l0.2-0.3l0,0c2.1-3.4,4.2-6.8,6.2-10.4c4.5-7.9,8.3-16.6,12.4-25.4l0.2-0.5l0-0.1c3.5-7.7,6.8-15.6,9.9-23.9
		c5.3-17.4,8.8-36,10.3-55.3c3.5-44.8-4.2-86.9-21.2-115.5c0,0,0,0,0,0l0.2-0.2l-0.6-0.8c-1.8-2.3-4.5-4.8-7.6-7
		c-4.3-3.2-9.3-5.8-14-7c1.8-0.7,3.7-1.4,5.6-1.9c18.8-5.3,37.6-1.2,49.2,10.8c20.1,27.1,29.8,72.5,26,121.4
		c-2.3,29.2-13.3,74.7-37.5,114.7l-0.7,1.2l0,0c-6.1,10-12.8,19.1-19.9,27.1l-0.9,1c-25.9,28.8-55.9,42.3-89.2,40.1
		c-17.8-1.2-29.1-4.7-39.8-11.2C436.5,315.5,446.3,317.4,455.3,317.4z M499.5,67.6c0-0.3,0.1-0.6,0.1-0.8c0-0.1,0-0.2,0.1-0.3
		c3.5-23.3,9.8-41.2,17.9-49c0.4-0.4,0.8-0.8,1.3-1.1c2.2-1.8,4.7-3.4,7.3-4.9c0.1-0.1,0.2-0.1,0.3-0.2c5.3-1.3,13.2,2.4,19.3,6.9
		c2.3,1.7,4.2,3.6,5.7,5.4c-24.8,40-24.2,105.2,1.7,193.7c-3.8,8.3-7.8,16.2-12.1,23.7c-0.2,0.4-0.5,0.7-0.8,1.1l-0.1,0.1
		c-1.8,3.1-3.6,6.2-5.5,9.2c-22.7-30.6-36.4-79.4-37.9-134.2C496.4,99.4,497.4,82.5,499.5,67.6z M554.6,214
		c-24.8-85.6-25-148.6-1.5-187.7c16.1,28,23.5,68.9,20.1,112.5c-1.5,19.1-4.9,37.5-10.2,54.6C560.4,200.4,557.6,207.3,554.6,214z"/>
	<path d="M398.6,240.4c0.7,0.3,1.6,0,1.9-0.7l1-2.3c0.5-1.1,1-2.2,1.5-3.5c0.5-1.2,1-2.3,1.4-3.4c0.3-0.7,0-1.5-0.8-1.8
		c-0.7-0.3-1.5,0-1.8,0.8c-0.5,1.1-1,2.3-1.4,3.3c-0.4,1-1,2.2-1.5,3.5l-1,2.3C397.6,239.2,397.9,240.1,398.6,240.4z"/>
	<path d="M399.5,219.2c0.7,0.3,1.5-0.1,1.8-0.8c0.5-1.4,1-2.8,1.5-4.2c0.5-1.3,0.9-2.6,1.3-3.9c0.2-0.7-0.2-1.5-0.9-1.8
		s-1.5,0.2-1.8,0.9c-0.4,1.2-0.8,2.5-1.3,3.9c-0.4,1.3-0.9,2.7-1.5,4.1C398.4,218.2,398.8,219,399.5,219.2z"/>
	<path d="M406.8,220.9c0.7,0.3,1.5-0.1,1.8-0.8c0.5-1.4,1-2.7,1.4-4c0.4-1.3,0.8-2.5,1.2-3.8c0.2-0.7-0.2-1.5-0.9-1.8
		c-0.7-0.2-1.5,0.2-1.8,0.9c-0.4,1.2-0.8,2.4-1.2,3.7c-0.4,1.3-0.9,2.6-1.4,3.9C405.7,219.8,406.1,220.6,406.8,220.9z"/>
	<path d="M410.3,230.4c-0.7-0.3-1.6,0-1.9,0.8c-0.7,1.6-1.3,3.2-2,4.6c-0.6,1.5-1.4,3.1-2.1,4.8c-0.3,0.7,0,1.6,0.7,1.9
		c0.7,0.3,1.6,0,1.9-0.7c0.7-1.6,1.4-3.2,2.1-4.8c0.8-1.7,1.4-3.3,2-4.6C411.4,231.5,411,230.7,410.3,230.4z"/>
	<path d="M391.5,238.4c0.7,0.3,1.6,0,1.9-0.7c0.7-1.5,1.4-3.1,2.1-4.7c0.6-1.5,1.3-2.9,1.9-4.4c0.3-0.7,0-1.5-0.8-1.8
		c-0.7-0.3-1.5,0-1.8,0.8c-0.6,1.4-1.2,2.9-1.9,4.4c-0.6,1.4-1.3,3-2.1,4.6C390.4,237.2,390.7,238.1,391.5,238.4z"/>
	<path d="M416.8,212.5c-0.7-0.2-1.5,0.2-1.8,0.9c-0.3,1.1-0.7,2.2-1.1,3.4c-0.4,1.2-0.8,2.5-1.3,3.7c-0.3,0.7,0.1,1.5,0.8,1.8
		s1.5-0.1,1.8-0.8c0.5-1.3,0.9-2.6,1.3-3.7c0.4-1.2,0.8-2.4,1.1-3.5C418,213.5,417.6,212.7,416.8,212.5z"/>
	<path d="M408.5,37.8c0,0.6,0.5,1.1,1,1.1c4.1,0.1,8,0.6,11.6,1.7c0.1,0,0.2,0,0.3,0c0.5,0,0.9-0.3,1-0.8c0.2-0.6-0.2-1.2-0.7-1.3
		c-3.8-1.1-7.9-1.7-12.2-1.8C408.9,36.8,408.5,37.2,408.5,37.8z"/>
	<path d="M414.4,52.4c0,0.6,0.5,1.1,1,1.1c4.1,0.1,8,0.6,11.6,1.7c0.1,0,0.2,0,0.3,0c0.5,0,0.9-0.3,1-0.8c0.2-0.6-0.2-1.2-0.7-1.3
		c-3.8-1.1-7.9-1.7-12.2-1.8C414.9,51.3,414.4,51.8,414.4,52.4z"/>
	<path d="M274.7,54.7c0.1,0,0.2,0.1,0.4,0.1c0.4,0,0.8-0.3,1-0.7c0.2-0.6-0.1-1.2-0.6-1.4c-5-1.8-10.6-2.3-16.7-1.6
		c-0.6,0.1-1,0.6-0.9,1.2s0.6,1,1.2,0.9C264.7,52.6,270,53,274.7,54.7z"/>
	<path d="M262.6,70c-0.6,0-1,0.5-1,1.1c0,0.6,0.5,1,1.1,1c5.2-0.3,10.3,0.5,15,2.2c0.1,0,0.2,0.1,0.4,0.1c0.4,0,0.8-0.3,1-0.7
		c0.2-0.6-0.1-1.2-0.6-1.4C273.5,70.5,268.1,69.7,262.6,70z"/>
	<path d="M434.5,116.3c-4.3-1.1-8.9-1.8-13.6-1.9c-0.6,0-1.1,0.4-1.1,1c0,0.6,0.4,1.1,1,1.1c4.6,0.1,9,0.8,13.1,1.8
		c0.1,0,0.2,0,0.3,0c0.5,0,0.9-0.3,1-0.8C435.4,117,435,116.4,434.5,116.3z"/>
	<path d="M433.3,139.7c-4.3-1.1-8.9-1.8-13.6-1.9c-0.6,0-1.1,0.4-1.1,1s0.4,1.1,1,1.1c4.6,0.1,9,0.8,13.1,1.8c0.1,0,0.2,0,0.3,0
		c0.5,0,0.9-0.3,1-0.8C434.2,140.5,433.9,139.9,433.3,139.7z"/>
	<path d="M604.3,104.5c-4.3-1.1-8.9-1.8-13.6-1.9c-0.6,0-1.1,0.4-1.1,1c0,0.6,0.4,1.1,1,1.1c4.6,0.1,9,0.8,13.1,1.8
		c0.1,0,0.2,0,0.3,0c0.5,0,0.9-0.3,1-0.8C605.2,105.3,604.9,104.7,604.3,104.5z"/>
	<path d="M590.7,121.8c0,0.6,0.4,1.1,1,1.1c4.6,0.1,9,0.8,13.1,1.8c0.1,0,0.2,0,0.3,0c0.5,0,0.9-0.3,1-0.8c0.1-0.6-0.2-1.1-0.8-1.3
		c-4.3-1.1-8.9-1.8-13.6-1.9C591.3,120.7,590.8,121.2,590.7,121.8z"/>
	<path d="M575.6,203.6c3.5,1,7,2.2,10.4,3.5c0.1,0,0.3,0.1,0.4,0.1c0.4,0,0.8-0.3,1-0.7c0.2-0.5-0.1-1.2-0.6-1.4
		c-3.5-1.3-7-2.5-10.6-3.5c-0.6-0.2-1.2,0.2-1.3,0.7C574.7,202.8,575,203.4,575.6,203.6z"/>
	<path d="M567.8,223.4c3.5,1,7,2.2,10.4,3.5c0.1,0,0.3,0.1,0.4,0.1c0.4,0,0.8-0.3,1-0.7c0.2-0.5-0.1-1.2-0.6-1.4
		c-3.5-1.3-7.1-2.5-10.6-3.5c-0.6-0.2-1.2,0.2-1.3,0.7C566.9,222.7,567.2,223.2,567.8,223.4z"/>
	<path d="M249.9,8.8C249.9,8.8,249.9,8.8,249.9,8.8c0.6,0,1.1-0.4,1.1-1c0-0.6-0.4-1.1-1-1.1c-4.9-0.2-9.8-0.2-14.7,0
		c-0.6,0-1,0.5-1,1.1c0,0.6,0.5,1,1.1,1C240.1,8.6,245,8.6,249.9,8.8z"/>
	<path d="M255.1,14.2c0.6,0,1-0.4,1.1-1c0-0.6-0.4-1.1-1-1.1c-5-0.4-10.1-0.5-15.2-0.2c-0.6,0-1,0.5-1,1.1c0,0.6,0.5,1,1.1,1
		C245.1,13.7,250.1,13.8,255.1,14.2C255,14.2,255,14.2,255.1,14.2z"/>
	<path d="M233.6,259.1c2.8,1,6.6,1.8,11.3,2.4c0,0,0.1,0,0.1,0c0.5,0,1-0.4,1.1-0.9c0.1-0.6-0.3-1.1-0.9-1.2
		c-4.6-0.6-8.2-1.4-10.9-2.3c-0.5-0.2-1.2,0.1-1.4,0.6C232.8,258.3,233.1,258.9,233.6,259.1z"/>
	<path d="M223.3,275.6c2.8,1,6.6,1.8,11.3,2.4c0,0,0.1,0,0.1,0c0.5,0,1-0.4,1.1-0.9c0.1-0.6-0.3-1.1-0.9-1.2
		c-4.6-0.6-8.2-1.4-10.9-2.3c-0.6-0.2-1.2,0.1-1.4,0.6C222.4,274.8,222.7,275.4,223.3,275.6z"/>
	<path d="M359.8,305.4c-3.9-0.3-7.6-0.9-10.9-2c-0.6-0.2-1.2,0.1-1.3,0.7c-0.2,0.6,0.1,1.2,0.7,1.3c3.4,1.1,7.3,1.8,11.4,2
		c0,0,0.1,0,0.1,0c0.6,0,1-0.4,1.1-1C360.9,306,360.4,305.5,359.8,305.4z"/>
	<path d="M427.4,187.2l-16.5-4.1l-4.9,16.8l16.3,3.5L427.4,187.2z M407.8,198.8l4.1-14.1l13.7,3.4l-4.3,13.6L407.8,198.8z"/>
	<path d="M422.3,190.2c-0.8-1.5-2.1-2.5-3.7-2.9c-1.6-0.4-3.3-0.1-4.9,0.8c-1.5,0.9-2.6,2.3-3.1,3.9c-0.5,1.7-0.3,3.3,0.5,4.8
		c0.8,1.4,2.2,2.4,3.8,2.8c0.4,0.1,0.9,0.1,1.3,0.1c1.2,0,2.3-0.3,3.4-1c1.5-0.9,2.5-2.2,3-3.8C423.2,193.3,423.1,191.6,422.3,190.2
		z M421.3,194.5c-0.4,1.3-1.3,2.3-2.4,3c-1.2,0.7-2.5,0.9-3.7,0.6c-1.2-0.3-2.2-1-2.9-2.1c-0.6-1.1-0.8-2.4-0.4-3.7
		c0.4-1.3,1.3-2.4,2.4-3.1c0.8-0.5,1.8-0.7,2.7-0.7c0.4,0,0.8,0,1.1,0.1c1.2,0.3,2.2,1.1,2.8,2.2C421.6,192,421.7,193.3,421.3,194.5
		z"/>
	<path d="M415,184l8.7,2.2l1.6-5l-8.8-2.3L415,184z M419.4,182.5c0.1-0.3,0.4-0.5,0.7-0.5c0,0,0.1,0,0.1,0c0.2,0,0.3,0.2,0.3,0.3
		c0.1,0.1,0.1,0.3,0,0.5c-0.1,0.4-0.5,0.6-0.8,0.5c-0.2,0-0.3-0.2-0.3-0.2C419.4,182.8,419.4,182.6,419.4,182.5z M422.7,184.5
		l-1.5-0.4c0.3-0.3,0.6-0.6,0.7-1c0.1-0.4,0.1-0.9,0-1.3l1.5,0.4L422.7,184.5z M417.4,180.6l1.3,0.3c-0.3,0.3-0.6,0.6-0.7,1
		c-0.1,0.4-0.1,0.9,0,1.3l-1.3-0.3L417.4,180.6z"/>
	<path d="M420.8,92.7c0.2,1.5,0.9,2.8,2.1,3.9c1.2,1,2.7,1.6,4.2,1.6c0,0,0,0,0.1,0c1.5,0,2.9-0.6,3.9-1.6c1-1,1.5-2.4,1.4-3.9
		c-0.1-1.5-0.9-2.9-2.1-3.9c-1.2-1-2.7-1.6-4.3-1.6c-1.6,0-3,0.5-4,1.6C421.1,89.8,420.6,91.2,420.8,92.7z M423.1,89.8
		c0.7-0.8,1.8-1.2,3-1.2c0,0,0,0,0.1,0c1.2,0,2.4,0.5,3.4,1.3c0.9,0.8,1.5,1.9,1.6,3c0.1,1.1-0.2,2.1-1,2.8c-0.7,0.8-1.8,1.2-3,1.2
		c-1.2,0-2.4-0.5-3.3-1.3c-0.9-0.8-1.5-1.8-1.6-3C422.1,91.5,422.4,90.5,423.1,89.8z"/>
	<path d="M421.2,80.7l0.5,4.5l-3.8,0l1.6,14.9l15.8,0.1l-1.4-14.9l-3.7,0l-0.4-4.5L421.2,80.7z M433.7,98.8l-13-0.1l-1.3-12.1
		l13.1,0.2L433.7,98.8z M428.6,84l-1.3,0c0.2-0.3,0.2-0.6,0.2-1c0-0.3-0.1-0.6-0.3-0.8l1.2,0L428.6,84z M425.2,82.8
		c0.1-0.1,0.2-0.1,0.3-0.1c0,0,0,0,0,0c0.3,0,0.6,0.3,0.7,0.5c0,0.1,0,0.2-0.1,0.2c-0.1,0.1-0.2,0.1-0.3,0.1c-0.3,0-0.6-0.3-0.7-0.5
		C425.1,82.9,425.1,82.8,425.2,82.8z M423.9,82.2c-0.2,0.3-0.2,0.6-0.2,1c0,0.3,0.1,0.6,0.3,0.8l-1,0l-0.2-1.8L423.9,82.2z"/>
	<path d="M407.2,14.6l-3,0.4l-1.5-1.9l-7.1,0.9l1.4,1.9l-3,0.4l5.2,7.7l14.3-1.8L407.2,14.6z M410.7,21.2l-3.5,0.4
		c0.4-0.2,0.7-0.4,0.9-0.7c0.7-0.8,0.7-1.8,0-2.7c-0.6-0.7-1.6-1.3-2.9-1.7c-0.2-0.1-0.5-0.1-0.8-0.2l2-0.2L410.7,21.2z M399.7,18.5
		c0.4-0.4,1.2-0.7,2.1-0.8c1-0.1,2.2,0,3.2,0.2c1,0.3,1.8,0.7,2.1,1.2c0.3,0.4,0.2,0.7,0,0.9c-0.4,0.4-1.2,0.7-2.2,0.9
		c-1.1,0.1-2.3,0-3.3-0.3c-1-0.3-1.7-0.7-2.1-1.2C399.4,19,399.4,18.7,399.7,18.5z M402.2,14.7l-0.4,0c0,0,0,0,0,0L402.2,14.7
		L402.2,14.7z M398.4,15.1C398.4,15.1,398.4,15.1,398.4,15.1l-0.2,0.1l0,0L398.4,15.1z M396.4,17.4l2.7-0.3
		c-0.2,0.1-0.4,0.3-0.5,0.4c-0.7,0.8-0.8,1.8-0.2,2.6c0.5,0.7,1.5,1.4,2.8,1.8c0.4,0.1,0.9,0.2,1.3,0.3l-2.7,0.3L396.4,17.4z"/>
	<path d="M573.8,12.6l-3,0.4l-1.5-1.9l-7.1,0.9l1.4,1.9l-3,0.4l5.2,7.7l14.3-1.8L573.8,12.6z M577.4,19.1l-3.5,0.4
		c0.4-0.2,0.7-0.4,0.9-0.7c0.7-0.8,0.7-1.8,0-2.7c-0.6-0.7-1.6-1.3-2.9-1.7c-0.2-0.1-0.5-0.1-0.7-0.2l2-0.2L577.4,19.1z M566.3,16.5
		c0.4-0.4,1.2-0.7,2.1-0.8c0.3,0,0.6-0.1,1-0.1c0.8,0,1.5,0.1,2.2,0.3c1,0.3,1.8,0.7,2.1,1.2c0.3,0.4,0.2,0.7,0,0.9
		c-0.4,0.4-1.2,0.7-2.2,0.9c-1.1,0.1-2.3,0-3.3-0.3c-1-0.3-1.7-0.7-2.1-1.2C566,17,566,16.7,566.3,16.5z M568.8,12.7l-0.4,0
		c0,0,0,0,0,0L568.8,12.7L568.8,12.7z M565,13.1C565,13.1,565,13.1,565,13.1l-0.2,0.1l0,0L565,13.1z M563.1,15.4l2.7-0.3
		c-0.2,0.1-0.4,0.3-0.5,0.4c-0.7,0.8-0.8,1.8-0.2,2.6c0.5,0.7,1.5,1.4,2.8,1.8c0.4,0.1,0.9,0.2,1.3,0.3l-2.7,0.3L563.1,15.4z"/>
	<path d="M604.9,83.3l-2.4-15.7l-3.7,0.1L598,63l-8.7,0.3l0.8,4.7l-3.9,0.1l2.6,15.9L604.9,83.3z M593.5,65.2
		c0.1-0.1,0.2-0.1,0.3-0.1h0c0,0,0,0,0,0c0.3,0,0.7,0.3,0.7,0.6c0,0.1,0,0.2-0.1,0.3c-0.1,0.1-0.2,0.1-0.3,0.1
		c-0.3,0-0.7-0.3-0.7-0.6C593.4,65.4,593.4,65.3,593.5,65.2z M597.1,66.5l-1.4,0c0.2-0.3,0.2-0.7,0.2-1.1c-0.1-0.3-0.2-0.6-0.4-0.9
		l1.3,0L597.1,66.5z M592.1,64.6c-0.2,0.3-0.2,0.7-0.2,1.1c0.1,0.3,0.2,0.6,0.4,0.9l-1.1,0l-0.3-2L592.1,64.6z M601.2,69.1l2,12.9
		L590,82.6l-2.1-13L601.2,69.1z"/>
	<path d="M592,80.2c1.2,1,2.7,1.5,4.2,1.5c0.1,0,0.2,0,0.3,0c1.6-0.1,3-0.7,4-1.9c1-1.2,1.4-2.7,1.1-4.2c-0.2-1.5-1.1-3-2.3-4
		c-1.3-1-2.9-1.6-4.4-1.5c-1.6,0.1-3,0.7-4,1.9c-1,1.2-1.4,2.7-1.1,4.3C589.9,77.7,590.7,79.1,592,80.2z M591.8,72.8
		c0.7-0.9,1.8-1.4,3-1.4c1.2,0,2.5,0.4,3.5,1.2c1,0.8,1.7,1.9,1.8,3.1c0.2,1.2-0.1,2.3-0.8,3.1c-0.7,0.8-1.8,1.3-3,1.4
		c-1.2,0-2.5-0.4-3.5-1.2c-1-0.8-1.7-1.9-1.9-3.1C590.8,74.8,591.1,73.6,591.8,72.8z"/>
	<path d="M266.4,26.1l-3.4,0.4l-1-3.2l-7.9,0.9l0.9,3.3l-3.6,0.4l3.1,12.4l16.1-2L266.4,26.1z M258.2,25.5c0,0,0.1,0,0.1,0
		c0.3,0,0.5,0.1,0.5,0.1c0,0-0.1,0.1-0.3,0.1c-0.3,0-0.6-0.1-0.6-0.1C257.9,25.6,258.1,25.5,258.2,25.5z M261.2,25.8l-0.9,0.1
		c0-0.2,0-0.4,0-0.6c0-0.1-0.1-0.2-0.2-0.3l0.8-0.1L261.2,25.8z M256.5,25.3c0,0.2,0,0.4,0,0.6c0,0.1,0.1,0.2,0.2,0.4l-0.7,0.1
		l-0.3-0.9L256.5,25.3z M253.1,29.1l12.3-1.5l3.2,9.4l-13.1,1.7L253.1,29.1z"/>
	<path d="M266.3,32.1c-0.4-1.2-1.3-2.2-2.7-2.9c-1.3-0.7-2.8-0.9-4.2-0.7c-1.5,0.2-2.8,0.8-3.6,1.7c-0.9,1-1.2,2.3-0.9,3.5
		c0.3,1.2,1.2,2.3,2.6,3.1c1.1,0.6,2.3,0.9,3.5,0.9c0.3,0,0.6,0,0.9-0.1c1.6-0.2,2.9-0.9,3.7-1.9C266.4,34.7,266.7,33.3,266.3,32.1z
		 M264.5,34.8c-0.6,0.7-1.6,1.2-2.8,1.4c-1.2,0.2-2.5-0.1-3.6-0.6c-1-0.5-1.7-1.3-1.9-2.2c-0.2-0.8,0-1.6,0.6-2.2
		c0.6-0.7,1.6-1.1,2.8-1.3c1.2-0.1,2.4,0.1,3.4,0.6c1,0.5,1.7,1.2,2,2.1C265.2,33.3,265,34.1,264.5,34.8z"/>
	<path d="M271.2,123.9c1.3,1.1,3,1.8,4.8,1.8c0,0,0.1,0,0.1,0c1.8,0,3.4-0.6,4.7-1.7c1.3-1.1,2-2.6,2.1-4.2c0-1.6-0.7-3.2-2-4.3
		c-1.3-1.2-3-1.8-4.8-1.8c-1.8,0-3.5,0.5-4.8,1.7c-1.3,1.1-2.1,2.7-2.1,4.3C269.2,121.2,269.9,122.8,271.2,123.9z M272.1,116.4
		c1-0.9,2.3-1.3,3.7-1.3c0,0,0.1,0,0.1,0c1.5,0,2.8,0.6,3.8,1.5c1,0.9,1.5,2,1.5,3.3c0,1.2-0.6,2.3-1.6,3.2c-1,0.9-2.4,1.3-3.8,1.3
		c-1.5,0-2.8-0.5-3.8-1.4c-1-0.9-1.6-2-1.6-3.3C270.6,118.4,271.1,117.2,272.1,116.4z"/>
	<path d="M271.2,106.4l0,5l-4.5-0.1l0,16.5l18.4,0.2l0.3-16.2l-4.3-0.1l0.1-4.9L271.2,106.4z M275.4,108.6c0.1-0.1,0.3-0.2,0.6-0.2
		c0,0,0,0,0,0c0.4,0,0.8,0.3,0.8,0.6c0,0.2-0.1,0.3-0.2,0.3c-0.1,0.1-0.4,0.2-0.6,0.2c-0.4,0-0.8-0.3-0.8-0.6
		C275.3,108.8,275.4,108.7,275.4,108.6z M279.6,110.2l-1.8,0c0.2-0.3,0.4-0.7,0.4-1.1c0-0.4-0.1-0.8-0.3-1.1l1.8,0.1L279.6,110.2z
		 M272.6,107.8l1.6,0c-0.2,0.3-0.4,0.7-0.4,1.1c0,0.4,0.1,0.8,0.3,1.1l-1.6,0L272.6,107.8z M283.7,126.5l-15.6-0.1l0-13.6l15.8,0.4
		L283.7,126.5z"/>
	<path d="M602.2,164l-16.8-3.7l-3.7,17.1l16.8,3.4L602.2,164z M583.4,176.2l3.1-14.3l14.1,3.1l-3.1,14L583.4,176.2z"/>
	<path d="M597.3,167.1c-0.9-1.4-2.3-2.4-4-2.8c-1.7-0.4-3.4,0-4.8,0.9c-1.4,0.9-2.4,2.4-2.8,4.1c-0.4,1.7-0.1,3.4,0.9,4.8
		c0.9,1.4,2.3,2.4,4,2.7c0.4,0.1,0.8,0.1,1.3,0.1c1.2,0,2.4-0.4,3.5-1.1c1.4-0.9,2.4-2.3,2.8-4C598.5,170.3,598.2,168.6,597.3,167.1
		z M596.8,171.6c-0.3,1.3-1.1,2.4-2.2,3.1c-1.1,0.7-2.4,1-3.7,0.7c-1.3-0.3-2.4-1-3.1-2.1c-0.7-1.1-1-2.4-0.7-3.7
		c0.3-1.3,1.1-2.4,2.2-3.2c0.8-0.5,1.8-0.8,2.7-0.8c0.3,0,0.7,0,1,0.1c1.3,0.3,2.4,1,3.1,2.2C596.8,169,597.1,170.3,596.8,171.6z"/>
	<path d="M589.4,161.1l8.9,2l1.1-5l-8.9-2L589.4,161.1z M593.8,159.4c0-0.2,0.1-0.3,0.3-0.4c0.1-0.1,0.2-0.1,0.3-0.1
		c0,0,0.1,0,0.1,0c0.3,0.1,0.6,0.4,0.5,0.8c0,0.2-0.1,0.3-0.3,0.4c-0.1,0.1-0.3,0.1-0.5,0.1C593.9,160.1,593.7,159.8,593.8,159.4z
		 M597.3,161.4l-1.5-0.3c0.3-0.3,0.5-0.6,0.6-1.1c0.1-0.4,0-0.8-0.1-1.2l1.5,0.3L597.3,161.4z M591.6,157.7l1.4,0.3
		c-0.3,0.3-0.5,0.7-0.6,1.1c-0.1,0.4,0,0.8,0.1,1.2l-1.3-0.3L591.6,157.7z"/>
	<path d="M266.6,220.2L250,216l-7,17.9l16.9,3.6L266.6,220.2z M245,232.8l5.9-15.1l13.8,3.5l-5.7,14.6L245,232.8z"/>
	<path d="M261.1,223.4c-0.7-1.5-2-2.6-3.6-3h0c-1.6-0.4-3.4-0.1-5.1,0.8c-1.6,0.9-2.9,2.4-3.6,4.1c-0.7,1.8-0.7,3.6,0,5.1
		c0.7,1.5,2.1,2.6,3.8,3c0.4,0.1,0.9,0.1,1.3,0.1c1.3,0,2.5-0.4,3.7-1.1c1.6-0.9,2.8-2.4,3.4-4.1
		C261.8,226.7,261.8,224.9,261.1,223.4z M259.8,227.9c-0.5,1.4-1.6,2.6-2.9,3.4c-1.3,0.8-2.7,1-4,0.8c-1.3-0.3-2.2-1-2.8-2.2
		c-0.5-1.2-0.5-2.6,0-4c0.6-1.4,1.6-2.6,2.9-3.4c0.9-0.5,1.9-0.8,2.9-0.8c0.4,0,0.8,0,1.1,0.1c1.2,0.3,2.2,1.1,2.7,2.2
		C260.3,225.1,260.3,226.5,259.8,227.9z"/>
	<path d="M264.9,214l-8.7-2.3l-2,5.1l8.8,2.2L264.9,214z M260.1,215.5c-0.2,0.4-0.6,0.7-1,0.6c-0.1,0-0.2-0.1-0.3-0.2
		c-0.1-0.1-0.1-0.3,0-0.5c0.1-0.4,0.5-0.6,0.8-0.6c0,0,0.1,0,0.1,0h0c0.1,0,0.2,0.1,0.3,0.2C260.1,215.1,260.1,215.3,260.1,215.5z
		 M257,213.4l1.3,0.3c-0.4,0.3-0.6,0.6-0.8,1.1c-0.2,0.5-0.2,1,0,1.4l-1.4-0.4L257,213.4z M260.6,217.1c0.3-0.3,0.6-0.6,0.8-1
		c0.2-0.5,0.2-1,0.1-1.4l1.5,0.4l-0.9,2.4L260.6,217.1z"/>
	<path d="M377.5,287.8l2.5-2.9l-6.5-3l-2.5,3l-2.9-1.2l-8.7,10.4l12.3,4.6l8.4-9.8L377.5,287.8z M375.5,284.9c0.1,0,0.1,0,0.2,0
		l0,0.1c-0.2,0.2-0.5,0.3-0.7,0.1C375.1,284.9,375.3,284.9,375.5,284.9z M376.8,286.4l-0.4-0.2c0.1-0.1,0.2-0.2,0.3-0.3
		c0.2-0.2,0.3-0.5,0.4-0.8l0.6,0.3L376.8,286.4z M373.9,283.7l0.4,0.2c-0.1,0.1-0.3,0.2-0.4,0.3c-0.2,0.2-0.3,0.5-0.4,0.8l-0.5-0.2
		L373.9,283.7z M371.2,297l-9.5-3.5l6.8-8l9.3,4L371.2,297z"/>
	<path d="M375.2,290.1c-0.2-1.1-1-2-2.3-2.6c-1.2-0.5-2.6-0.6-4-0.2c-1.4,0.3-2.6,1.1-3.5,2.1c-0.9,1-1.2,2.3-0.9,3.4
		c0.3,1.1,1.2,2,2.4,2.5c0.7,0.2,1.4,0.4,2.1,0.4c0.6,0,1.2-0.1,1.8-0.2c1.4-0.3,2.5-1.1,3.3-2C375,292.4,375.4,291.2,375.2,290.1z
		 M373.1,292.5c-0.6,0.7-1.6,1.3-2.6,1.6c-1.1,0.3-2.2,0.2-3-0.1c-0.8-0.3-1.4-0.9-1.5-1.5c-0.2-0.7,0-1.4,0.6-2.1
		c0.6-0.7,1.6-1.3,2.7-1.6c0.5-0.1,0.9-0.2,1.3-0.2c0.6,0,1.2,0.1,1.7,0.3c0.8,0.3,1.3,0.9,1.4,1.6
		C373.9,291.1,373.7,291.8,373.1,292.5z"/>
	<path d="M566,258.4L563,257l3.2-4.1l-7.3-3.3l-3.2,4.2l3.1,1.4l-6.3-2.8L542.3,266l13.2,5.6L566,258.4z M560.4,253.3
		c0.2-0.3,0.6-0.4,0.8-0.4c0.1,0,0.1,0,0.2,0l0.1,0.1c0,0.1,0,0.2-0.1,0.4c-0.3,0.4-0.8,0.5-1.1,0.3
		C560.3,253.6,560.3,253.4,560.4,253.3z M562.6,255.3l-0.9-0.4c0.3-0.2,0.6-0.4,0.8-0.7c0.3-0.4,0.4-0.8,0.4-1.2l1.1,0.5
		L562.6,255.3z M559.4,251.4l0.8,0.3c-0.3,0.2-0.6,0.4-0.8,0.7c-0.3,0.4-0.4,0.8-0.4,1.2l-0.9-0.4L559.4,251.4z M544.5,265.4
		l8.4-11.2l10.8,4.8l-8.7,10.9L544.5,265.4z"/>
	<path d="M560.2,260.3c-0.2-1.4-1.1-2.6-2.5-3.2c-1.3-0.6-2.9-0.6-4.6-0.1c-1.6,0.5-3,1.5-4,2.8c-1,1.3-1.4,2.8-1.2,4.2
		c0.2,1.4,1.1,2.5,2.5,3.1c0.7,0.3,1.4,0.4,2.2,0.4c0.7,0,1.5-0.1,2.3-0.4c1.6-0.5,3-1.5,4-2.7C559.9,263.2,560.4,261.7,560.2,260.3
		z M557.8,263.6c-0.8,1-2,1.8-3.3,2.3c-1.3,0.4-2.5,0.4-3.5,0c-0.9-0.4-1.5-1.1-1.6-2c-0.2-1,0.2-2.1,0.9-3.1c0.8-1.1,2-1.9,3.3-2.3
		c0.6-0.2,1.3-0.3,1.9-0.3c0.6,0,1.2,0.1,1.7,0.3c0.9,0.4,1.5,1.1,1.6,2.1C559,261.5,558.6,262.6,557.8,263.6z"/>
	<path d="M213.5,306.1l-2.2-1l3.3-2.9l-5.8-2.9l-3.4,3.2l-2.6-1.1l-10.9,10.5l11.3,3.4L213.5,306.1z M210.1,302.2
		c-0.2,0.2-0.4,0.3-0.6,0.3C209.7,302.3,210,302.2,210.1,302.2z M210.8,303.7l-0.1-0.1c0.2-0.1,0.3-0.2,0.5-0.3
		c0.3-0.3,0.5-0.6,0.6-0.9l0.4,0.2L210.8,303.7z M209,301l0.2,0.1c-0.2,0.1-0.4,0.2-0.6,0.4c-0.3,0.3-0.5,0.6-0.6,0.9l-0.4-0.2
		L209,301z M205.6,309.5c-0.8,0.7-1.9,1.3-3,1.6c-1.1,0.3-2.2,0.3-2.9,0.1c-0.5-0.1-1-0.4-1.1-1.1c0-0.6,0.4-1.3,1.1-2
		c0.8-0.8,2-1.4,3.2-1.8c0.6-0.2,1.2-0.2,1.7-0.2c0.5,0,1,0.1,1.4,0.2h0c0.6,0.2,0.9,0.6,0.9,1.2
		C206.8,308.1,206.4,308.8,205.6,309.5z M194.5,311.2l8.5-8.1l7.9,3.4l-3.1,2.7c0.3-0.5,0.5-1.1,0.6-1.7c0.1-1.1-0.6-2.1-1.7-2.6
		c-1.1-0.4-2.5-0.5-3.9-0.1c-1.5,0.4-2.8,1.1-3.8,2.1c-1.1,1-1.6,2.1-1.5,3.2c0.1,1.1,0.8,1.9,2,2.3c0.5,0.1,1,0.2,1.6,0.2
		c0.7,0,1.4-0.1,2.1-0.3c0.6-0.2,1.2-0.4,1.8-0.7l-2.2,1.9L194.5,311.2z"/>
</g>
</svg>
