<?xml version="1.0" encoding="utf-8"?>
<!-- Generator: Adobe Illustrator 21.0.0, SVG Export Plug-In . SVG Version: 6.00 Build 0)  -->
<svg version="1.1" id="Layer_1" xmlns="http://www.w3.org/2000/svg" xmlns:xlink="http://www.w3.org/1999/xlink" x="0px" y="0px"
	 viewBox="0 0 340.3 377.8" style="enable-background:new 0 0 340.3 377.8;" xml:space="preserve">
<g>
	<path d="M179.1,117l-5.9,6.5c-0.6,0.7-0.6,1.8,0.1,2.4l0.2,0.1c0.7,0.6,1.8,0.6,2.4-0.2l5.7-6.7c0.6-0.7,0.5-1.7-0.2-2.4
		C180.8,116.2,179.7,116.3,179.1,117z"/>
	<path d="M182.1,112.2c-0.7-0.3-1.5,0-1.7,0.7l-0.1,0.2c-0.2,0.6,0.1,1.2,0.6,1.5c1.3,0.6,2.2,1.6,2.9,2.9c0.3,0.6,0.9,0.9,1.5,0.6
		l0.2-0.1c0.7-0.3,1-1.1,0.7-1.8C185.3,114.5,183.9,113.2,182.1,112.2z"/>
	<path d="M187.3,111.1c-1.1-1.1-2.3-1.9-3.8-2.6c-0.7-0.3-1.5,0.1-1.8,0.8c-0.2,0.7,0.1,1.4,0.7,1.6c1.1,0.5,2.1,1.2,2.9,2
		c0.8,0.8,1.5,1.8,2.1,3c0.3,0.6,1,0.9,1.7,0.7l0,0c0.7-0.3,1.1-1.1,0.8-1.8C189.3,113.4,188.4,112.2,187.3,111.1z"/>
	<path d="M171.1,129L171.1,129l-7-7.7c-0.6-0.7-1.7-0.8-2.4-0.1v0c-0.7,0.6-0.7,1.7-0.2,2.4l5.8,6.8v20.2h3.7V129L171.1,129
		L171.1,129L171.1,129z"/>
	<path d="M167.4,120.3c0,1,0.8,1.9,1.9,1.9h0c1,0,1.9-0.8,1.9-1.9v-20.2h-3.7V120.3z"/>
	<path d="M153.9,66.1c0-1.1-0.2-2.2-0.8-3.1c-0.7-1.3-1.8-2.2-3.2-2.6c-0.2-0.1-0.5-0.1-0.7-0.2c-0.6,0-1.2,0-1.7,0
		c-0.2,0-0.5,0.1-0.7,0.2c-0.8,0.2-1.4,0.6-2,1.1c-1.1,1-1.7,2.2-2,3.7c0,0,0,0.1,0,0.1c0,0.6,0,1.3,0,1.9c0.1,0.4,0.1,0.7,0.2,1.1
		c0.4,1.3,1.1,2.4,2.2,3.1c1,0.7,2.2,0.9,3.4,0.8c0.6,0,1.2-0.1,1.8-0.3c1.4-0.5,2.4-1.5,3-2.8C153.8,68.2,153.9,67.2,153.9,66.1z
		 M150.6,68.4c-0.5,0.9-1.2,1.4-2.3,1.4c-1,0-1.7-0.5-2.2-1.3c-0.5-0.9-0.7-1.9-0.5-2.9c0.1-0.6,0.2-1.1,0.5-1.6
		c0.5-0.9,1.3-1.4,2.3-1.4c1.1,0,1.9,0.5,2.3,1.5c0.3,0.7,0.4,1.3,0.4,2.1C151.1,67.1,150.9,67.8,150.6,68.4z"/>
	<path d="M157.1,72.1c0.9,0.3,1.8,0.4,2.8,0.3c0.8-0.1,1.5-0.3,2.2-0.6c0.7-0.4,1.2-0.9,1.6-1.6c0.3-0.6,0.4-1.3,0.3-2
		c-0.1-0.7-0.4-1.3-0.9-1.8c-0.5-0.4-1.1-0.8-1.7-0.9c-0.9-0.3-1.8-0.5-2.7-0.7c-0.3-0.1-0.5-0.2-0.7-0.3c-0.5-0.3-0.6-0.8-0.2-1.2
		c0.2-0.2,0.4-0.4,0.7-0.4c0.5-0.1,0.9-0.2,1.4-0.1c0.7,0.1,1.2,0.6,1.3,1.3c0,0.2,0,0.2,0.3,0.2c0.7,0,1.3,0,2,0
		c0.6,0,0.6,0,0.5-0.6c0,0,0,0,0-0.1c-0.3-1.5-1.1-2.5-2.6-3c-0.4-0.1-0.8-0.2-1.2-0.3c-0.6,0-1.1,0-1.7,0c0,0-0.1,0-0.1,0
		c-0.4,0.1-0.9,0.2-1.3,0.4c-0.8,0.3-1.5,0.8-1.9,1.6c-0.4,0.7-0.5,1.4-0.4,2.1c0.1,0.8,0.5,1.4,1.1,1.9c0.7,0.5,1.4,0.7,2.2,0.9
		c0.7,0.2,1.3,0.3,2,0.5c0.3,0.1,0.7,0.2,1,0.4c0.3,0.2,0.4,0.4,0.3,0.8c-0.1,0.6-0.4,0.9-0.9,1c-0.5,0.1-1,0.2-1.5,0
		c-0.8-0.2-1.4-0.6-1.5-1.5c0-0.1-0.1-0.2-0.2-0.2c-0.8,0-1.5,0-2.3,0c-0.1,0-0.2,0.1-0.2,0.2c0,0.2,0,0.4,0,0.6
		C154.8,70.6,155.6,71.6,157.1,72.1z"/>
	<path d="M197.3,60.6c-0.8,0-1.6,0-2.4,0c-0.2,0-0.3,0.1-0.4,0.3c-0.8,1.4-1.6,2.7-2.4,4.1c0,0.1-0.1,0.1-0.2,0.2
		c-0.3-0.4-0.5-0.8-0.7-1.2c-0.6-1-1.2-2.1-1.9-3.1c-0.1-0.2-0.2-0.2-0.4-0.2c-0.7,0-1.5,0-2.2,0c-0.4,0-0.4,0-0.4,0.4
		c0,3.5,0,7,0,10.6c0,0.1,0,0.1,0,0.2c0,0.2,0,0.3,0.3,0.3c0.8,0,1.6,0,2.4,0c0.2,0,0.3,0,0.3-0.3c0-0.1,0-0.2,0-0.2
		c0-1.7,0-3.4,0-5.1c0-0.1,0-0.2,0-0.3c0,0,0,0,0.1,0c0.9,1.4,1.7,2.8,2.6,4.3c0.9-1.5,1.8-2.9,2.7-4.3c0,0,0,0,0.1,0
		c0,0.1,0,0.2,0,0.3c0,1.8,0,3.5,0,5.3c0,0.3,0,0.3,0.3,0.3c0.8,0,1.5,0,2.3,0c0.3,0,0.3,0,0.3-0.3c0-3.6,0-7.2,0-10.8
		C197.7,60.6,197.6,60.6,197.3,60.6z"/>
	<path d="M174.2,72c-0.6-1.3-1.2-2.5-1.9-3.7c0.1-0.1,0.1-0.1,0.1-0.1c0,0,0.1-0.1,0.2-0.1c0.7-0.4,1.2-0.9,1.6-1.6
		c0.4-0.8,0.5-1.6,0.4-2.4c-0.1-0.8-0.4-1.6-0.9-2.2c-0.6-0.8-1.5-1.3-2.5-1.3c-1.9,0-3.9,0-5.8,0c-0.3,0-0.3,0-0.3,0.3
		c0,3.6,0,7.2,0,10.8c0,0.3,0,0.3,0.3,0.3c0.7,0,1.4,0,2.1,0c0.4,0,0.4,0,0.4-0.4c0-1,0-1.9,0-2.9c0-0.1,0-0.2,0-0.4
		c0.1,0,0.2,0,0.3,0c0.4,0,0.7,0,1.1,0c0.2,0,0.3,0.1,0.4,0.3c0.2,0.4,0.3,0.7,0.5,1.1c0.3,0.7,0.6,1.4,0.9,2
		c0.1,0.2,0.2,0.3,0.4,0.3c0.8,0,1.6,0,2.4,0C174,72,174.1,72,174.2,72z M170.9,65.9c-0.1,0-0.3,0.1-0.4,0.1c-0.4,0-0.8,0-1.2,0
		c-0.4,0-0.8,0-1.3,0c-0.2,0-0.3,0-0.3-0.3c0-0.8,0-1.7,0-2.5c0-0.2,0-0.2,0.2-0.2c0.8,0,1.7,0,2.5,0c0.5,0,0.8,0.3,1,0.8
		C172,64.6,171.7,65.6,170.9,65.9z"/>
	<path d="M174.4,72c0.1,0,0.1,0,0.1,0c0.8,0,1.7,0,2.5,0c0.1,0,0.2-0.1,0.3-0.2c0.2-0.5,0.4-1,0.5-1.5c0.1-0.2,0.1-0.3,0.3-0.3
		c1.3,0,2.6,0,3.9,0c0.2,0,0.3,0.1,0.3,0.2c0.2,0.5,0.3,1,0.5,1.5C183,72,183,72,183.3,72c0.8,0,1.5,0,2.3,0c0.1,0,0.2,0,0.3,0
		c0-0.1-0.1-0.3-0.1-0.4c-0.4-1.2-0.9-2.5-1.3-3.7c-0.7-1.8-1.3-3.6-2-5.4c-0.2-0.6-0.4-1.1-0.6-1.7c-0.1-0.2-0.2-0.3-0.4-0.3
		c-0.9,0-1.9,0-2.8,0c-0.2,0-0.3,0.1-0.3,0.2c-0.3,0.9-0.7,1.9-1,2.8c-0.4,1.2-0.8,2.3-1.3,3.5c-0.6,1.5-1.1,3-1.7,4.6
		C174.4,71.7,174.4,71.9,174.4,72z M180.1,63.7C180.1,63.7,180.1,63.7,180.1,63.7c0.5,1.3,1,2.6,1.4,3.9c-0.9,0-1.8,0-2.8,0
		C179.2,66.3,179.7,65,180.1,63.7z"/>
	<path d="M161.5,87.8c0-1.3,0-2.7,0-4c0-0.4,0-0.4-0.4-0.4c-1,0-2.1,0-3.1,0c-0.6,0-0.5-0.1-0.5,0.6c0,0.2,0,0.3,0.3,0.3
		c0.1,0,0.2,0,0.2,0c0.8,0,1.6,0,2.4,0c0.3,0,0.3,0,0.3,0.3c0,0.3-0.1,0.6-0.2,0.9c-0.2,0.8-0.7,1.3-1.4,1.7
		c-0.7,0.4-1.5,0.4-2.2,0.3c-0.8-0.1-1.5-0.6-2-1.2c-0.6-0.8-0.8-1.8-0.8-2.8c0-0.6,0.1-1.2,0.3-1.7c0.3-0.8,0.8-1.5,1.6-1.9
		c0.6-0.3,1.2-0.3,1.8-0.3c0.7,0,1.3,0.3,1.8,0.8c0.4,0.4,0.7,0.8,0.8,1.3c0,0.1,0,0.2,0.2,0.2c0.3,0,0.5,0,0.8,0c0-0.1,0-0.1,0-0.1
		c0-0.1,0-0.1,0-0.2c-0.3-1.3-1.2-2.2-2.5-2.6c-0.7-0.2-1.3-0.2-2-0.1c-1.5,0.2-2.6,1.1-3.2,2.5c-0.6,1.5-0.6,3-0.1,4.5
		c0.5,1.4,1.6,2.4,3.1,2.6c0.4,0.1,0.8,0.1,1.2,0.1c0.9,0,1.7-0.3,2.3-1c0.2-0.2,0.4-0.4,0.6-0.7c0,0.1,0,0.1,0,0.2
		c0,0.3,0,0.7,0.1,1c0,0.1,0,0.2,0.1,0.2c0.2,0,0.4,0,0.6,0C161.4,88.1,161.5,87.9,161.5,87.8z"/>
	<path d="M163.3,79.1c0,0.1,0,0.2,0,0.2c0,1.4,0,2.8,0,4.2c0,1.4,0,2.8,0,4.2c0,0.1,0,0.2,0,0.2c0,0.1,0.1,0.2,0.2,0.2
		c0.2,0,0.4,0,0.6,0c0.1,0,0.2-0.1,0.2-0.2c0-0.1,0-0.2,0-0.2c0-1.2,0-2.4,0-3.6c0-0.3,0-0.3,0.3-0.3c1.6,0,3.1,0,4.7,0
		c0.3,0,0.3,0,0.3,0.3c0,1.2,0,2.4,0,3.6c0,0.1,0,0.2,0,0.2c0,0.2,0,0.3,0.3,0.3c0.1,0,0.3,0,0.4,0c0.3,0,0.3,0,0.3-0.3
		c0-0.1,0-0.1,0-0.2c0-2.7,0-5.5,0-8.2c0-0.6,0.1-0.6-0.6-0.6c-0.4,0-0.4,0-0.4,0.4c0,1.1,0,2.2,0,3.2c0,0.1,0,0.2,0,0.2
		c0,0.1-0.1,0.1-0.1,0.1c-0.1,0-0.1,0-0.2,0c-1.6,0-3.1,0-4.7,0c-0.4,0-0.4,0-0.4-0.4c0-1.1,0-2.2,0-3.2c0-0.1,0-0.2,0-0.2
		c0-0.1-0.1-0.2-0.2-0.2c-0.2,0-0.4,0-0.6,0C163.4,78.9,163.3,79,163.3,79.1z"/>
	<path d="M184.5,79.7c0.1,0,0.2,0,0.2,0c1.3,0,2.7,0,4,0c0.5,0,0.5,0,0.5-0.5c0-0.3,0-0.4-0.4-0.4c-1.7,0-3.5,0-5.2,0
		c-0.3,0-0.4,0-0.4,0.4c0,1.4,0,2.9,0,4.3c0,1.4,0,2.8,0,4.2c0,0.1,0,0.2,0,0.2c0,0.1,0,0.2,0.2,0.2c0.2,0,0.4,0,0.6,0
		c0.1,0,0.2-0.1,0.2-0.2c0-0.1,0-0.2,0-0.2c0-1.2,0-2.4,0-3.6c0-0.4,0-0.4,0.3-0.4c1,0,1.9,0,2.9,0c0.3,0,0.6,0,1,0
		c0.2,0,0.3-0.1,0.2-0.2c0-0.2,0.1-0.5-0.2-0.6c0,0-0.1,0-0.1,0c-0.1,0-0.1,0-0.2,0c-1.2,0-2.3,0-3.5,0c-0.4,0-0.4,0-0.4-0.4
		c0-0.6,0-1.3,0-1.9c0-0.2,0-0.4,0-0.7C184.2,79.8,184.3,79.7,184.5,79.7z"/>
	<path d="M196.7,78.9c-0.1,0-0.2,0.1-0.2,0.2c-0.1,0.2-0.3,0.4-0.4,0.6c-0.7,1-1.3,2-2,3c-0.2,0.3-0.4,0.5-0.5,0.8
		c-0.1-0.1-0.1-0.1-0.1-0.1c-0.2-0.3-0.4-0.6-0.6-0.9c-0.7-1.1-1.4-2.2-2.2-3.3c-0.1-0.1-0.2-0.2-0.2-0.2c-0.3,0-0.6,0-0.9,0
		c0,0,0,0,0,0.1c0,0.1,0.1,0.2,0.1,0.2c0.1,0.2,0.3,0.4,0.4,0.6c0.9,1.4,1.9,2.9,2.9,4.3c0.1,0.2,0.2,0.3,0.2,0.5c0,1,0,1.9,0,2.9
		c0,0.7-0.1,0.6,0.6,0.6c0.3,0,0.4,0,0.4-0.4c0-1,0-2.1,0-3.1c0-0.2,0.1-0.4,0.2-0.6c0.4-0.6,0.8-1.2,1.3-1.9c0.7-1,1.4-2,2.1-3.1
		c0-0.1,0.1-0.1,0.1-0.3C197.3,78.9,197,78.9,196.7,78.9z"/>
	<path d="M174.9,79.8c0,0.2,0,0.3,0,0.4c0,2.5,0,5,0,7.5c0,0.1,0,0.2,0,0.3c0,0.1,0.1,0.2,0.2,0.2s0.3,0,0.4,0c0.3,0,0.3,0,0.3-0.4
		c0-0.1,0-0.1,0-0.2c0-2.5,0-5,0-7.5c0-0.1,0-0.3,0-0.4c0.2,0,0.3,0,0.4,0c0.8,0,1.7,0,2.5,0c0.3,0,0.3,0,0.3-0.3c0,0,0-0.1,0-0.1
		c0-0.4,0-0.4-0.4-0.4c-2.2,0-4.3,0-6.5,0c-0.5,0-0.5,0-0.5,0.5c0,0.4,0,0.4,0.4,0.4c0.8,0,1.7,0,2.5,0
		C174.7,79.7,174.8,79.8,174.9,79.8z"/>
	<path d="M148.9,87.4c-1.5,0-2.9,0-4.4,0c-0.1,0-0.2,0-0.4,0c0-0.2,0-0.3,0-0.4c0-2.5,0-5,0-7.6c0-0.1,0-0.2,0-0.2
		c0-0.2-0.1-0.3-0.2-0.3c-0.1,0-0.3,0-0.4,0c-0.2,0-0.3,0-0.3,0.3c0,0.1,0,0.1,0,0.2c0,2.8,0,5.6,0,8.4c0,0.1,0,0.2,0,0.2
		c0,0.1,0.1,0.2,0.2,0.2c0.1,0,0.2,0,0.2,0c1.8,0,3.6,0,5.4,0c0.4,0,0.4,0,0.4-0.4C149.3,87.4,149.3,87.4,148.9,87.4z"/>
	<path d="M150.8,78.9c-0.4,0-0.4,0-0.4,0.4c0,1.4,0,2.9,0,4.3c0,1.4,0,2.7,0,4.1c0,0.6,0,0.5,0.5,0.5c0.4,0,0.4,0,0.4-0.4
		c0-2.8,0-5.5,0-8.3C151.4,78.9,151.5,78.9,150.8,78.9z"/>
	<path d="M180.6,78.9c-0.3,0-0.3,0-0.3,0.4c0,1.4,0,2.9,0,4.3c0,1.4,0,2.8,0,4.2c0,0.1,0,0.2,0,0.2c0,0.2,0.1,0.2,0.2,0.2
		c0.1,0,0.3,0,0.4,0c0.3,0,0.3,0,0.3-0.3c0,0,0-0.1,0-0.1c0-2.8,0-5.6,0-8.4c0-0.1,0-0.1,0-0.2c0-0.1-0.1-0.2-0.2-0.2
		C180.8,78.9,180.7,78.9,180.6,78.9z"/>
	<path d="M334.4,14.2c-46.4-7.1-104.7-11-164.3-11S52.2,7.1,5.8,14.2l-2.9,0.4V34L5,34.9c2.5,1.1,5.6,0.9,8.4,0.8
		c1.1,0.2,2.3,0.4,3.5,0.6c0,2.8,0.1,5.7,0.1,8.5c0,0.1,0,0.1,0,0.2c1.4,45.1,12.1,85.4,31.8,119.7C66.2,195,85,210.3,89.1,213.4
		v34.3l0.9,0.5c2.6,1.6,5.4,3.1,8.3,4.5c0.4,16.1,0.8,26.9,1.1,36.4c0.3,7.5,0.5,14.6,0.7,23c0.1,2.7,0.6,4.1,2.4,5.9
		c1.6,1.6,3.6,3.9,5.8,6.4c8.1,9.3,13.7,15.5,19.3,15.5h2.9V355h-6.3v17.9l0.8,0.2c0.6,0.1,1.3,0.3,1.9,0.4c0.2,0,0.5,0.1,0.7,0.1
		c0.4,0.1,0.8,0.1,1.1,0.2c0.1,0,0.2,0,0.3,0.1c0.4,0.1,0.7,0.1,1.1,0.2c0.1,0,0.1,0,0.2,0c1.7,0.2,3.3,0.4,5,0.5
		c1.3,0.1,2.5,0.1,3.8,0.1c3.6,0,7.1-0.3,10.7-0.9c1.2-0.2,2.4-0.4,3.5-0.7l0,0l0.8-0.2V355h-6.3v-15.3h44.5V355H186v17.9l0.8,0.2
		c0.6,0.1,1.3,0.3,1.9,0.4c0.2,0,0.5,0.1,0.7,0.1c0.4,0.1,0.8,0.1,1.1,0.2c0.1,0,0.2,0,0.3,0.1c0.4,0.1,0.7,0.1,1.1,0.2
		c0.1,0,0.1,0,0.2,0c1.7,0.2,3.3,0.4,5,0.5c1.3,0.1,2.5,0.1,3.8,0.1c3.6,0,7.1-0.3,10.7-0.9c0.4-0.1,0.9-0.2,1.3-0.2
		c0.1,0,0.3,0,0.4-0.1c0.6-0.1,1.2-0.2,1.8-0.4l0.8-0.2V355h-6.3v-15.3h2.9c3,0,6.2-1.8,10.6-5.8c3.2-3,6.6-6.8,9.5-10.1
		c2-2.3,4-4.5,5.5-6c1.8-1.8,2.3-3.1,2.4-5.9c0.2-7.5,0.5-13.9,0.9-20.7c0.5-10.3,1.1-22,1.4-40.3c2.5-1.1,5-2.3,7.5-3.5l1-0.5V213
		l0.4,0.5c2.3-1.7,8.6-6.9,17.3-17.3c9.9-11.8,24.1-32,35.6-60.5c12.4-30.9,18.7-64.5,18.8-99.9c0.9-0.1,2.4,0,3.4,0
		c2.7,0.1,5.9,0.3,8.4-0.8l2.1-0.9V14.6L334.4,14.2z M330.4,28.8c-1,0-2.2,0-3.3-0.1c-0.6,0-1.2-0.1-1.8-0.1
		c-44.8-6.2-99.5-9.7-155.2-9.7c-55.7,0-110.4,3.4-155.2,9.6c-0.6,0-1.2,0-1.8,0.1c-1,0-2.2,0.1-3.3,0.1v-8.3
		c45.6-6.7,102.3-10.4,160.3-10.4s114.7,3.7,160.3,10.4V28.8z M38.1,124.7c1.6,4.1,3.4,8.3,5.2,12.5c6.2,14.1,12.8,26.1,18.7,35.8
		c-2.5-3.7-4.9-7.6-7.3-11.7C48.2,149.7,42.6,137.5,38.1,124.7z M234.6,290.9c-0.3,6.8-0.7,13.3-0.9,20.9c0,0.4,0,0.7,0,0.8
		c-0.1,0.1-0.1,0.2-0.3,0.3c-0.1,0.1-0.3,0.3-0.4,0.4c-10,2.3-30.1,3.4-62.9,3.4c-30.7,0-51.1-1-61.8-2.9c-0.3-0.3-0.6-0.6-0.8-0.9
		c-0.2-0.2-0.3-0.3-0.3-0.3c0-0.1,0-0.3,0-0.8c-0.2-8.4-0.5-15.5-0.7-23.1c-0.3-8.8-0.7-18.8-1.1-33c18.8,7.7,41.3,12,63.9,12
		c0,0,0,0,0.1,0c21.4,0,44.3-4.7,66.6-13.7C235.7,270.4,235.1,281.3,234.6,290.9z M256.4,199.7c-4.6,4.8-7.2,8.1-8.3,9l0,0
		c-22.4,8.1-48.2,12-78.8,12c0,0-0.1,0-0.1,0c-29.8,0-55.4-3.8-76.4-11.2l0,0c-0.1-0.1-0.3-0.2-0.5-0.3c-2.8-2.1-5-6.2-8.4-9.5
		c1.9-0.8,4.3-2.2,7.8-4.4c13.7-8.9,36.7-20.7,78.4-20.7c41.8,0,64.8,11.8,78.4,20.7l0,0C252.1,197.6,254.5,199,256.4,199.7z
		 M247.9,244.8c-22.4,8-48.1,12-78.5,12c0,0-0.1,0-0.1,0c-29.9,0-55.7-3.8-76.7-11.3v-32.3c21.1,7.3,46.9,11.1,76.7,11.1
		c0,0,0.1,0,0.1,0c30.3,0,56-3.8,78.5-11.7V244.8z M221.4,255.6c-17.6,5.7-35.4,8.7-52.1,8.7c0,0,0,0-0.1,0
		c-20.3,0-40.4-3.4-57.7-9.8c17,3.8,36.3,5.7,57.7,5.7c0,0,0.1,0,0.1,0C188.4,260.2,205.7,258.7,221.4,255.6z M128.2,357.1v14.5
		c-0.3,0-0.5-0.1-0.8-0.1c-0.2,0-0.4-0.1-0.7-0.1c-0.2,0-0.3-0.1-0.5-0.1v-14.1H128.2z M152.2,357.1v14.1c-0.1,0-0.3,0.1-0.4,0.1
		c-0.4,0.1-0.8,0.2-1.3,0.2c-0.2,0-0.5,0.1-0.7,0.1c-0.5,0.1-1,0.2-1.4,0.2c-0.2,0-0.3,0.1-0.5,0.1c-0.6,0.1-1.3,0.2-1.9,0.2
		c-0.2,0-0.5,0-0.7,0.1c-0.4,0-0.8,0.1-1.1,0.1c-0.3,0-0.7,0-1,0.1c-0.3,0-0.6,0-0.9,0c-0.4,0-0.8,0-1.1,0c-0.2,0-0.4,0-0.6,0
		c-0.4,0-0.9,0-1.3,0c0,0-0.1,0-0.1,0c-0.9,0-1.8,0-2.6-0.1v-15.4h11.5H152.2z M145.8,355h-7.4v-15.3h6.1h1.3V355z M190,357.1v14.5
		c-0.3,0-0.5-0.1-0.8-0.1c-0.2,0-0.4-0.1-0.7-0.1c-0.2,0-0.3-0.1-0.5-0.1v-14.1H190z M214,357.1v14.1c-0.1,0-0.3,0.1-0.4,0.1
		c-0.4,0.1-0.8,0.2-1.2,0.2c-0.2,0-0.5,0.1-0.7,0.1c-0.5,0.1-0.9,0.1-1.4,0.2c-0.2,0-0.4,0.1-0.5,0.1c-0.6,0.1-1.2,0.2-1.9,0.2
		c-0.3,0-0.5,0-0.8,0.1c-0.4,0-0.7,0.1-1.1,0.1c-0.3,0-0.7,0-1,0.1c-0.3,0-0.5,0-0.8,0c-0.4,0-0.8,0-1.2,0c-0.2,0-0.4,0-0.6,0
		c-0.4,0-0.9,0-1.3,0c0,0-0.1,0-0.1,0c-0.9,0-1.8,0-2.7-0.1v-15.4h11.5H214z M207.7,355h-7.4v-15.3h7.4V355z M218.5,328.9
		c-4.2,3.8-5.7,4-5.9,4h-68.2h-16.9c-0.2,0-1.6-0.1-5.4-3.7c-2.8-2.6-5.9-6.2-8.6-9.3c-1-1.2-2.1-2.4-3-3.5
		c11.5,1.7,31.1,2.5,59.6,2.5c30,0,49.5-1,60.4-2.9c-0.9,1-1.9,2.2-3,3.3C224.7,322.5,221.5,326.1,218.5,328.9z M298.1,133
		c-11.1,27.7-24.9,47.2-34.5,58.6c-1.7,2-3.2,3.7-4.7,5.3c-1.9-0.5-4.8-2.2-8.5-4.6l-0.3,0.4c0,0,0,0,0,0l0.3-0.4
		c-14-9.1-37.7-21.2-80.3-21.2c-42.7,0-66.3,12.1-80.3,21.2c-3.7,2.4-6.7,4.1-8.6,4.6c-5.1-5.3-10.6-11.8-16.1-19.5
		c-6.6-10.5-14.3-24.1-21.6-40.5c-2.8-6.2-5.3-12.4-7.6-18.6c-7.2-22.7-11.3-47.4-12.1-73.8l0-0.4l0,0c-0.1-3.2-0.1-6.4-0.1-9.5
		c0-1.6-0.6-2.8-1.2-3.6c43.2-5.6,94.9-8.6,147.5-8.6c52.6,0,104.3,3.1,147.5,8.7c-0.6,0.8-1.2,2-1.2,3.6
		C316.5,69.6,310.3,102.7,298.1,133z"/>
</g>
</svg>
