<?xml version="1.0" encoding="utf-8"?>
<!-- Generator: Adobe Illustrator 21.0.0, SVG Export Plug-In . SVG Version: 6.00 Build 0)  -->
<svg version="1.1" id="Layer_1" xmlns="http://www.w3.org/2000/svg" xmlns:xlink="http://www.w3.org/1999/xlink" x="0px" y="0px"
	 viewBox="0 0 188.9 500.8" style="enable-background:new 0 0 188.9 500.8;" xml:space="preserve">
<g>
	<polygon points="95.2,319.9 97.7,322.2 105.2,313.5 102.9,311.3 	"/>
	<path d="M104.5,307.9l-0.6,1.7c1.4,0.5,2.4,1.5,3,3l1.7-0.6C107.9,310,106.6,308.6,104.5,307.9z"/>
	<path d="M105.5,305.4l-0.6,1.7c1.1,0.4,2,1,2.8,1.7c0.8,0.8,1.3,1.7,1.7,2.8l1.7-0.6c-0.5-1.4-1.2-2.6-2.2-3.5
		C108.1,306.6,106.9,305.9,105.5,305.4z"/>
	<polygon points="94.2,323.9 94.2,323.9 86.5,315.4 84.2,317.5 90.7,325.1 90.7,344.3 94.2,344.3 94.2,324 94.2,324 94.2,324 	"/>
	<rect x="90.7" y="296.5" width="3.5" height="20.9"/>
	<path d="M72.9,259.6c0.8,0.5,1.6,0.7,2.6,0.6c0.5,0,0.9-0.1,1.3-0.3c1.1-0.4,1.8-1.1,2.2-2.1c0.3-0.7,0.4-1.5,0.4-2.3
		c0-0.8-0.2-1.6-0.6-2.4c-0.5-1-1.3-1.7-2.4-1.9c-0.2,0-0.3-0.1-0.5-0.1c-0.4,0-0.9,0-1.3,0c-0.2,0-0.3,0.1-0.5,0.1
		c-0.6,0.1-1.1,0.4-1.5,0.8c-0.9,0.7-1.3,1.7-1.5,2.8c0,0,0,0.1,0,0.1c0,0.5,0,1,0,1.4c0.1,0.3,0.1,0.5,0.2,0.8
		C71.5,258.2,72.1,259,72.9,259.6z M73.2,255.2c0.1-0.4,0.2-0.8,0.4-1.2c0.4-0.7,1-1,1.7-1c0.8,0,1.4,0.4,1.8,1.2
		c0.2,0.5,0.3,1,0.3,1.6c0,0.6-0.1,1.1-0.4,1.6c-0.4,0.7-0.9,1.1-1.7,1.1c-0.7,0-1.3-0.3-1.7-1C73.2,256.7,73.1,255.9,73.2,255.2z"
		/>
	<path d="M81.9,260c0.7,0.2,1.4,0.3,2.1,0.2c0.6-0.1,1.1-0.2,1.7-0.5c0.5-0.3,0.9-0.7,1.2-1.2c0.2-0.5,0.3-1,0.2-1.5
		c-0.1-0.5-0.3-1-0.7-1.4c-0.4-0.3-0.8-0.6-1.3-0.7c-0.7-0.2-1.3-0.4-2-0.5c-0.2-0.1-0.4-0.1-0.6-0.2c-0.4-0.2-0.4-0.6-0.2-0.9
		c0.1-0.2,0.3-0.3,0.6-0.3c0.4-0.1,0.7-0.1,1.1-0.1c0.5,0.1,0.9,0.4,1,1c0,0.2,0,0.2,0.2,0.2c0.5,0,1,0,1.5,0c0.4,0,0.5,0,0.4-0.5
		c0,0,0,0,0,0c-0.2-1.1-0.9-1.9-1.9-2.3c-0.3-0.1-0.6-0.2-0.9-0.2c-0.4,0-0.8,0-1.3,0c0,0-0.1,0-0.1,0c-0.3,0.1-0.7,0.2-1,0.3
		c-0.6,0.2-1.1,0.6-1.4,1.2c-0.3,0.5-0.4,1-0.3,1.6c0.1,0.6,0.4,1.1,0.8,1.4c0.5,0.4,1.1,0.6,1.7,0.7c0.5,0.1,1,0.2,1.5,0.4
		c0.3,0.1,0.5,0.2,0.7,0.3c0.2,0.1,0.3,0.3,0.2,0.6c-0.1,0.4-0.3,0.6-0.7,0.8c-0.4,0.1-0.8,0.1-1.2,0c-0.6-0.2-1.1-0.5-1.2-1.1
		c0-0.1-0.1-0.2-0.2-0.2c-0.6,0-1.1,0-1.7,0c-0.1,0-0.2,0-0.2,0.2c0,0.1,0,0.3,0,0.4C80.2,258.9,80.8,259.7,81.9,260z"/>
	<path d="M104.2,260c0.6,0,1.2,0,1.8,0c0.2,0,0.2,0,0.2-0.2c0-0.1,0-0.1,0-0.2c0-1.3,0-2.6,0-3.9c0-0.1,0-0.2,0-0.2c0,0,0,0,0,0
		c0.6,1.1,1.3,2.2,2,3.3c0.7-1.1,1.4-2.2,2-3.3c0,0,0,0,0,0c0,0.1,0,0.2,0,0.2c0,1.3,0,2.7,0,4c0,0.2,0,0.2,0.2,0.2
		c0.6,0,1.2,0,1.7,0c0.2,0,0.2,0,0.2-0.2c0-2.7,0-5.5,0-8.2c0-0.2,0-0.3-0.2-0.3c-0.6,0-1.2,0-1.8,0c-0.2,0-0.2,0.1-0.3,0.2
		c-0.6,1-1.2,2.1-1.8,3.1c0,0.1-0.1,0.1-0.1,0.2c-0.2-0.3-0.4-0.6-0.5-0.9c-0.5-0.8-0.9-1.6-1.4-2.4c-0.1-0.1-0.2-0.2-0.3-0.2
		c-0.6,0-1.1,0-1.7,0c-0.3,0-0.3,0-0.3,0.3c0,2.7,0,5.3,0,8c0,0,0,0.1,0,0.1C104,260,104.1,260,104.2,260z"/>
	<path d="M88.2,260c0.5,0,1,0,1.6,0c0.3,0,0.3,0,0.3-0.3c0-0.7,0-1.5,0-2.2c0-0.1,0-0.2,0-0.3c0.1,0,0.1,0,0.2,0c0.3,0,0.6,0,0.8,0
		c0.2,0,0.2,0.1,0.3,0.2c0.1,0.3,0.3,0.6,0.4,0.8c0.2,0.5,0.5,1,0.7,1.5c0.1,0.1,0.2,0.2,0.3,0.2c0.6,0,1.2,0,1.8,0
		c0.1,0,0.1,0,0.2,0c-0.5-1-0.9-1.9-1.4-2.8c0-0.1,0.1-0.1,0.1-0.1c0,0,0.1,0,0.1-0.1c0.5-0.3,0.9-0.7,1.2-1.2
		c0.3-0.6,0.4-1.2,0.3-1.8c-0.1-0.6-0.3-1.2-0.7-1.7c-0.5-0.6-1.1-1-1.9-1c-1.5,0-2.9,0-4.4,0c-0.2,0-0.2,0-0.2,0.2
		c0,2.7,0,5.5,0,8.2C88,260,88,260,88.2,260z M90,253.4c0-0.2,0-0.2,0.2-0.2c0.6,0,1.3,0,1.9,0c0.4,0,0.6,0.2,0.8,0.6
		c0.3,0.6,0.1,1.4-0.5,1.6c-0.1,0-0.2,0.1-0.3,0.1c-0.3,0-0.6,0-0.9,0c-0.3,0-0.6,0-1,0c-0.2,0-0.2,0-0.2-0.2
		C90,254.6,90,254,90,253.4z"/>
	<path d="M95,260c0,0,0.1,0,0.1,0c0.6,0,1.3,0,1.9,0c0.1,0,0.2-0.1,0.2-0.1c0.1-0.4,0.3-0.8,0.4-1.2c0-0.1,0.1-0.2,0.3-0.2
		c1,0,2,0,3,0c0.1,0,0.2,0.1,0.2,0.2c0.1,0.4,0.3,0.7,0.4,1.1c0.1,0.2,0.1,0.2,0.3,0.2c0.6,0,1.2,0,1.7,0c0.1,0,0.1,0,0.2,0
		c0-0.1-0.1-0.2-0.1-0.3c-0.3-0.9-0.7-1.9-1-2.8c-0.5-1.4-1-2.7-1.5-4.1c-0.2-0.4-0.3-0.8-0.5-1.3c-0.1-0.1-0.1-0.2-0.3-0.2
		c-0.7,0-1.4,0-2.1,0c-0.1,0-0.2,0.1-0.2,0.2c-0.3,0.7-0.5,1.4-0.8,2.1c-0.3,0.9-0.6,1.8-1,2.7c-0.4,1.2-0.8,2.3-1.3,3.4
		C95,259.8,95,259.9,95,260z M99.3,253.7C99.3,253.7,99.4,253.7,99.3,253.7c0.4,1,0.7,2,1.1,3c-0.7,0-1.4,0-2.1,0
		C98.6,255.7,99,254.7,99.3,253.7z"/>
	<path d="M84.6,271.1c0,0.1,0,0.1,0,0.1c0,0.3,0,0.5,0.1,0.8c0,0.1,0,0.2,0.1,0.2c0.1,0,0.3,0,0.4,0c0,0,0.1-0.2,0.1-0.2
		c0-1,0-2,0-3.1c0-0.3,0-0.3-0.3-0.3c-0.8,0-1.6,0-2.4,0c-0.4,0-0.4-0.1-0.4,0.4c0,0.2,0,0.2,0.2,0.2c0.1,0,0.1,0,0.2,0
		c0.6,0,1.2,0,1.8,0c0.2,0,0.3,0,0.2,0.2c0,0.2-0.1,0.5-0.1,0.7c-0.2,0.6-0.5,1-1.1,1.3c-0.5,0.3-1.1,0.3-1.7,0.2
		c-0.6-0.1-1.1-0.4-1.5-0.9c-0.5-0.6-0.6-1.4-0.6-2.1c0-0.4,0.1-0.9,0.3-1.3c0.2-0.6,0.6-1.1,1.2-1.4c0.4-0.2,0.9-0.3,1.3-0.2
		c0.5,0,1,0.2,1.4,0.6c0.3,0.3,0.5,0.6,0.6,1c0,0.1,0,0.2,0.1,0.2c0.2,0,0.4,0,0.6,0c0-0.1,0-0.1,0-0.1c0-0.1,0-0.1,0-0.2
		c-0.3-1-0.9-1.7-1.9-2c-0.5-0.1-1-0.2-1.5-0.1c-1.2,0.2-2,0.8-2.4,1.9c-0.5,1.1-0.5,2.3-0.1,3.4c0.4,1.1,1.2,1.8,2.4,2
		c0.3,0.1,0.6,0.1,0.9,0c0.7,0,1.3-0.3,1.7-0.7C84.3,271.5,84.4,271.3,84.6,271.1z"/>
	<path d="M86.6,265.3c0,0.1,0,0.1,0,0.2c0,1.1,0,2.1,0,3.2c0,1.1,0,2.1,0,3.2c0,0.1,0,0.1,0,0.2c0,0.1,0,0.2,0.1,0.2
		c0.1,0,0.3,0,0.4,0c0.1,0,0.1-0.1,0.1-0.2c0-0.1,0-0.1,0-0.2c0-0.9,0-1.8,0-2.8c0-0.3,0-0.3,0.2-0.3c1.2,0,2.4,0,3.6,0
		c0.2,0,0.3,0,0.3,0.3c0,0.9,0,1.8,0,2.7c0,0.1,0,0.1,0,0.2c0,0.2,0,0.2,0.2,0.2c0.1,0,0.2,0,0.3,0c0.2,0,0.2,0,0.2-0.2
		c0,0,0-0.1,0-0.1c0-2.1,0-4.1,0-6.2c0-0.5,0.1-0.4-0.4-0.4c-0.3,0-0.3,0-0.3,0.3c0,0.8,0,1.6,0,2.4c0,0.1,0,0.1,0,0.2
		c0,0-0.1,0.1-0.1,0.1c0,0-0.1,0-0.2,0c-1.2,0-2.4,0-3.5,0c-0.3,0-0.3,0-0.3-0.3c0-0.8,0-1.6,0-2.4c0-0.1,0-0.1,0-0.2
		c0-0.1-0.1-0.1-0.1-0.1c-0.1,0-0.3,0-0.4,0C86.7,265.2,86.6,265.3,86.6,265.3z"/>
	<path d="M102.4,266c0-0.2,0-0.2,0.2-0.2c0.1,0,0.1,0,0.2,0c1,0,2,0,3,0c0.4,0,0.4,0,0.4-0.4c0-0.3,0-0.3-0.3-0.3c-1.3,0-2.6,0-4,0
		c-0.3,0-0.3,0-0.3,0.3c0,1.1,0,2.2,0,3.2c0,1.1,0,2.1,0,3.2c0,0.1,0,0.1,0,0.2c0,0.1,0,0.1,0.1,0.1c0.1,0,0.3,0,0.4,0
		c0.1,0,0.1-0.1,0.1-0.1c0-0.1,0-0.1,0-0.2c0-0.9,0-1.8,0-2.7c0-0.3,0-0.3,0.3-0.3c0.7,0,1.5,0,2.2,0c0.2,0,0.5,0,0.7,0
		c0.1,0,0.2-0.1,0.2-0.2c0-0.2,0.1-0.4-0.1-0.4c0,0-0.1,0-0.1,0c-0.1,0-0.1,0-0.2,0c-0.9,0-1.8,0-2.7,0c-0.3,0-0.3,0-0.3-0.3
		c0-0.5,0-1,0-1.4C102.4,266.4,102.4,266.2,102.4,266z"/>
	<path d="M111.8,265.2c-0.1,0-0.1,0.1-0.2,0.1c-0.1,0.1-0.2,0.3-0.3,0.5c-0.5,0.8-1,1.5-1.5,2.3c-0.1,0.2-0.3,0.4-0.4,0.6
		c-0.1-0.1-0.1-0.1-0.1-0.1c-0.1-0.2-0.3-0.5-0.4-0.7c-0.5-0.8-1.1-1.7-1.6-2.5c0-0.1-0.1-0.2-0.2-0.2c-0.2,0-0.5,0-0.7,0
		c0,0,0,0,0,0.1c0,0.1,0.1,0.1,0.1,0.2c0.1,0.2,0.2,0.3,0.3,0.5c0.7,1.1,1.4,2.2,2.2,3.2c0.1,0.1,0.1,0.3,0.1,0.4c0,0.7,0,1.5,0,2.2
		c0,0.5-0.1,0.5,0.5,0.5c0.3,0,0.3,0,0.3-0.3c0-0.8,0-1.6,0-2.4c0-0.2,0-0.3,0.1-0.5c0.3-0.5,0.6-0.9,1-1.4c0.5-0.8,1-1.5,1.6-2.3
		c0-0.1,0.1-0.1,0.1-0.2C112.3,265.2,112.1,265.2,111.8,265.2z"/>
	<path d="M95.4,266.2c0,1.9,0,3.8,0,5.7c0,0.1,0,0.1,0,0.2c0,0.1,0,0.1,0.1,0.1c0.1,0,0.2,0,0.3,0c0.3,0,0.3,0,0.3-0.3
		c0-0.1,0-0.1,0-0.2c0-1.9,0-3.8,0-5.7c0-0.1,0-0.2,0-0.3c0.1,0,0.2,0,0.3,0c0.6,0,1.3,0,1.9,0c0.2,0,0.2,0,0.2-0.2c0,0,0-0.1,0-0.1
		c0-0.3,0-0.3-0.3-0.3c-1.6,0-3.3,0-4.9,0c-0.4,0-0.4,0-0.4,0.4c0,0.3,0,0.3,0.3,0.3c0.6,0,1.3,0,1.9,0c0.1,0,0.2,0,0.3,0
		C95.4,266,95.4,266.1,95.4,266.2z"/>
	<path d="M75.7,271.6c-1.1,0-2.2,0-3.3,0c-0.1,0-0.2,0-0.3,0c0-0.1,0-0.2,0-0.3c0-1.9,0-3.8,0-5.7c0-0.1,0-0.1,0-0.2
		c0-0.1,0-0.2-0.2-0.2c-0.1,0-0.2,0-0.3,0c-0.2,0-0.2,0-0.2,0.2c0,0,0,0.1,0,0.1c0,2.1,0,4.3,0,6.4c0,0.1,0,0.1,0,0.2
		c0,0.1,0,0.1,0.1,0.1c0.1,0,0.1,0,0.2,0c1.3,0,2.7,0,4,0c0.3,0,0.3,0,0.3-0.3C76,271.6,76,271.6,75.7,271.6z"/>
	<path d="M77.2,265.2c-0.3,0-0.3,0-0.3,0.3c0,1.1,0,2.2,0,3.2c0,1,0,2.1,0,3.1c0,0.5,0,0.4,0.4,0.4c0.3,0,0.3,0,0.3-0.3
		c0-2.1,0-4.2,0-6.2C77.6,265.2,77.7,265.2,77.2,265.2z"/>
	<path d="M99.9,272.2c0.2,0,0.2,0,0.2-0.2c0,0,0-0.1,0-0.1c0-2.1,0-4.2,0-6.4c0-0.1,0-0.1,0-0.2c0-0.1,0-0.2-0.2-0.2
		c-0.1,0-0.2,0-0.3,0c-0.3,0-0.3,0-0.3,0.3c0,1.1,0,2.2,0,3.2c0,1.1,0,2.1,0,3.2c0,0.1,0,0.1,0,0.2c0,0.1,0,0.2,0.2,0.2
		C99.7,272.2,99.8,272.2,99.9,272.2z"/>
	<path d="M186.6,244.4c0-74.8-18.4-149-36.7-189.4C130,10.9,107.4,3.2,95,2.8l-1.1,0v0C81.5,3.2,58.9,10.9,39,55
		C20.7,95.4,2.3,169.7,2.3,244.4c0,56.6,17.1,102.5,50.8,136.3l0.4-0.4l-0.1,18c0.8,1.8,1.4,3.6,2.5,5.1v0c0.2,0.3,0.4,0.6,0.5,0.8
		c0.7,1.1,1.3,2.4,1.8,3.6c0.4,1.1,0.7,2.2,0.9,3.2l0,0.1l0,0.1c0.6,2.2,1.1,5,1.5,8.3c0.5,3.7,0.8,7.8,1.1,12.3
		c0.3,4.9,0.5,10,0.6,15c0.1,5.6,0.1,11.1,0,16.1l0,1.7l0.2,0l9.8,14.6h-0.1l3.3,4l8.6,10.3l0,0l0.2,0.2c1.6,1.9,3.2,3.7,11.3,4.1
		h0.1c8.1-0.4,9.7-2.3,11.3-4.1l0.2-0.2l0,0l8.6-10.3l3.3-4h0l10.1-14.6h-0.1l0-1.7c-0.1-4.9-0.1-10.5,0-16.1c0.1-5,0.3-10.1,0.6-15
		c0.3-4.5,0.6-8.7,1.1-12.3c0.4-3.3,0.9-6.1,1.5-8.3l0-0.1l0-0.1c0.2-1.1,0.5-2.2,0.9-3.2c0.5-1.2,1.1-2.5,1.8-3.6
		c0.1-0.2,0.3-0.5,0.5-0.9c0.9-1.5,1.9-2.9,2.7-4.5l0.2-18.7v-2.4C170.5,344.2,186.6,299.4,186.6,244.4z M44.4,57.5
		C51,43,69,9.3,94.4,8.8c25.5,0.5,43.4,34.2,50,48.7c17.4,38.5,34.9,108.1,36.1,179.4c-3.7-0.8-10.5-1.6-22.9-2.4
		c-16.9-1-39.3-1.6-63.1-1.6c-23.9,0-46.3,0.6-63.1,1.6c-12.4,0.8-19.2,1.6-23,2.4C9.5,165.6,27.1,96,44.4,57.5z M8.3,244.4
		c0-1.5,0-3,0-4.5c7.8-1.9,38.4-4,86.1-4c47.7,0,78.3,2.2,86.1,4c0,1.5,0,3,0,4.5c0,54.9-16.4,99.2-48.9,131.9
		c-36.4,5.7-68.5,1.5-74.7,0.5l0.4-0.4C24.8,343.8,8.3,299.4,8.3,244.4z M105.2,490.9l-0.2,0.3c-1.1,1.3-2.3,2.7-9.1,3
		c-6.9-0.4-8-1.7-9.1-3l-0.2-0.3l-5.6-6.6c0.9,0.1,1.8,0.1,2.8,0.2c1.8,0.1,3.7,0.1,5.8,0.2c2,0,4.2,0.1,6.3,0.1
		c2.2,0,4.3,0,6.3-0.1c2.1,0,4-0.1,5.8-0.2c1,0,1.9-0.1,2.8-0.2L105.2,490.9z M130.5,405.4c-0.2,0.4-0.4,0.9-0.6,1.3
		c-0.5,1.3-0.9,2.6-1.1,3.9c-0.6,2.3-1.1,5.3-1.5,8.7c-0.4,3.7-0.8,7.9-1.1,12.4c-0.3,4.7-0.5,9.8-0.6,14.9
		c-0.1,4.9-0.1,9.7-0.1,14.2l-1.3,0.1c-1.1,0.1-2,0.2-3,0.3c-1.3,0.1-2.5,0.2-3.7,0.3c-1.4,0.1-2.7,0.2-3.9,0.2
		c-1.5,0.1-2.9,0.1-4.3,0.2c-1.5,0.1-3,0.1-4.4,0.2c-1.6,0.1-3.1,0.1-4.5,0.1c-1.5,0-3.1,0.1-4.5,0.1c-1.5,0-3,0-4.5-0.1
		c-1.5,0-3-0.1-4.5-0.1c-1.4-0.1-2.9-0.1-4.4-0.2c-1.4-0.1-2.8-0.1-4.3-0.2c-1.3-0.1-2.6-0.2-3.9-0.2c-1.2-0.1-2.5-0.2-3.8-0.3
		c-0.9-0.1-1.9-0.2-2.9-0.3l-1.3-0.1c0-3.1,0-6.4,0-9.7c3.5,0.4,7.4,0.7,11.4,1c7.3,0.5,14.9,0.6,21.4,0.6v-2.9
		c-6.6,0-14.2-0.2-21.3-0.6c-4-0.3-7.9-0.6-11.5-1c0-0.5,0-1,0-1.6c0-2.4-0.1-4.8-0.2-7.1c3.6,0.4,7.6,0.8,11.7,1
		c7.3,0.5,14.9,0.6,21.4,0.6v-2.9c-6.6,0-14.2-0.2-21.3-0.6c-4.2-0.3-8.2-0.6-11.9-1.1c-0.1-1.7-0.2-3.3-0.2-4.9
		c-0.1-1.3-0.2-2.6-0.3-3.9c3.8,0.5,8,0.8,12.3,1.1c7.3,0.5,14.9,0.6,21.4,0.6v-2.9c-6.6,0-14.2-0.2-21.3-0.6
		c-4.4-0.3-8.8-0.7-12.6-1.2c-0.2-1.9-0.4-3.8-0.6-5.5c-0.1-1.1-0.3-2.2-0.5-3.3c4.1,0.6,8.8,1,13.6,1.3c7.3,0.5,14.9,0.6,21.4,0.6
		v-2.9c-6.6,0-14.2-0.2-21.3-0.6c-5.1-0.3-10-0.8-14.2-1.4c-0.2-0.9-0.4-1.7-0.6-2.4c-0.2-1.3-0.6-2.6-1.1-3.9
		c-0.2-0.5-0.4-1-0.7-1.5c-0.1-0.3-0.2-0.6-0.3-0.8l1.1,0.2c1.9,0.3,3.9,0.5,5.9,0.7c4,0.4,8.4,0.7,12.9,0.9
		c5.1,0.2,10.2,0.4,15,0.4h0c4.8,0,9.9-0.2,15-0.4c4.5-0.2,9-0.5,12.9-0.9c2.1-0.2,4.1-0.4,6-0.7l1.1-0.2
		C130.7,404.7,130.6,405.1,130.5,405.4z M134.5,397.4c-0.2,0.4-0.5,0.8-0.7,1.2c-0.2,0.4-0.5,0.8-0.7,1.2c-1,0.2-2,0.3-3,0.5
		c-1.9,0.3-3.9,0.5-6,0.7c-4.1,0.4-8.6,0.7-13.1,0.9c-5.2,0.2-10.4,0.3-15.2,0.4c-4.8-0.1-10-0.2-15.2-0.4
		c-4.5-0.2-8.9-0.5-13.1-0.9c-2.1-0.2-4.1-0.4-5.9-0.7c-1.1-0.2-2.1-0.3-3-0.5c-0.2-0.4-0.5-0.8-0.7-1.2c-0.1-0.2-0.3-0.4-0.4-0.7
		l0-17c8.7,1.2,41.2,5,77.2-1.1L134.5,397.4z"/>
</g>
</svg>
