<?xml version="1.0" encoding="utf-8"?>
<!-- Generator: Adobe Illustrator 17.0.0, SVG Export Plug-In . SVG Version: 6.00 Build 0)  -->
<!DOCTYPE svg PUBLIC "-//W3C//DTD SVG 1.1//EN" "http://www.w3.org/Graphics/SVG/1.1/DTD/svg11.dtd">
<svg version="1.1" id="Layer_1" xmlns="http://www.w3.org/2000/svg" xmlns:xlink="http://www.w3.org/1999/xlink" x="0px" y="0px"
	 width="1001.558px" height="221.439px" viewBox="0 0 1001.558 221.439" enable-background="new 0 0 1001.558 221.439"
	 xml:space="preserve">
<path d="M899.11,90.487c5.639-9.231,10.829-17.676,15.97-26.152c11.031-18.188,21.972-36.431,33.161-54.52
	c0.993-1.605,3.498-3.143,5.353-3.207c14.134-0.49,28.285-0.491,42.423-0.906c4.23-0.124,5.383,1.495,5.381,5.515
	c-0.029,66.312,0.037,132.624,0.161,198.936c0.007,3.77-1.062,5.245-5.147,5.165c-13.158-0.258-26.328-0.286-39.484,0.006
	c-4.628,0.103-6.052-1.363-6.043-5.932c0.059-32.981-0.088-65.962-0.203-98.943c-0.008-2.232-0.291-4.464-0.447-6.695
	c-0.545-0.188-1.091-0.377-1.636-0.565c-16.035,26.987-32.07,53.974-48.627,81.839c-16.563-26.752-32.669-52.766-48.776-78.781
	c-0.503,0.123-1.006,0.246-1.51,0.368c-0.12,1.839-0.344,3.678-0.345,5.518c-0.011,32.323-0.086,64.647,0.116,96.97
	c0.03,4.743-1.194,6.345-6.106,6.229c-13.488-0.32-26.991-0.238-40.484-0.035c-4.006,0.06-5.567-0.964-5.537-5.266
	c0.161-22.765,0.024-45.532,0.025-68.298c0.002-40.089,0.029-80.179,0.047-120.268c0.002-3.637,0.204-7.288-0.035-10.909
	c-0.28-4.238,1.93-5.024,5.507-4.872c8.308,0.353,16.623,0.581,24.938,0.739c5.829,0.111,11.683,0.318,17.487-0.077
	c3.996-0.272,6.075,1.485,7.869,4.641c14.208,24.999,28.481,49.96,42.76,74.918C896.701,87.257,897.704,88.477,899.11,90.487z"/>
<path d="M408.896,6.46c2.494,0,4.44,0,6.386,0c33.149,0.001,66.312,0.606,99.442-0.181c28.27-0.671,52.564,18.91,61.253,45.457
	c6.761,20.656,6.242,41.271-3.573,61.144c-6.411,12.98-16.386,22.455-28.945,29.394c-1.443,0.797-2.784,1.781-4.162,2.695
	c-0.119,0.079-0.156,0.284-0.573,1.101c11.098,22.429,22.398,45.266,34.025,68.765c-2.15,0.149-3.717,0.349-5.284,0.352
	c-14.159,0.03-28.319-0.057-42.477,0.089c-3.374,0.035-5.328-0.771-6.864-4.163c-8.915-19.675-18.225-39.171-27.178-58.829
	c-1.417-3.112-3.203-4.212-6.439-4.142c-7.325,0.158-14.662,0.27-21.981,0.03c-4.026-0.132-5.142,1.42-5.113,5.253
	c0.141,18.489-0.089,36.981,0.151,55.467c0.065,4.992-1.385,6.588-6.501,6.432c-12.481-0.38-24.984-0.247-37.474-0.056
	c-3.785,0.058-4.797-1.278-4.791-4.923c0.102-59.631,0.086-119.262,0.097-178.893C408.898,23.469,408.896,15.484,408.896,6.46z
	 M484.953,106.225c0,0.007,0,0.014,0,0.021c6.66,0,13.32-0.051,19.979,0.014c7.54,0.073,14.096-2.081,19.001-8.108
	c5.887-7.234,8.479-15.542,6.694-24.695c-2.667-13.676-9.59-24.079-27.031-23.524c-13.803,0.439-27.633,0.163-41.449,0.016
	c-3.921-0.042-5.679,1.064-5.622,5.353c0.206,15.315,0.179,30.634,0.052,45.95c-0.03,3.647,1.225,5.093,4.903,5.02
	C469.301,106.118,477.128,106.225,484.953,106.225z"/>
<path d="M0,110.87c0.791-26.902,7.107-51.831,23.891-73.307C38.45,18.935,57.229,6.965,80.649,2.346
	c25.256-4.98,49.389-2.25,71.971,10.291c21.803,12.109,35.845,30.9,43.721,54.246c8.73,25.877,9.393,52.398,2.765,78.693
	c-8.471,33.606-28.338,58.069-61.733,69.706c-21.224,7.396-43.135,8.037-64.738,1.745c-41.272-12.022-62.755-41.319-69.902-82.429
	C1.372,126.767,0.889,118.784,0,110.87z M49.438,109.836c0.687,14.398,3.05,28.072,9.953,40.589
	c9.317,16.893,23.885,25.97,42.997,25.825c19.587-0.148,33.93-10.414,42.21-27.826c12.693-26.69,12.252-53.834-1.111-80.148
	C127.873,37.529,86.564,37.299,67.92,57.69C54.234,72.658,50.778,90.946,49.438,109.836z"/>
<path d="M217.208,146.635c15.24,0,30.199-0.06,45.154,0.134c1.005,0.013,2.824,1.929,2.852,2.998
	c0.435,16.098,14.483,25.468,27.788,28.517c9.754,2.235,19.539,1.626,29.099-0.906c8.945-2.369,15.342-7.729,17.335-17.321
	c1.843-8.868-1.31-15.885-10.778-19.397c-11.167-4.143-22.75-7.287-34.323-10.183c-16.613-4.157-33.197-8.084-48.266-16.769
	c-23.85-13.744-30.632-38.571-24.64-62.323c5.965-23.64,23.336-36.201,44.583-44.715c16.793-6.729,34.409-7.721,52.034-5.772
	c23.276,2.574,43.857,11.153,57.566,31.412c7.977,11.787,11.777,25.035,11.745,39.756c-16.63,0-32.708,0-49.061,0
	c-0.488-1.94-1.051-3.812-1.424-5.721c-2.4-12.283-9.948-19.453-21.928-22.365c-12.962-3.151-25.438-2.29-37.035,4.704
	c-8.798,5.306-12.097,16.374-6.474,22.9c2.682,3.113,6.677,5.819,10.594,7.016c14.446,4.415,29.121,8.073,43.684,12.109
	c15.271,4.232,30.439,8.914,42.587,19.708c18.144,16.121,22.917,36.721,17.046,59.428c-6.512,25.186-25.504,38.563-48.888,46.163
	c-23.436,7.617-47.275,6.779-70.822,0.242C231.995,206.91,214.602,178.649,217.208,146.635z"/>
<path d="M788.611,215.217c-3.244,0-5.706,0-8.169,0c-12.662,0-25.326-0.143-37.983,0.086c-3.871,0.07-6.099-0.899-7.318-4.811
	c-2.667-8.558-5.779-16.977-8.584-25.494c-1.22-3.702-2.603-6.493-7.412-6.455c-21.467,0.172-42.939-0.114-64.405,0.099
	c-15.35,0.153-11.387-2.535-16.758,12.405c-2.474,6.882-4.723,13.847-7.354,20.667c-0.538,1.393-2.317,3.271-3.546,3.288
	c-15.954,0.221-31.912,0.147-49.102,0.147c1.961-5.885,3.543-11.013,5.369-16.054c12.226-33.746,24.566-67.451,36.747-101.213
	c10.594-29.363,21.061-58.773,31.487-88.197c1.07-3.019,2.75-4.06,5.902-4.035c16.823,0.13,33.647,0.174,50.469,0
	c3.471-0.036,5.07,1.272,6.183,4.357c16.012,44.386,32.079,88.752,48.174,133.108C770.914,166.823,779.594,190.503,788.611,215.217z
	 M709.314,134.993c-8.588-25.035-16.881-49.211-25.174-73.387c-0.609-0.007-1.219-0.014-1.828-0.021
	c-8.49,24.261-16.979,48.522-25.688,73.408C674.676,134.993,691.486,134.993,709.314,134.993z"/>
</svg>
