<?xml version="1.0" encoding="utf-8"?>
<!-- Generator: Adobe Illustrator 21.0.0, SVG Export Plug-In . SVG Version: 6.00 Build 0)  -->
<svg version="1.1" id="Layer_1" xmlns="http://www.w3.org/2000/svg" xmlns:xlink="http://www.w3.org/1999/xlink" x="0px" y="0px"
	 viewBox="0 0 563.1 288.1" style="enable-background:new 0 0 563.1 288.1;" xml:space="preserve">
<g>
	<path d="M66.3,0c2.4,0.6,4.7,1.1,7.1,1.7c14.8,4,25.7,13.1,33.1,26.4c5.5,10,7.7,20.8,7.9,32.1c0.2,10.8-1.3,21.2-5.7,31.1
		c-6.1,13.8-16.1,23.7-30.5,28.9c-5.8,2.1-11.8,3.1-18,3.4c-12.5,0.6-24.2-1.8-34.7-8.6c-11.9-7.6-19.2-18.7-23-32.2
		c-1-3.6-1.6-7.3-2.4-11c0-6.5,0-13.1,0-19.6c0.2-0.5,0.4-0.9,0.5-1.4c2.2-15,8.4-27.8,20-37.9c6.1-5.3,13.1-9.1,20.9-11.1
		c2.4-0.6,4.7-1.2,7.1-1.7C54.4,0,60.4,0,66.3,0z M85.3,61.6c0.3-7.4-1.1-14.5-4.2-21.2c-4.8-10.2-12.9-15.7-24-15.7
		c-10.4,0-18.4,4.7-23.4,14.1c-2.7,5-4.2,10.3-4.9,16c-1.3,10.6,0.1,20.7,5.5,29.9c5,8.6,12.7,13.3,22.7,13.3
		c10.6,0,18.3-5.1,23.3-14.3C83.9,76.9,85.7,69.5,85.3,61.6z"/>
	<path d="M178.7,0c4,1,8.2,1.8,12.1,3.1c14.7,5.1,23.6,15.3,26.4,30.7c0,0.2,0.1,0.4,0.1,0.6c0.8,5.9,0.5,6.2-5.4,6.2
		c-6.9,0-13.7,0-20.6,0c-2.5,0-2.5-0.1-2.9-2.5c-1.1-7.3-5.8-11.9-13.2-13.4c-5-1-9.8-0.6-14.6,0.7c-2.9,0.8-5.5,2.2-7.5,4.6
		c-3.7,4.4-2.9,9.6,2.1,12.4c2.4,1.3,5,2.4,7.6,3.1c9.1,2.5,18.2,4.7,27.3,7.3c6.4,1.8,12.3,4.9,17.4,9.5c5.6,5,8.9,11.3,9.7,18.6
		c0.8,6.8,0.4,13.7-2.9,20.1c-3.7,7.3-9.4,12.6-16.5,16.4c-7,3.8-14.6,5.7-22.5,6.4c-9.7,0.9-19.2,0-28.4-3
		c-15-4.8-23.6-15.3-25.9-30.8c-0.3-2-0.1-4.1-0.2-6.1c-0.1-1.6,0.8-2.2,2.3-2.2c7.8,0,15.6,0,23.3,0c1.5,0,2.1,0.7,2.3,2.2
		c1.1,9.3,7.5,13.3,15.6,15.5c5.3,1.4,10.6,0.9,15.8-0.5c5.2-1.4,8.8-4.5,9.7-10.2c0.5-3.4-0.5-6.3-3.3-7.9
		c-3.1-1.8-6.4-3.3-9.8-4.3c-6.7-1.9-13.5-3.3-20.2-5c-8-2-15.7-4.7-22.4-9.6c-6.5-4.9-10.4-11.3-11.5-19.5
		c-1-7.8,0.2-15.1,4.2-21.8c4.5-7.6,11.3-12.7,19.4-15.9c4.4-1.7,9.2-2.6,13.8-3.9c0.5-0.1,0.9-0.3,1.4-0.5C167.2,0,172.9,0,178.7,0
		z"/>
	<path d="M504.9,104.3c-9.4-15.3-18.3-29.9-27.1-44.5c-0.2,0-0.4,0-0.6,0c0,1,0,2.1,0,3.1c0,17.5,0,35,0,52.5c0,0.8,0,1.6,0,2.5
		c-0.1,2.3-0.3,2.6-2.7,2.6c-8.3,0-16.6,0-24.9,0c-2.3,0-2.5-0.3-2.6-2.7c0-0.6,0-1.2,0-1.8c0-36.1,0-72.2,0-108.4
		c0-4.5,0-4.5,4.6-4.5c7.6,0,15.1,0.1,22.7,0c2,0,3.2,0.6,4.2,2.3c6.3,10.8,12.7,21.5,19,32.2c2.3,4,4.7,7.9,7.3,12.3
		c0.7-1,1.3-1.6,1.7-2.3c8.3-14,16.6-28,24.8-42c1.1-1.8,2.2-2.6,4.4-2.6c8.1,0.1,16.2,0,24.2,0.1c3.1,0,3.2,0.2,3.2,3.4
		c0,36.9,0,73.9,0,110.8c0,3.1-0.2,3.3-3.3,3.3c-7.9,0-15.8,0-23.6,0c-3.1,0-3.2-0.1-3.2-3.3c0-18,0-36,0-54c0-1.1,0-2.2,0-3.3
		c-0.2-0.1-0.4-0.1-0.6-0.2C523.3,74.2,514.3,89,504.9,104.3z"/>
	<path d="M303.3,81.8c6.2,12.6,12.5,25.3,19,38.3c-1.2,0.1-2,0.3-2.7,0.3c-8.3,0-16.6,0-24.9,0c-2.1,0-3.3-0.7-4.2-2.7
		c-3.1-7-6.4-13.9-9.6-20.9c-1.8-3.8-3.6-7.6-5.3-11.4c-0.8-1.8-1.9-2.7-4-2.6c-3.8,0.2-7.6,0-11.4,0.1c-0.8,0-1.6,0.2-2.7,0.3
		c-0.1,1.3-0.2,2.5-0.2,3.7c0,9.9,0,19.8,0,29.8c0,3.7,0,3.7-3.8,3.7c-7.1,0-14.1,0-21.2,0c-3.1,0-3.3-0.2-3.3-3.3
		c0-36.9,0-73.9,0-110.8c0-3.2,0.2-3.3,3.3-3.3c19.8,0,39.7-0.2,59.5,0.1c10.5,0.2,19,5.2,25.5,13.3c5.3,6.6,8.1,14.3,8.9,22.8
		c0.8,8.7-0.5,16.9-4.4,24.6c-3.6,7.1-9.4,12-16.1,16c-0.5,0.3-1.1,0.6-1.6,0.9C304,80.9,303.9,81.1,303.3,81.8z M272.9,58.9
		c4,0,8,0.1,12,0c1.4,0,2.9-0.3,4.1-0.8c8-3.5,11.2-13.6,7.1-22c-2.2-4.4-5.5-7.6-10.6-7.7c-8.6-0.2-17.2-0.1-25.8-0.1
		c-2.2,0-2.4,0.2-2.5,2.5c0,8.5,0,17,0,25.5c0,2.4,0.3,2.6,2.7,2.6C264.3,59,268.6,58.9,272.9,58.9z"/>
	<path d="M442.7,120.2c-1.3,0.1-2.1,0.2-2.9,0.2c-7.9,0-15.8,0-23.6,0c-3,0-3,0-3.9-2.8c-1.8-5-3.5-10-5.2-15.1
		c-0.6-1.7-1.4-2.4-3.3-2.4c-13.4,0.1-26.8,0.1-40.2,0c-2,0-2.9,0.8-3.5,2.6c-1.8,5.2-3.7,10.4-5.5,15.6c-0.5,1.3-1.2,2.1-2.7,2
		c-8.7,0-17.4,0-26.1-0.1c-0.4,0-0.8-0.2-1.4-0.4c0.3-1.1,0.6-2.2,1-3.2c5.6-15.6,11.3-31.1,17-46.7c4.4-12,8.7-24,13.1-36
		c3.5-9.5,6.9-19,10.3-28.6c0.6-1.7,1.5-2.4,3.3-2.4c9.6,0.1,19.2,0.1,28.9,0c2,0,2.9,0.8,3.6,2.6c2,5.8,4.2,11.5,6.3,17.3
		c6.7,18.5,13.4,36.9,20.1,55.4c4.6,12.8,9.2,25.6,13.8,38.4C442,117.6,442.2,118.7,442.7,120.2z M397.7,75.3
		c-4.7-13.7-9.3-27-13.9-40.3c-0.2,0-0.4,0-0.7,0c-4.6,13.3-9.2,26.7-13.9,40.3C378.9,75.3,388,75.3,397.7,75.3z"/>
	<path d="M183.6,270.9c-2.1,2.7-3.7,5.1-5.7,7.1c-6.5,6.6-14.5,9.8-23.6,10c-4,0.1-8,0.1-11.9-0.6c-16-2.5-26.7-12-32.3-26.8
		c-5.8-15.2-5.7-30.8,0.7-45.8c6.2-14.5,17.4-23.1,33.2-25.3c7.1-1,14.1-0.6,20.9,1.4c13.4,4.1,21.9,13,25.4,26.6
		c0.2,0.7,0.2,1.4,0.3,2.1c0,0.3-0.1,0.6-0.2,1.3c-2.6,0-5.2,0-7.8,0c-1.4,0-1.5-1.2-1.7-2.2c-1.4-5.3-4.1-9.8-8.3-13.4
		c-5.4-4.7-11.7-7.4-18.9-7.7c-6.3-0.3-12.4,0.3-18.2,3.1c-8.2,4.1-13.2,10.7-16.5,19c-2.2,5.7-3.3,11.7-3.4,17.7
		c-0.1,10.4,1.9,20.4,8.1,29c5.1,7,11.9,11.4,20.5,12.8c8,1.3,15.7,0.6,23-3.1c7.3-3.8,12-9.7,14.4-17.5c0.9-3,1.3-6.2,1.8-9.3
		c0.4-2.7-0.1-3.2-3-3.2c-8.1,0-16.2,0-24.2,0c-0.8,0-1.6,0-2.5,0c-2.2-0.1-2.6-0.5-2.7-2.8c-0.1-6.7-0.3-5.8,5.4-5.8
		c10.6,0,21.3,0,31.9,0c3.8,0,3.8,0,3.8,3.7c0,13.8,0,27.6,0,41.4c0,1.1-0.4,3.1-0.9,3.2c-1.8,0.4-3.8,0.2-5.7-0.1
		c-0.4-0.1-0.7-1.6-0.8-2.4c-0.3-3.5-0.4-6.9-0.7-10.4C184,272.4,183.8,271.9,183.6,270.9z"/>
	<path d="M211.2,238.4c0-14.3,0-28.6,0-43c0-0.8,0-1.6,0-2.5c0-1.2,0.6-2,1.8-2c2,0,4.1,0,6.1,0c1.2,0,1.9,0.7,1.9,1.9
		c0,0.8,0,1.6,0,2.5c0,11,0,22.1,0,33.1c0,3.5,0,3.6,3.6,3.6c16,0,31.9,0,47.9,0c0.7,0,1.5,0.2,2.1-0.1c0.6-0.3,1.3-0.9,1.5-1.5
		c0.3-0.7,0.1-1.6,0.1-2.4c0-11,0-22.1,0-33.1c0-3.6,0.2-3.9,3.8-3.9c7,0,6.1-0.6,6.1,6c0,28,0,56.1,0,84.1c0,0.6,0,1.2,0,1.8
		c0,3.2-0.1,3.3-3.3,3.3c-1.3,0-2.7,0-4,0c-2.3-0.1-2.5-0.3-2.6-2.7c0-0.8,0-1.6,0-2.5c0-12.3,0-24.5,0-36.8c0-3.4-0.1-3.5-3.4-3.5
		c-16.2,0-32.3,0-48.5,0c-3.3,0-3.3,0.1-3.3,3.5c0,12.5,0,25,0,37.4c0,0.8,0,1.6,0,2.5c0,1.4-0.6,2.1-2,2.1c-1.9,0-3.9,0-5.8,0
		c-1.4,0-2-0.8-2-2.1c0-0.8,0-1.6,0-2.5C211.2,267.2,211.2,252.8,211.2,238.4z"/>
	<path d="M415.6,238.5c0-14.6,0-29.3,0-43.9c0-3.6,0.1-3.7,3.6-3.7c17.9,0,35.8,0,53.7,0c3.6,0,3.6,0.1,3.6,3.6c0,5.4,0.3,5-5,5
		c-13.7,0-27.4,0-41.1,0c-0.8,0-1.6,0-2.5,0c-2.2,0.1-2.4,0.3-2.4,2.6c-0.1,2.2,0,4.5,0,6.8c0,6.5,0,13.1,0,19.6c0,4.1,0,4.1,4,4.1
		c12.1,0,24.1,0,36.2,0c0.7,0,1.4,0,2.1,0c0.4,0,0.9-0.1,1.2,0.1c3.2,1.2,1.4,4,1.8,6.1c0.3,1.6-0.5,2.5-2.3,2.5c-3.3,0-6.5,0-9.8,0
		c-9.9,0-19.8,0-29.8,0c-3.5,0-3.5,0-3.5,3.6c0,12.3,0,24.6,0,36.8c0,0.8,0,1.6,0,2.5c0,1.2-0.6,1.9-1.9,1.9c-2,0-4.1,0-6.1,0
		c-1.3,0-1.8-0.7-1.8-2c0-0.8,0-1.6,0-2.5C415.6,267.4,415.6,252.9,415.6,238.5z"/>
	<path d="M479.3,191.1c3.2,0,6.5-0.2,9.7,0.1c0.9,0.1,1.9,1.4,2.5,2.4c7.4,11.3,14.7,22.6,22.1,34c2,3.1,4,6.2,6,9.3
		c0.3,0.4,0.6,0.7,1.3,1.5c1.9-2.9,3.8-5.5,5.5-8.2c6.7-10.3,13.3-20.6,20-30.9c1.4-2.1,2.7-4.4,4.2-6.4c0.5-0.8,1.5-1.6,2.3-1.7
		c3.1-0.2,6.3-0.1,10.1-0.1c-0.6,1.2-1,2-1.4,2.7c-7,10.4-14,20.9-21.1,31.3c-4.3,6.4-8.5,12.7-12.9,19c-1.4,2-2.1,4.1-2,6.6
		c0.1,10.6,0,21.3,0,31.9c0,3.6-0.1,3.7-3.6,3.7c-7.2,0-6.3,0.9-6.3-6.4c0-9.9,0-19.9,0-29.8c0-2-0.5-3.7-1.7-5.4
		c-9.8-14.6-19.6-29.3-29.3-43.9c-1.4-2.1-2.9-4.2-4.4-6.3c-0.6-0.8-1-1.7-1.5-2.5C479,191.6,479.2,191.3,479.3,191.1z"/>
	<path d="M330.2,199.8c-1.6-0.1-2.7-0.2-3.8-0.2c-8.5,0-17,0-25.5,0c-3.8,0-3.8,0-3.8-3.7c0-5.2-0.4-5,5-5c22.1,0,44.2,0,66.3,0
		c4.3,0,4.3,0,4.3,4.5c0,0.4,0,0.8,0,1.2c-0.1,2.7-0.3,2.9-3,2.9c-8.6,0-17.2,0-25.8,0c-1.2,0-2.4,0-4,0c-0.1,1.5-0.3,2.8-0.3,4.1
		c0,25.6,0,51.2,0,76.7c0,0.7,0,1.4,0,2.1c0,3.6,0,3.6-3.5,3.7c-1.3,0-2.7,0-4,0c-1.3,0-1.9-0.7-1.9-1.9c0-0.9,0-1.8,0-2.8
		c0-25.8,0-51.6,0-77.4C330.2,202.9,330.2,201.5,330.2,199.8z"/>
	<path d="M14.2,278.1c1.8,0,3,0,4.2,0c15,0,30.1,0,45.1,0c4,0,4,0,4,4.1c0,4,0,4-4.1,4c-18.3,0-36.6,0-54.9,0c-0.8,0-1.6,0-2.5,0
		c-1.1,0-1.7-0.7-1.7-1.8c0-0.8,0-1.6,0-2.5c0-28.8,0-57.7,0-86.5c0-0.6,0-1.2,0-1.8c0.1-2.2,0.5-2.6,2.8-2.7c1.5-0.1,3.1,0,4.6,0
		c1.9-0.1,2.6,0.9,2.5,2.6c-0.1,0.8,0,1.6,0,2.5c0,25.9,0,51.7,0,77.6C14.2,274.9,14.2,276.2,14.2,278.1z"/>
	<path d="M79.1,238.6c0-14.6,0-29.2,0-43.9c0-3.7,0.1-3.7,3.8-3.7c6.6,0,6.1-0.4,6.1,6.2c0,28.2,0,56.4,0,84.7c0,4.4,0,4.4-4.3,4.4
		c-6.1,0-5.6,0.6-5.6-5.6C79.1,266.6,79.1,252.6,79.1,238.6z"/>
	<path d="M384.3,238.5c0-14.6,0-29.3,0-43.9c0-3.6,0.1-3.7,3.5-3.7c1.2,0,2.5,0,3.7,0c1.6,0,2.2,0.8,2.2,2.3c0,0.7,0,1.4,0,2.1
		c0,28.8,0,57.5,0,86.3c0,0.4,0,0.8,0,1.2c0,3.2-0.1,3.3-3.2,3.3c-1.3,0-2.7,0-4,0c-1.6,0-2.2-0.7-2.2-2.3c0-0.8,0-1.6,0-2.5
		C384.3,267.2,384.3,252.9,384.3,238.5z"/>
</g>
</svg>
