<?xml version="1.0" encoding="utf-8"?>
<!-- Generator: Adobe Illustrator 21.0.0, SVG Export Plug-In . SVG Version: 6.00 Build 0)  -->
<svg version="1.1" id="Layer_1" xmlns="http://www.w3.org/2000/svg" xmlns:xlink="http://www.w3.org/1999/xlink" x="0px" y="0px"
	 viewBox="0 0 283.3 498.5" style="enable-background:new 0 0 283.3 498.5;" xml:space="preserve">
<style type="text/css">
	.st0{fill:#010101;}
	.st1{fill-rule:evenodd;clip-rule:evenodd;}
</style>
<g>
	<path class="st0" d="M141.6,1.7c-77.2,0-140,51.9-140,115.7v0.1c1.3,31.1,6.5,56.7,15.5,76.1c18,40.2,29.5,86.8,36.3,146.7
		c0.9,12.7,3.8,23.5,8.6,32.1c2.1,3.7,9,9.4,14.3,11.7c0.1,0.1,0.2,0.3,0.4,0.4l0,0c0.3,0.4,0.6,0.7,0.9,1c1.1,1.3,2.1,2.8,2.9,4.3
		c0.7,1.3,1.2,2.6,1.5,3.8v0.1v0.1c0.9,2.6,1.8,6,2.4,9.9c0.8,4.4,1.3,9.3,1.8,14.6c0.4,5.8,0.8,11.9,0.9,17.9
		c0.2,6.6,0.2,13.2,0.1,19.1v2.1h0.3l16,17.3h-0.1l5.4,4.7l14,12.2l0,0l0.3,0.3c2.5,2.2,5.1,4.4,18.4,4.9h0.2
		c13.2-0.5,15.8-2.7,18.4-4.9l0.3-0.3l0,0l14-12.2l5.4-4.7h-0.1l16.4-17.3c-0.1,0-0.1,0-0.2,0v-2.1c-0.1-5.9-0.1-12.4,0.1-19.1
		c0.1-6,0.4-12,0.9-17.9c0.4-5.3,1-10.3,1.8-14.6c0.7-3.9,1.4-7.3,2.4-9.9v-0.1v-0.1c0.3-1.3,0.8-2.6,1.4-3.8
		c0.8-1.5,1.8-2.9,2.9-4.3c0.2-0.3,0.5-0.6,0.9-1c0.1-0.1,0.2-0.2,0.3-0.4c5.3-2.3,12.2-8,14.3-11.7c4.8-8.6,7.7-19.4,8.6-32.1
		c6.8-59.8,18.3-106.4,36.3-146.6c9-19.4,14.2-45,15.5-76.1v-0.1C281.6,53.6,218.8,1.7,141.6,1.7z M22,189.6
		c-2.4-5.4-4.6-11.4-6.4-17.8c-1.2-4.7-2.5-10.1-3.7-15.8c-2.2-11.7-3.6-24.6-4.2-38.8c0-60.4,60.1-109.6,134-109.6
		s134,49.2,134,109.6c-1.2,29.5-6.1,53.8-14.3,72.3c-35.7,0.1-75.3,0.1-117.8,0.1C102.4,189.7,32.5,189.6,22,189.6z M156.8,488.5
		l-0.3,0.3c-1.9,1.6-3.7,3.2-14.9,3.6c-11.2-0.4-13-2-14.9-3.6l-0.3-0.3l-9-7.9c1.4,0.1,2.9,0.1,4.5,0.2c2.9,0.1,6,0.1,9.4,0.2
		c3.3,0,6.8,0.1,10.3,0.1s7,0,10.3-0.1c3.4,0,6.5-0.1,9.4-0.2c1.6-0.1,3.1-0.1,4.5-0.2L156.8,488.5z M197,388.4
		c-0.8,1.5-1.4,3.1-1.8,4.6c-1,2.8-1.8,6.3-2.5,10.3c-0.7,4.4-1.3,9.4-1.8,14.7c-0.5,5.6-0.8,11.7-0.9,17.7
		c-0.2,5.8-0.2,11.6-0.1,16.9l-2.1,0.1c-1.7,0.1-3.3,0.2-4.8,0.3c-2.1,0.1-4.1,0.2-6.1,0.3c-2.2,0.1-4.3,0.2-6.4,0.3
		c-2.4,0.1-4.7,0.1-6.9,0.2c-2.4,0.1-4.9,0.1-7.2,0.2c-2.5,0.1-5,0.1-7.4,0.1c-2.5,0-5,0.1-7.4,0.1s-4.9,0-7.4-0.1
		c-2.4,0-4.9-0.1-7.4-0.1c-2.3-0.1-4.7-0.1-7.2-0.2c-2.2-0.1-4.6-0.1-6.9-0.2c-2.1-0.1-4.2-0.2-6.4-0.3c-2-0.1-4-0.2-6.1-0.3
		c-1.5-0.1-3.1-0.2-4.8-0.3l-2.1-0.1c0-3.7,0.1-7.6,0-11.5c5.7,0.5,12,0.9,18.5,1.2c11.9,0.5,24.2,0.8,34.9,0.8v-3.4
		c-10.8,0-23.1-0.2-34.7-0.7c-6.5-0.3-12.9-0.7-18.7-1.2c0-0.6,0-1.2,0-1.9c-0.1-2.8-0.2-5.7-0.3-8.5c5.9,0.5,12.3,0.9,19,1.2
		c11.9,0.5,24.2,0.8,34.9,0.8V426c-10.8,0-23.1-0.2-34.7-0.7c-6.8-0.3-13.3-0.7-19.3-1.3c-0.1-2-0.3-3.9-0.4-5.8
		c-0.1-1.6-0.3-3.1-0.4-4.6c6.1,0.6,13,1,20,1.3c11.9,0.5,24.2,0.8,34.9,0.8v-3.4c-10.8,0-23.1-0.2-34.7-0.7
		c-7.2-0.3-14.3-0.8-20.5-1.4c-0.3-2.3-0.6-4.5-1-6.6c-0.2-1.4-0.5-2.7-0.7-3.9c6.7,0.7,14.2,1.1,22.1,1.5
		c11.9,0.5,24.2,0.8,34.9,0.8v-3.4c-10.8,0-23.1-0.2-34.7-0.7c-8.2-0.4-16.2-0.9-23.1-1.6c-0.3-1-0.6-2-0.9-2.9
		c-0.3-1.6-1-3.1-1.8-4.6c-0.5-1-1.1-1.9-1.8-2.8l2,0.2c0.1,0,0.2,0,0.4,0c19.8,2.2,37.4,3.2,54.8,3.1c0.9,0,1.9,0,2.8,0
		c17.2,0,34.7-1.1,54.4-3.4C198.1,386.5,197.5,387.5,197,388.4z M223.9,339.6v0.1c-0.8,11.9-3.5,21.8-7.9,29.7
		c-1.8,3.1-10,9.3-12.9,9.6c-16.9,2.1-32.1,3.3-46.8,3.8c-4.1,0.1-8.1,0.1-12,0.2c-0.9,0-1.8,0-2.7,0s-1.8,0-2.7,0
		c-3.8,0-7.8-0.1-11.9-0.2c-14.7-0.4-29.9-1.7-46.8-3.8c-2.9-0.4-11.1-6.5-12.9-9.6c-4.4-7.8-7.1-17.8-7.9-29.7v-0.1
		c-6.8-59.7-18.3-106.5-36.1-147c14.1,0,80.5,0.1,120.2,0.1c42,0,81.2,0,116.5-0.1C242.1,233.1,230.6,279.9,223.9,339.6z"/>
</g>
<polygon class="st1" points="154.1,298.3 151.3,295.8 142.1,306 145.2,308.7 "/>
<path class="st1" d="M153.3,291.8c2.4,0.8,4,2.4,4.9,4.9l-2,0.7c-0.6-1.8-1.8-2.9-3.5-3.5L153.3,291.8z"/>
<path class="st1" d="M154.5,288.7c1.6,0.6,3,1.4,4.1,2.5c1.1,1.1,2,2.5,2.6,4.2l-2,0.7c-0.5-1.4-1.2-2.5-2.1-3.4
	c-0.9-0.9-2-1.6-3.3-2L154.5,288.7z"/>
<polygon class="st1" points="141,310.8 141,310.8 141,310.8 141.1,310.8 141,310.9 141,334.9 136.8,334.9 136.8,312.2 129.1,303.2 
	131.9,300.6 "/>
<rect x="136.8" y="278.2" class="st1" width="4.2" height="24.8"/>
<g>
	<path d="M123.9,223.6c0.2,0.1,0.4,0.1,0.6,0.1c1.3,0.3,2.2,1.1,2.9,2.3c0.5,0.9,0.7,1.8,0.7,2.8c0,0.9-0.1,1.9-0.5,2.7
		c-0.5,1.2-1.4,2.1-2.7,2.5c-0.5,0.2-1,0.3-1.6,0.3c-1.1,0.1-2.1-0.2-3-0.8c-1-0.7-1.7-1.6-2-2.8c-0.1-0.3-0.1-0.6-0.2-1
		c0-0.6,0-1.1,0-1.7c0,0,0-0.1,0-0.1c0.2-1.3,0.7-2.4,1.7-3.3c0.5-0.5,1.1-0.8,1.8-1c0.2-0.1,0.4-0.1,0.6-0.1
		C122.8,223.6,123.4,223.6,123.9,223.6z M125.5,228.9c0-0.6-0.1-1.3-0.4-1.9c-0.4-0.9-1.1-1.4-2.1-1.4c-0.9,0-1.6,0.4-2,1.2
		c-0.2,0.4-0.4,0.9-0.4,1.4c-0.1,0.9,0,1.8,0.5,2.6c0.4,0.8,1.1,1.2,2,1.2c0.9,0,1.6-0.4,2-1.3C125.4,230.3,125.6,229.6,125.5,228.9
		z"/>
	<path d="M133.7,223.6c0.3,0.1,0.7,0.2,1.1,0.3c1.3,0.4,2.1,1.3,2.3,2.7c0,0,0,0,0,0.1c0.1,0.5,0,0.5-0.5,0.5c-0.6,0-1.2,0-1.8,0
		c-0.2,0-0.2,0-0.3-0.2c-0.1-0.6-0.5-1-1.2-1.2c-0.4-0.1-0.9-0.1-1.3,0.1c-0.3,0.1-0.5,0.2-0.7,0.4c-0.3,0.4-0.3,0.8,0.2,1.1
		c0.2,0.1,0.4,0.2,0.7,0.3c0.8,0.2,1.6,0.4,2.4,0.6c0.6,0.2,1.1,0.4,1.5,0.8c0.5,0.4,0.8,1,0.8,1.6c0.1,0.6,0,1.2-0.3,1.8
		c-0.3,0.6-0.8,1.1-1.4,1.4c-0.6,0.3-1.3,0.5-2,0.6c-0.8,0.1-1.7,0-2.5-0.3c-1.3-0.4-2.1-1.3-2.3-2.7c0-0.2,0-0.4,0-0.5
		c0-0.1,0.1-0.2,0.2-0.2c0.7,0,1.4,0,2,0c0.1,0,0.2,0.1,0.2,0.2c0.1,0.8,0.7,1.2,1.4,1.4c0.5,0.1,0.9,0.1,1.4,0s0.8-0.4,0.8-0.9
		c0-0.3,0-0.6-0.3-0.7c-0.3-0.2-0.6-0.3-0.9-0.4c-0.6-0.2-1.2-0.3-1.8-0.4c-0.7-0.2-1.4-0.4-2-0.8c-0.6-0.4-0.9-1-1-1.7
		c-0.1-0.7,0-1.3,0.4-1.9c0.4-0.7,1-1.1,1.7-1.4c0.4-0.1,0.8-0.2,1.2-0.3c0,0,0.1,0,0.1,0C132.7,223.6,133.2,223.6,133.7,223.6z"/>
	<path d="M162.2,232.7c-0.8-1.3-1.6-2.6-2.4-3.9c0,0,0,0-0.1,0c0,0.1,0,0.2,0,0.3c0,1.5,0,3.1,0,4.6c0,0.1,0,0.1,0,0.2
		c0,0.2,0,0.2-0.2,0.2c-0.7,0-1.5,0-2.2,0c-0.2,0-0.2,0-0.2-0.2c0-0.1,0-0.1,0-0.2c0-3.2,0-6.3,0-9.5c0-0.4,0-0.4,0.4-0.4
		c0.7,0,1.3,0,2,0c0.2,0,0.3,0.1,0.4,0.2c0.6,0.9,1.1,1.9,1.7,2.8c0.2,0.3,0.4,0.7,0.6,1.1c0.1-0.1,0.1-0.1,0.1-0.2
		c0.7-1.2,1.5-2.4,2.2-3.7c0.1-0.2,0.2-0.2,0.4-0.2c0.7,0,1.4,0,2.1,0c0.3,0,0.3,0,0.3,0.3c0,3.2,0,6.5,0,9.7c0,0.3,0,0.3-0.3,0.3
		c-0.7,0-1.4,0-2.1,0c-0.3,0-0.3,0-0.3-0.3c0-1.6,0-3.1,0-4.7c0-0.1,0-0.2,0-0.3c0,0,0,0-0.1,0C163.8,230,163.1,231.3,162.2,232.7z"
		/>
	<path d="M144.6,230.7c0.5,1.1,1.1,2.2,1.7,3.4c-0.1,0-0.2,0-0.2,0c-0.7,0-1.5,0-2.2,0c-0.2,0-0.3-0.1-0.4-0.2
		c-0.3-0.6-0.6-1.2-0.8-1.8c-0.2-0.3-0.3-0.7-0.5-1c-0.1-0.2-0.2-0.2-0.3-0.2c-0.3,0-0.7,0-1,0c-0.1,0-0.1,0-0.2,0
		c0,0.1,0,0.2,0,0.3c0,0.9,0,1.7,0,2.6c0,0.3,0,0.3-0.3,0.3c-0.6,0-1.2,0-1.9,0c-0.3,0-0.3,0-0.3-0.3c0-3.2,0-6.5,0-9.7
		c0-0.3,0-0.3,0.3-0.3c1.7,0,3.5,0,5.2,0c0.9,0,1.7,0.5,2.2,1.2c0.5,0.6,0.7,1.3,0.8,2c0.1,0.8,0,1.5-0.4,2.2
		c-0.3,0.6-0.8,1-1.4,1.4C144.8,230.6,144.7,230.6,144.6,230.7C144.7,230.6,144.7,230.7,144.6,230.7z M141.9,228.7c0.3,0,0.7,0,1,0
		c0.1,0,0.3,0,0.4-0.1c0.7-0.3,1-1.2,0.6-1.9c-0.2-0.4-0.5-0.7-0.9-0.7c-0.8,0-1.5,0-2.3,0c-0.2,0-0.2,0-0.2,0.2c0,0.7,0,1.5,0,2.2
		c0,0.2,0,0.2,0.2,0.2C141.2,228.7,141.6,228.7,141.9,228.7z"/>
	<path d="M156.8,234.1c-0.1,0-0.2,0-0.3,0c-0.7,0-1.4,0-2.1,0c-0.3,0-0.3,0-0.3-0.2c-0.2-0.4-0.3-0.9-0.5-1.3
		c-0.1-0.1-0.1-0.2-0.3-0.2c-1.2,0-2.3,0-3.5,0c-0.2,0-0.3,0.1-0.3,0.2c-0.2,0.5-0.3,0.9-0.5,1.4c0,0.1-0.1,0.2-0.2,0.2
		c-0.8,0-1.5,0-2.3,0c0,0-0.1,0-0.1,0c0-0.1,0.1-0.2,0.1-0.3c0.5-1.4,1-2.7,1.5-4.1c0.4-1,0.8-2.1,1.1-3.1c0.3-0.8,0.6-1.7,0.9-2.5
		c0.1-0.1,0.1-0.2,0.3-0.2c0.8,0,1.7,0,2.5,0c0.2,0,0.3,0.1,0.3,0.2c0.2,0.5,0.4,1,0.6,1.5c0.6,1.6,1.2,3.2,1.8,4.8
		c0.4,1.1,0.8,2.2,1.2,3.4C156.7,233.8,156.8,233.9,156.8,234.1z M152.9,230.1c-0.4-1.2-0.8-2.4-1.2-3.5c0,0,0,0-0.1,0
		c-0.4,1.2-0.8,2.3-1.2,3.5C151.2,230.1,152,230.1,152.9,230.1z"/>
	<path d="M134.1,247.3c-0.2,0.2-0.3,0.4-0.5,0.6c-0.6,0.6-1.3,0.9-2.1,0.9c-0.3,0-0.7,0-1-0.1c-1.4-0.2-2.3-1-2.8-2.3
		c-0.5-1.3-0.5-2.7,0.1-4c0.5-1.3,1.5-2,2.9-2.2c0.6-0.1,1.2-0.1,1.8,0.1c1.2,0.4,1.9,1.1,2.2,2.3c0,0.1,0,0.1,0,0.2
		c0,0,0,0.1,0,0.1c-0.2,0-0.5,0-0.7,0c-0.1,0-0.1-0.1-0.1-0.2c-0.1-0.5-0.4-0.9-0.7-1.2c-0.5-0.4-1-0.6-1.7-0.7
		c-0.6,0-1.1,0-1.6,0.3c-0.7,0.4-1.2,0.9-1.4,1.7c-0.2,0.5-0.3,1-0.3,1.5c0,0.9,0.2,1.8,0.7,2.5c0.4,0.6,1,1,1.8,1.1
		c0.7,0.1,1.4,0.1,2-0.3c0.6-0.3,1-0.8,1.3-1.5c0.1-0.3,0.1-0.5,0.2-0.8c0-0.2,0-0.3-0.3-0.3c-0.7,0-1.4,0-2.1,0c-0.1,0-0.1,0-0.2,0
		c-0.2,0-0.2,0-0.2-0.2c0-0.6,0-0.5,0.5-0.5c0.9,0,1.9,0,2.8,0c0.3,0,0.3,0,0.3,0.3c0,1.2,0,2.4,0,3.6c0,0.1,0,0.3-0.1,0.3
		c-0.2,0-0.3,0-0.5,0c0,0-0.1-0.1-0.1-0.2c0-0.3,0-0.6-0.1-0.9C134.2,247.4,134.1,247.3,134.1,247.3z"/>
	<path d="M136.5,244.4c0-1.3,0-2.5,0-3.8c0-0.1,0-0.1,0-0.2c0-0.1,0.1-0.2,0.2-0.2c0.2,0,0.4,0,0.5,0c0.1,0,0.2,0.1,0.2,0.2
		c0,0.1,0,0.1,0,0.2c0,1,0,1.9,0,2.9c0,0.3,0,0.3,0.3,0.3c1.4,0,2.8,0,4.2,0c0.1,0,0.1,0,0.2,0s0.1-0.1,0.1-0.1c0-0.1,0-0.1,0-0.2
		c0-1,0-1.9,0-2.9c0-0.3,0-0.3,0.3-0.3c0.6,0,0.5-0.1,0.5,0.5c0,2.4,0,4.9,0,7.4c0,0.1,0,0.1,0,0.2c0,0.3,0,0.3-0.3,0.3
		c-0.1,0-0.2,0-0.3,0c-0.2,0-0.2,0-0.2-0.2c0-0.1,0-0.1,0-0.2c0-1.1,0-2.1,0-3.2c0-0.3,0-0.3-0.3-0.3c-1.4,0-2.8,0-4.2,0
		c-0.3,0-0.3,0-0.3,0.3c0,1.1,0,2.2,0,3.3c0,0.1,0,0.1,0,0.2c0,0.1-0.1,0.2-0.2,0.2c-0.2,0-0.3,0-0.5,0c-0.1,0-0.2-0.1-0.2-0.2
		c0-0.1,0-0.1,0-0.2C136.5,246.9,136.5,245.7,136.5,244.4z"/>
	<path d="M154.4,244.4c0-1.3,0-2.6,0-3.8c0-0.3,0-0.3,0.3-0.3c1.6,0,3.1,0,4.7,0c0.3,0,0.3,0,0.3,0.3c0,0.5,0,0.4-0.4,0.4
		c-1.2,0-2.4,0-3.6,0c-0.1,0-0.1,0-0.2,0c-0.2,0-0.2,0-0.2,0.2c0,0.2,0,0.4,0,0.6c0,0.6,0,1.1,0,1.7c0,0.4,0,0.4,0.3,0.4
		c1.1,0,2.1,0,3.2,0c0.1,0,0.1,0,0.2,0c0,0,0.1,0,0.1,0c0.3,0.1,0.1,0.3,0.2,0.5c0,0.1,0,0.2-0.2,0.2c-0.3,0-0.6,0-0.9,0
		c-0.9,0-1.7,0-2.6,0c-0.3,0-0.3,0-0.3,0.3c0,1.1,0,2.2,0,3.2c0,0.1,0,0.1,0,0.2c0,0.1-0.1,0.2-0.2,0.2c-0.2,0-0.4,0-0.5,0
		c-0.1,0-0.2-0.1-0.2-0.2c0-0.1,0-0.1,0-0.2C154.4,246.9,154.4,245.7,154.4,244.4z"/>
	<path d="M160,240.3c0.3,0,0.6,0,0.8,0c0.1,0,0.2,0.1,0.2,0.2c0.6,1,1.3,2,1.9,3c0.2,0.3,0.3,0.5,0.5,0.8c0,0,0.1,0.1,0.1,0.1
		c0.2-0.3,0.3-0.5,0.5-0.7c0.6-0.9,1.2-1.8,1.7-2.7c0.1-0.2,0.2-0.4,0.4-0.6c0-0.1,0.1-0.1,0.2-0.1c0.3,0,0.6,0,0.9,0
		c-0.1,0.1-0.1,0.2-0.1,0.2c-0.6,0.9-1.2,1.8-1.8,2.7c-0.4,0.6-0.7,1.1-1.1,1.7c-0.1,0.2-0.2,0.4-0.2,0.6c0,0.9,0,1.9,0,2.8
		c0,0.3,0,0.3-0.3,0.3c-0.6,0-0.6,0.1-0.6-0.6c0-0.9,0-1.7,0-2.6c0-0.2,0-0.3-0.1-0.5c-0.9-1.3-1.7-2.6-2.6-3.8
		c-0.1-0.2-0.3-0.4-0.4-0.6C160,240.5,160,240.4,160,240.3C160,240.3,160,240.3,160,240.3z"/>
	<path d="M147,241c-0.1,0-0.2,0-0.3,0c-0.7,0-1.5,0-2.2,0c-0.3,0-0.3,0-0.3-0.3c0-0.5,0-0.4,0.4-0.4c1.9,0,3.9,0,5.8,0
		c0.4,0,0.4,0,0.4,0.4c0,0,0,0.1,0,0.1c0,0.2,0,0.3-0.3,0.3c-0.8,0-1.5,0-2.3,0c-0.1,0-0.2,0-0.3,0c0,0.1,0,0.2,0,0.4
		c0,2.2,0,4.5,0,6.7c0,0.1,0,0.1,0,0.2c0,0.3,0,0.3-0.3,0.3c-0.1,0-0.2,0-0.3,0c-0.1,0-0.2-0.1-0.2-0.2c0-0.1,0-0.2,0-0.2
		c0-2.3,0-4.5,0-6.8C147,241.3,147,241.2,147,241z"/>
	<path d="M119.3,247.9c0.2,0,0.3,0,0.4,0c1.3,0,2.6,0,3.9,0c0.3,0,0.3,0,0.3,0.4c0,0.3,0,0.3-0.4,0.3c-1.6,0-3.2,0-4.8,0
		c-0.1,0-0.1,0-0.2,0c-0.1,0-0.1-0.1-0.1-0.2c0-0.1,0-0.1,0-0.2c0-2.5,0-5,0-7.6c0-0.1,0-0.1,0-0.2c0-0.2,0-0.2,0.2-0.2
		c0.1,0,0.3,0,0.4,0c0.2,0,0.2,0.1,0.2,0.2c0,0.1,0,0.1,0,0.2c0,2.3,0,4.5,0,6.8C119.3,247.6,119.3,247.7,119.3,247.9z"/>
	<path d="M125,244.4c0-1.3,0-2.6,0-3.8c0-0.3,0-0.3,0.3-0.3c0.6,0,0.5,0,0.5,0.5c0,2.5,0,4.9,0,7.4c0,0.4,0,0.4-0.4,0.4
		c-0.5,0-0.5,0.1-0.5-0.5C125,246.9,125,245.7,125,244.4z"/>
	<path d="M151.7,244.4c0-1.3,0-2.6,0-3.8c0-0.3,0-0.3,0.3-0.3c0.1,0,0.2,0,0.3,0c0.1,0,0.2,0.1,0.2,0.2c0,0.1,0,0.1,0,0.2
		c0,2.5,0,5,0,7.5c0,0,0,0.1,0,0.1c0,0.3,0,0.3-0.3,0.3c-0.1,0-0.2,0-0.3,0c-0.1,0-0.2-0.1-0.2-0.2c0-0.1,0-0.1,0-0.2
		C151.7,246.9,151.7,245.7,151.7,244.4z"/>
</g>
</svg>
